%
M48
M72
T01C0.01200
T02C0.03150
T03C0.05900
%
T01
X133842Y64633
X134142Y68533
X131742Y72133
X145842Y52333
X159642Y43033
X222042Y64033
X228042Y53533
X202242Y74833
X220842Y105433
X234342Y111733
X241542Y123133
X258042Y106633
X269442Y96433
X269442Y90733
X269442Y82033
X132642Y119533
T02
X80842Y48933
X90842Y48933
X100842Y48933
X110842Y48933
T03
X277865Y79031
X288657Y75784
X277865Y104031
X288657Y107279
M30
