G75*
%MOIN*%
%OFA0B0*%
%FSLAX25Y25*%
%IPPOS*%
%LPD*%
%AMOC8*
5,1,8,0,0,1.08239X$1,22.5*
%
%ADD10R,0.04731X0.04337*%
%ADD11R,0.05518X0.06699*%
%ADD12R,0.09000X0.09000*%
%ADD13R,0.03943X0.03156*%
%ADD14R,0.06502X0.02959*%
%ADD15R,0.05715X0.01975*%
%ADD16R,0.07880X0.07880*%
%ADD17R,0.09250X0.09250*%
%ADD18R,0.06306X0.05518*%
%ADD19R,0.04337X0.04731*%
%ADD20R,0.07487X0.06699*%
%ADD21R,0.06246X0.03943*%
%ADD22R,0.06408X0.02113*%
%ADD23R,0.04337X0.06306*%
%ADD24R,0.05951X0.05951*%
%ADD25R,0.03156X0.06306*%
%ADD26R,0.04337X0.02369*%
%ADD27R,0.03550X0.03550*%
D10*
X0049995Y0036433D03*
X0056688Y0036433D03*
X0056688Y0062683D03*
X0049995Y0062683D03*
X0221495Y0140331D03*
X0228188Y0140331D03*
X0235495Y0140283D03*
X0242188Y0140283D03*
X0277342Y0120433D03*
X0284035Y0120433D03*
X0232188Y0076183D03*
X0225495Y0076183D03*
D11*
X0089582Y0038933D03*
X0082102Y0038933D03*
D12*
X0080842Y0048933D03*
X0090842Y0048933D03*
X0100842Y0048933D03*
X0110842Y0048933D03*
D13*
X0230617Y0056683D03*
X0240066Y0052943D03*
X0240066Y0060423D03*
X0240066Y0044173D03*
X0230617Y0040433D03*
X0240066Y0036693D03*
D14*
X0201995Y0040701D03*
X0201995Y0049165D03*
X0183688Y0049165D03*
X0183688Y0040701D03*
X0165745Y0040701D03*
X0165745Y0049165D03*
X0147438Y0049165D03*
X0147438Y0040701D03*
X0062495Y0044701D03*
X0044188Y0044701D03*
X0044188Y0053165D03*
X0062495Y0053165D03*
D15*
X0278126Y0086413D03*
X0278126Y0088971D03*
X0278126Y0091531D03*
X0278126Y0094091D03*
X0278126Y0096649D03*
D16*
X0288657Y0096255D03*
X0288657Y0086807D03*
D17*
X0277865Y0079031D03*
X0288657Y0075784D03*
X0277865Y0104031D03*
X0288657Y0107279D03*
D18*
X0264592Y0097280D03*
X0264592Y0090587D03*
X0127842Y0116587D03*
X0127842Y0123280D03*
D19*
X0127842Y0108280D03*
X0127842Y0101587D03*
X0127842Y0094530D03*
X0127842Y0087837D03*
X0127842Y0080780D03*
X0127842Y0074087D03*
X0127842Y0067030D03*
X0127842Y0060337D03*
X0222842Y0060030D03*
X0222842Y0053337D03*
X0222842Y0043780D03*
X0222842Y0037087D03*
X0247842Y0037087D03*
X0247842Y0043780D03*
X0247842Y0053337D03*
X0247842Y0060030D03*
X0268592Y0059780D03*
X0278444Y0059780D03*
X0278444Y0053087D03*
X0268592Y0053087D03*
X0268592Y0044030D03*
X0278444Y0044030D03*
X0278444Y0037337D03*
X0268592Y0037337D03*
X0264592Y0071837D03*
X0264592Y0078530D03*
X0264592Y0105587D03*
X0264592Y0112280D03*
D20*
X0257842Y0131575D03*
X0257842Y0142598D03*
D21*
X0209102Y0111724D03*
X0209102Y0105819D03*
X0209102Y0099913D03*
X0209102Y0094008D03*
X0209102Y0088102D03*
X0209102Y0082197D03*
X0209102Y0076291D03*
X0209102Y0070386D03*
X0209102Y0064480D03*
X0139082Y0064480D03*
X0139082Y0070386D03*
X0139082Y0076291D03*
X0139082Y0082197D03*
X0139082Y0088102D03*
X0139082Y0094008D03*
X0139082Y0099913D03*
X0139082Y0105819D03*
X0139082Y0111724D03*
D22*
X0225665Y0111685D03*
X0225665Y0109181D03*
X0225665Y0106685D03*
X0225665Y0104181D03*
X0225665Y0101685D03*
X0225665Y0099181D03*
X0225665Y0096685D03*
X0225665Y0094181D03*
X0247019Y0094181D03*
X0247019Y0096685D03*
X0247019Y0099181D03*
X0247019Y0101685D03*
X0247019Y0104181D03*
X0247019Y0106685D03*
X0247019Y0109181D03*
X0247019Y0111685D03*
X0247019Y0114181D03*
X0247019Y0116685D03*
X0225665Y0116685D03*
X0225665Y0114181D03*
D23*
X0272842Y0130650D03*
X0272842Y0145217D03*
D24*
G36*
X0268635Y0139508D02*
X0272842Y0143715D01*
X0277049Y0139508D01*
X0272842Y0135301D01*
X0268635Y0139508D01*
G37*
G36*
X0268635Y0136358D02*
X0272842Y0140565D01*
X0277049Y0136358D01*
X0272842Y0132151D01*
X0268635Y0136358D01*
G37*
D25*
X0266936Y0130650D03*
X0278747Y0130650D03*
X0278747Y0145217D03*
X0266936Y0145217D03*
D26*
X0272842Y0141476D03*
X0272842Y0134390D03*
D27*
X0272842Y0137933D03*
X0275204Y0137933D03*
X0270480Y0137933D03*
M02*
