G75*
%MOIN*%
%OFA0B0*%
%FSLAX25Y25*%
%IPPOS*%
%LPD*%
%AMOC8*
5,1,8,0,0,1.08239X$1,22.5*
%
%ADD10R,0.08600X0.08600*%
%ADD11R,0.08850X0.08850*%
%ADD12C,0.01600*%
%ADD13C,0.02400*%
%ADD14C,0.00600*%
D10*
X0080842Y0048933D03*
X0090842Y0048933D03*
X0100842Y0048933D03*
X0110842Y0048933D03*
D11*
X0277865Y0079031D03*
X0288657Y0075784D03*
X0277865Y0104031D03*
X0288657Y0107279D03*
D12*
X0288642Y0107233D01*
X0285942Y0104533D01*
X0278442Y0104533D01*
X0277865Y0104031D01*
X0277842Y0103933D01*
X0270342Y0096433D01*
X0269442Y0096433D01*
X0268842Y0096733D01*
X0258942Y0106633D01*
X0258042Y0106633D01*
X0257742Y0107233D01*
X0257742Y0110833D01*
X0242742Y0125833D01*
X0240342Y0125833D01*
X0220842Y0106333D01*
X0220842Y0105433D01*
X0220242Y0106033D01*
X0132642Y0106033D01*
X0132642Y0119533D01*
X0132642Y0106033D02*
X0132642Y0073333D01*
X0132042Y0072733D01*
X0131742Y0072133D01*
X0131742Y0070033D01*
X0130092Y0068383D01*
X0133842Y0064633D01*
X0134142Y0064033D01*
X0145842Y0052333D01*
X0130092Y0068383D02*
X0110742Y0049033D01*
X0110842Y0048933D01*
X0110142Y0049033D01*
X0100842Y0049033D01*
X0100842Y0048933D01*
X0228042Y0053533D02*
X0240642Y0053533D01*
X0268842Y0081733D01*
X0269442Y0082033D01*
X0269442Y0090733D01*
X0268842Y0091033D01*
X0248142Y0111733D01*
X0241542Y0111733D01*
X0241542Y0123133D01*
X0241542Y0111733D02*
X0234342Y0111733D01*
D13*
X0234342Y0111733D03*
X0220842Y0105433D03*
X0241542Y0123133D03*
X0258042Y0106633D03*
X0269442Y0096433D03*
X0269442Y0090733D03*
X0269442Y0082033D03*
X0222042Y0064033D03*
X0228042Y0053533D03*
X0202242Y0074833D03*
X0145842Y0052333D03*
X0159642Y0043033D03*
X0133842Y0064633D03*
X0134142Y0068533D03*
X0131742Y0072133D03*
X0132642Y0119533D03*
D14*
X0041981Y0030340D02*
X0039392Y0031181D01*
X0037190Y0032781D01*
X0035590Y0034983D01*
X0034749Y0037572D01*
X0034642Y0038933D01*
X0034642Y0062634D01*
X0034749Y0063995D01*
X0035590Y0066584D01*
X0037190Y0068786D01*
X0039392Y0070386D01*
X0041981Y0071227D01*
X0043342Y0071334D01*
X0068920Y0071334D01*
X0069681Y0072095D01*
X0069681Y0144130D01*
X0069788Y0145491D01*
X0070629Y0148080D01*
X0072229Y0150282D01*
X0074431Y0151882D01*
X0077020Y0152723D01*
X0078381Y0152830D01*
X0284365Y0152830D01*
X0285726Y0152723D01*
X0288315Y0151882D01*
X0290517Y0150282D01*
X0292117Y0148080D01*
X0292958Y0145491D01*
X0293065Y0144130D01*
X0293065Y0113004D01*
X0288957Y0113004D01*
X0288957Y0107580D01*
X0288357Y0107580D01*
X0288357Y0113004D01*
X0284061Y0113004D01*
X0283730Y0112916D01*
X0283434Y0112745D01*
X0283192Y0112503D01*
X0283020Y0112206D01*
X0282932Y0111876D01*
X0282932Y0109587D01*
X0282792Y0109668D01*
X0282462Y0109756D01*
X0278165Y0109756D01*
X0278165Y0104332D01*
X0277565Y0104332D01*
X0277565Y0109756D01*
X0273269Y0109756D01*
X0272939Y0109668D01*
X0272642Y0109497D01*
X0272400Y0109255D01*
X0272229Y0108958D01*
X0272140Y0108628D01*
X0272140Y0104331D01*
X0277565Y0104331D01*
X0277565Y0103731D01*
X0278165Y0103731D01*
X0278165Y0098306D01*
X0282462Y0098306D01*
X0282792Y0098395D01*
X0283089Y0098566D01*
X0283331Y0098808D01*
X0283502Y0099105D01*
X0283590Y0099435D01*
X0283590Y0101724D01*
X0283730Y0101643D01*
X0284061Y0101554D01*
X0288357Y0101554D01*
X0288357Y0106979D01*
X0288957Y0106979D01*
X0288957Y0101554D01*
X0293065Y0101554D01*
X0293065Y0081508D01*
X0288957Y0081508D01*
X0288957Y0076084D01*
X0288357Y0076084D01*
X0288357Y0081508D01*
X0284061Y0081508D01*
X0283730Y0081420D01*
X0283590Y0081339D01*
X0283590Y0083628D01*
X0283502Y0083958D01*
X0283331Y0084255D01*
X0283089Y0084497D01*
X0282792Y0084668D01*
X0282462Y0084756D01*
X0278165Y0084756D01*
X0278165Y0079332D01*
X0277565Y0079332D01*
X0277565Y0084756D01*
X0273269Y0084756D01*
X0272939Y0084668D01*
X0272642Y0084497D01*
X0272400Y0084255D01*
X0272229Y0083958D01*
X0272140Y0083628D01*
X0272140Y0079331D01*
X0277565Y0079331D01*
X0277565Y0078731D01*
X0278165Y0078731D01*
X0278165Y0073306D01*
X0282462Y0073306D01*
X0282792Y0073395D01*
X0282932Y0073476D01*
X0282932Y0071187D01*
X0283020Y0070857D01*
X0283192Y0070560D01*
X0283434Y0070318D01*
X0283730Y0070147D01*
X0284061Y0070059D01*
X0288357Y0070059D01*
X0288357Y0075483D01*
X0288957Y0075483D01*
X0288957Y0070059D01*
X0293065Y0070059D01*
X0293065Y0038933D01*
X0292958Y0037572D01*
X0292117Y0034983D01*
X0290517Y0032781D01*
X0288315Y0031181D01*
X0285726Y0030340D01*
X0284365Y0030233D01*
X0043342Y0030233D01*
X0041981Y0030340D01*
X0040785Y0030729D02*
X0286922Y0030729D01*
X0288516Y0031327D02*
X0039191Y0031327D01*
X0038368Y0031926D02*
X0289340Y0031926D01*
X0290163Y0032524D02*
X0037544Y0032524D01*
X0036942Y0033123D02*
X0290765Y0033123D01*
X0291200Y0033721D02*
X0036507Y0033721D01*
X0036072Y0034320D02*
X0291635Y0034320D01*
X0292070Y0034918D02*
X0035637Y0034918D01*
X0035417Y0035517D02*
X0292290Y0035517D01*
X0292485Y0036115D02*
X0035222Y0036115D01*
X0035028Y0036714D02*
X0292679Y0036714D01*
X0292874Y0037312D02*
X0034833Y0037312D01*
X0034722Y0037911D02*
X0292985Y0037911D01*
X0293032Y0038509D02*
X0034675Y0038509D01*
X0034642Y0039108D02*
X0293065Y0039108D01*
X0293065Y0039706D02*
X0034642Y0039706D01*
X0034642Y0040305D02*
X0097673Y0040305D01*
X0098245Y0039733D02*
X0161039Y0039733D01*
X0161742Y0040436D01*
X0194939Y0073633D01*
X0200472Y0073633D01*
X0201372Y0072733D01*
X0203112Y0072733D01*
X0204342Y0073963D01*
X0204342Y0074036D01*
X0215545Y0062833D01*
X0220272Y0062833D01*
X0221172Y0061933D01*
X0222912Y0061933D01*
X0224142Y0063163D01*
X0224142Y0064903D01*
X0222912Y0066133D01*
X0221172Y0066133D01*
X0220272Y0065233D01*
X0216539Y0065233D01*
X0204342Y0077430D01*
X0203639Y0078133D01*
X0192745Y0078133D01*
X0159745Y0045133D01*
X0159239Y0045133D01*
X0136242Y0068130D01*
X0136242Y0069403D01*
X0135012Y0070633D01*
X0133272Y0070633D01*
X0132042Y0069403D01*
X0132042Y0067663D01*
X0133272Y0066433D01*
X0134545Y0066433D01*
X0157542Y0043436D01*
X0157542Y0042163D01*
X0157572Y0042133D01*
X0099239Y0042133D01*
X0098039Y0043333D01*
X0100542Y0043333D01*
X0100542Y0048633D01*
X0101142Y0048633D01*
X0101142Y0049233D01*
X0110542Y0049233D01*
X0110542Y0054533D01*
X0106371Y0054533D01*
X0106040Y0054444D01*
X0105842Y0054330D01*
X0105644Y0054444D01*
X0105313Y0054533D01*
X0101142Y0054533D01*
X0101142Y0049233D01*
X0100542Y0049233D01*
X0100542Y0054533D01*
X0096371Y0054533D01*
X0096040Y0054444D01*
X0095744Y0054273D01*
X0095559Y0054089D01*
X0095515Y0054133D01*
X0086169Y0054133D01*
X0085842Y0053806D01*
X0085515Y0054133D01*
X0076169Y0054133D01*
X0075642Y0053606D01*
X0075642Y0044260D01*
X0076169Y0043733D01*
X0085515Y0043733D01*
X0085842Y0044060D01*
X0086169Y0043733D01*
X0094245Y0043733D01*
X0098245Y0039733D01*
X0098742Y0040933D02*
X0090942Y0048733D01*
X0090842Y0048933D01*
X0094680Y0043297D02*
X0034642Y0043297D01*
X0034642Y0042699D02*
X0095279Y0042699D01*
X0095877Y0042100D02*
X0034642Y0042100D01*
X0034642Y0041502D02*
X0096476Y0041502D01*
X0097075Y0040903D02*
X0034642Y0040903D01*
X0034642Y0043896D02*
X0076006Y0043896D01*
X0075642Y0044494D02*
X0034642Y0044494D01*
X0034642Y0045093D02*
X0075642Y0045093D01*
X0075642Y0045691D02*
X0034642Y0045691D01*
X0034642Y0046290D02*
X0075642Y0046290D01*
X0075642Y0046888D02*
X0034642Y0046888D01*
X0034642Y0047487D02*
X0075642Y0047487D01*
X0075642Y0048085D02*
X0034642Y0048085D01*
X0034642Y0048684D02*
X0075642Y0048684D01*
X0075642Y0049282D02*
X0034642Y0049282D01*
X0034642Y0049881D02*
X0075642Y0049881D01*
X0075642Y0050479D02*
X0034642Y0050479D01*
X0034642Y0051078D02*
X0075642Y0051078D01*
X0075642Y0051677D02*
X0034642Y0051677D01*
X0034642Y0052275D02*
X0075642Y0052275D01*
X0075642Y0052874D02*
X0034642Y0052874D01*
X0034642Y0053472D02*
X0075642Y0053472D01*
X0076106Y0054071D02*
X0034642Y0054071D01*
X0034642Y0054669D02*
X0146309Y0054669D01*
X0146907Y0054071D02*
X0116143Y0054071D01*
X0116182Y0054031D02*
X0115940Y0054273D01*
X0115644Y0054444D01*
X0115313Y0054533D01*
X0111142Y0054533D01*
X0111142Y0049233D01*
X0116442Y0049233D01*
X0116442Y0053404D01*
X0116353Y0053735D01*
X0116182Y0054031D01*
X0116424Y0053472D02*
X0147506Y0053472D01*
X0148104Y0052874D02*
X0116442Y0052874D01*
X0116442Y0052275D02*
X0148703Y0052275D01*
X0149301Y0051677D02*
X0116442Y0051677D01*
X0116442Y0051078D02*
X0149900Y0051078D01*
X0150498Y0050479D02*
X0116442Y0050479D01*
X0116442Y0049881D02*
X0151097Y0049881D01*
X0151695Y0049282D02*
X0116442Y0049282D01*
X0116442Y0048633D02*
X0111142Y0048633D01*
X0111142Y0049233D01*
X0110542Y0049233D01*
X0110542Y0048633D01*
X0111142Y0048633D01*
X0111142Y0043333D01*
X0115313Y0043333D01*
X0115644Y0043422D01*
X0115940Y0043593D01*
X0116182Y0043835D01*
X0116353Y0044131D01*
X0116442Y0044462D01*
X0116442Y0048633D01*
X0116442Y0048085D02*
X0152892Y0048085D01*
X0153491Y0047487D02*
X0116442Y0047487D01*
X0116442Y0046888D02*
X0154089Y0046888D01*
X0154688Y0046290D02*
X0116442Y0046290D01*
X0116442Y0045691D02*
X0155286Y0045691D01*
X0155885Y0045093D02*
X0116442Y0045093D01*
X0116442Y0044494D02*
X0156483Y0044494D01*
X0157082Y0043896D02*
X0116217Y0043896D01*
X0111142Y0043896D02*
X0110542Y0043896D01*
X0110542Y0043333D02*
X0110542Y0048633D01*
X0105242Y0048633D01*
X0101142Y0048633D01*
X0101142Y0043333D01*
X0105313Y0043333D01*
X0105644Y0043422D01*
X0105842Y0043536D01*
X0106040Y0043422D01*
X0106371Y0043333D01*
X0110542Y0043333D01*
X0110542Y0044494D02*
X0111142Y0044494D01*
X0111142Y0045093D02*
X0110542Y0045093D01*
X0110542Y0045691D02*
X0111142Y0045691D01*
X0111142Y0046290D02*
X0110542Y0046290D01*
X0110542Y0046888D02*
X0111142Y0046888D01*
X0111142Y0047487D02*
X0110542Y0047487D01*
X0110542Y0048085D02*
X0111142Y0048085D01*
X0111142Y0048684D02*
X0152294Y0048684D01*
X0153892Y0050479D02*
X0165091Y0050479D01*
X0164493Y0049881D02*
X0154491Y0049881D01*
X0155089Y0049282D02*
X0163894Y0049282D01*
X0163296Y0048684D02*
X0155688Y0048684D01*
X0156286Y0048085D02*
X0162697Y0048085D01*
X0162099Y0047487D02*
X0156885Y0047487D01*
X0157484Y0046888D02*
X0161500Y0046888D01*
X0160902Y0046290D02*
X0158082Y0046290D01*
X0158681Y0045691D02*
X0160303Y0045691D01*
X0159642Y0043333D02*
X0159642Y0043033D01*
X0134142Y0068533D01*
X0136242Y0068435D02*
X0183047Y0068435D01*
X0183645Y0069033D02*
X0136242Y0069033D01*
X0136013Y0069632D02*
X0184244Y0069632D01*
X0184842Y0070230D02*
X0135414Y0070230D01*
X0132869Y0070230D02*
X0039178Y0070230D01*
X0038355Y0069632D02*
X0132271Y0069632D01*
X0132042Y0069033D02*
X0037531Y0069033D01*
X0036935Y0068435D02*
X0132042Y0068435D01*
X0132042Y0067836D02*
X0036500Y0067836D01*
X0036065Y0067238D02*
X0132467Y0067238D01*
X0133066Y0066639D02*
X0035630Y0066639D01*
X0035414Y0066041D02*
X0134937Y0066041D01*
X0135536Y0065442D02*
X0035219Y0065442D01*
X0035025Y0064844D02*
X0136134Y0064844D01*
X0136733Y0064245D02*
X0034830Y0064245D01*
X0034722Y0063647D02*
X0137331Y0063647D01*
X0137930Y0063048D02*
X0034674Y0063048D01*
X0034642Y0062450D02*
X0138528Y0062450D01*
X0139127Y0061851D02*
X0034642Y0061851D01*
X0034642Y0061253D02*
X0139725Y0061253D01*
X0140324Y0060654D02*
X0034642Y0060654D01*
X0034642Y0060056D02*
X0140922Y0060056D01*
X0141521Y0059457D02*
X0034642Y0059457D01*
X0034642Y0058859D02*
X0142119Y0058859D01*
X0142718Y0058260D02*
X0034642Y0058260D01*
X0034642Y0057662D02*
X0143316Y0057662D01*
X0143915Y0057063D02*
X0034642Y0057063D01*
X0034642Y0056465D02*
X0144513Y0056465D01*
X0145112Y0055866D02*
X0034642Y0055866D01*
X0034642Y0055268D02*
X0145710Y0055268D01*
X0147309Y0057063D02*
X0171675Y0057063D01*
X0172273Y0057662D02*
X0146710Y0057662D01*
X0146112Y0058260D02*
X0172872Y0058260D01*
X0173470Y0058859D02*
X0145513Y0058859D01*
X0144915Y0059457D02*
X0174069Y0059457D01*
X0174667Y0060056D02*
X0144316Y0060056D01*
X0143718Y0060654D02*
X0175266Y0060654D01*
X0175864Y0061253D02*
X0143119Y0061253D01*
X0142521Y0061851D02*
X0176463Y0061851D01*
X0177061Y0062450D02*
X0141922Y0062450D01*
X0141324Y0063048D02*
X0177660Y0063048D01*
X0178258Y0063647D02*
X0140725Y0063647D01*
X0140127Y0064245D02*
X0178857Y0064245D01*
X0179455Y0064844D02*
X0139528Y0064844D01*
X0138930Y0065442D02*
X0180054Y0065442D01*
X0180652Y0066041D02*
X0138331Y0066041D01*
X0137733Y0066639D02*
X0181251Y0066639D01*
X0181849Y0067238D02*
X0137134Y0067238D01*
X0136536Y0067836D02*
X0182448Y0067836D01*
X0185441Y0070829D02*
X0040756Y0070829D01*
X0069013Y0071427D02*
X0186039Y0071427D01*
X0186638Y0072026D02*
X0069612Y0072026D01*
X0069681Y0072624D02*
X0187236Y0072624D01*
X0187835Y0073223D02*
X0069681Y0073223D01*
X0069681Y0073821D02*
X0188433Y0073821D01*
X0189032Y0074420D02*
X0069681Y0074420D01*
X0069681Y0075018D02*
X0189630Y0075018D01*
X0190229Y0075617D02*
X0069681Y0075617D01*
X0069681Y0076215D02*
X0190827Y0076215D01*
X0191426Y0076814D02*
X0069681Y0076814D01*
X0069681Y0077412D02*
X0192024Y0077412D01*
X0192623Y0078011D02*
X0069681Y0078011D01*
X0069681Y0078610D02*
X0263314Y0078610D01*
X0263913Y0079208D02*
X0069681Y0079208D01*
X0069681Y0079807D02*
X0264511Y0079807D01*
X0265110Y0080405D02*
X0069681Y0080405D01*
X0069681Y0081004D02*
X0265708Y0081004D01*
X0266307Y0081602D02*
X0069681Y0081602D01*
X0069681Y0082201D02*
X0266905Y0082201D01*
X0267342Y0082637D02*
X0239938Y0055233D01*
X0229312Y0055233D01*
X0228912Y0055633D01*
X0227172Y0055633D01*
X0225942Y0054403D01*
X0225942Y0052663D01*
X0227172Y0051433D01*
X0228912Y0051433D01*
X0229312Y0051833D01*
X0239938Y0051833D01*
X0241346Y0051833D01*
X0269446Y0079933D01*
X0270312Y0079933D01*
X0271542Y0081163D01*
X0271542Y0082903D01*
X0271142Y0083303D01*
X0271142Y0089463D01*
X0271542Y0089863D01*
X0271542Y0091603D01*
X0270312Y0092833D01*
X0269446Y0092833D01*
X0248846Y0113433D01*
X0243242Y0113433D01*
X0243242Y0121863D01*
X0243642Y0122263D01*
X0243642Y0124003D01*
X0242412Y0125233D01*
X0240672Y0125233D01*
X0239442Y0124003D01*
X0239442Y0122263D01*
X0239842Y0121863D01*
X0239842Y0113433D01*
X0235612Y0113433D01*
X0235212Y0113833D01*
X0233472Y0113833D01*
X0232242Y0112603D01*
X0232242Y0110863D01*
X0233472Y0109633D01*
X0235212Y0109633D01*
X0235612Y0110033D01*
X0247438Y0110033D01*
X0267342Y0090129D01*
X0267342Y0089863D01*
X0267742Y0089463D01*
X0267742Y0083303D01*
X0267342Y0082903D01*
X0267342Y0082637D01*
X0267342Y0082799D02*
X0069681Y0082799D01*
X0069681Y0083398D02*
X0267742Y0083398D01*
X0267742Y0083996D02*
X0069681Y0083996D01*
X0069681Y0084595D02*
X0267742Y0084595D01*
X0267742Y0085193D02*
X0069681Y0085193D01*
X0069681Y0085792D02*
X0267742Y0085792D01*
X0267742Y0086390D02*
X0069681Y0086390D01*
X0069681Y0086989D02*
X0267742Y0086989D01*
X0267742Y0087587D02*
X0069681Y0087587D01*
X0069681Y0088186D02*
X0267742Y0088186D01*
X0267742Y0088784D02*
X0069681Y0088784D01*
X0069681Y0089383D02*
X0267742Y0089383D01*
X0267342Y0089981D02*
X0069681Y0089981D01*
X0069681Y0090580D02*
X0266891Y0090580D01*
X0266292Y0091178D02*
X0069681Y0091178D01*
X0069681Y0091777D02*
X0265694Y0091777D01*
X0265095Y0092375D02*
X0069681Y0092375D01*
X0069681Y0092974D02*
X0264497Y0092974D01*
X0263898Y0093572D02*
X0069681Y0093572D01*
X0069681Y0094171D02*
X0263300Y0094171D01*
X0262701Y0094769D02*
X0069681Y0094769D01*
X0069681Y0095368D02*
X0262103Y0095368D01*
X0261504Y0095966D02*
X0069681Y0095966D01*
X0069681Y0096565D02*
X0260906Y0096565D01*
X0260307Y0097163D02*
X0069681Y0097163D01*
X0069681Y0097762D02*
X0259709Y0097762D01*
X0259110Y0098360D02*
X0069681Y0098360D01*
X0069681Y0098959D02*
X0258512Y0098959D01*
X0257913Y0099557D02*
X0069681Y0099557D01*
X0069681Y0100156D02*
X0257315Y0100156D01*
X0256716Y0100754D02*
X0069681Y0100754D01*
X0069681Y0101353D02*
X0256118Y0101353D01*
X0255519Y0101951D02*
X0069681Y0101951D01*
X0069681Y0102550D02*
X0254921Y0102550D01*
X0254322Y0103148D02*
X0069681Y0103148D01*
X0069681Y0103747D02*
X0253724Y0103747D01*
X0253125Y0104345D02*
X0069681Y0104345D01*
X0069681Y0104944D02*
X0252527Y0104944D01*
X0251928Y0105543D02*
X0069681Y0105543D01*
X0069681Y0106141D02*
X0251330Y0106141D01*
X0250731Y0106740D02*
X0069681Y0106740D01*
X0069681Y0107338D02*
X0250133Y0107338D01*
X0249534Y0107937D02*
X0069681Y0107937D01*
X0069681Y0108535D02*
X0248936Y0108535D01*
X0248337Y0109134D02*
X0069681Y0109134D01*
X0069681Y0109732D02*
X0233373Y0109732D01*
X0232774Y0110331D02*
X0069681Y0110331D01*
X0069681Y0110929D02*
X0232242Y0110929D01*
X0232242Y0111528D02*
X0069681Y0111528D01*
X0069681Y0112126D02*
X0232242Y0112126D01*
X0232364Y0112725D02*
X0069681Y0112725D01*
X0069681Y0113323D02*
X0232962Y0113323D01*
X0235311Y0109732D02*
X0247739Y0109732D01*
X0250153Y0112126D02*
X0282999Y0112126D01*
X0282932Y0111528D02*
X0250751Y0111528D01*
X0251350Y0110929D02*
X0282932Y0110929D01*
X0282932Y0110331D02*
X0251948Y0110331D01*
X0252547Y0109732D02*
X0273178Y0109732D01*
X0272330Y0109134D02*
X0253145Y0109134D01*
X0253744Y0108535D02*
X0272140Y0108535D01*
X0272140Y0107937D02*
X0254342Y0107937D01*
X0254941Y0107338D02*
X0272140Y0107338D01*
X0272140Y0106740D02*
X0255539Y0106740D01*
X0256138Y0106141D02*
X0272140Y0106141D01*
X0272140Y0105543D02*
X0256737Y0105543D01*
X0257335Y0104944D02*
X0272140Y0104944D01*
X0272140Y0104345D02*
X0257934Y0104345D01*
X0258532Y0103747D02*
X0277565Y0103747D01*
X0277565Y0103731D02*
X0272140Y0103731D01*
X0272140Y0099435D01*
X0272229Y0099105D01*
X0272400Y0098808D01*
X0272642Y0098566D01*
X0272939Y0098395D01*
X0273269Y0098306D01*
X0277565Y0098306D01*
X0277565Y0103731D01*
X0277565Y0103148D02*
X0278165Y0103148D01*
X0278165Y0102550D02*
X0277565Y0102550D01*
X0277565Y0101951D02*
X0278165Y0101951D01*
X0278165Y0101353D02*
X0277565Y0101353D01*
X0277565Y0100754D02*
X0278165Y0100754D01*
X0278165Y0100156D02*
X0277565Y0100156D01*
X0277565Y0099557D02*
X0278165Y0099557D01*
X0278165Y0098959D02*
X0277565Y0098959D01*
X0277565Y0098360D02*
X0278165Y0098360D01*
X0273068Y0098360D02*
X0263919Y0098360D01*
X0264517Y0097762D02*
X0293065Y0097762D01*
X0293065Y0098360D02*
X0282663Y0098360D01*
X0283418Y0098959D02*
X0293065Y0098959D01*
X0293065Y0099557D02*
X0283590Y0099557D01*
X0283590Y0100156D02*
X0293065Y0100156D01*
X0293065Y0100754D02*
X0283590Y0100754D01*
X0283590Y0101353D02*
X0293065Y0101353D01*
X0288957Y0101951D02*
X0288357Y0101951D01*
X0288357Y0102550D02*
X0288957Y0102550D01*
X0288957Y0103148D02*
X0288357Y0103148D01*
X0288357Y0103747D02*
X0288957Y0103747D01*
X0288957Y0104345D02*
X0288357Y0104345D01*
X0288357Y0104944D02*
X0288957Y0104944D01*
X0288957Y0105543D02*
X0288357Y0105543D01*
X0288357Y0106141D02*
X0288957Y0106141D01*
X0288957Y0106740D02*
X0288357Y0106740D01*
X0288357Y0107937D02*
X0288957Y0107937D01*
X0288957Y0108535D02*
X0288357Y0108535D01*
X0288357Y0109134D02*
X0288957Y0109134D01*
X0288957Y0109732D02*
X0288357Y0109732D01*
X0288357Y0110331D02*
X0288957Y0110331D01*
X0288957Y0110929D02*
X0288357Y0110929D01*
X0288357Y0111528D02*
X0288957Y0111528D01*
X0288957Y0112126D02*
X0288357Y0112126D01*
X0288357Y0112725D02*
X0288957Y0112725D01*
X0283413Y0112725D02*
X0249554Y0112725D01*
X0248956Y0113323D02*
X0293065Y0113323D01*
X0293065Y0113922D02*
X0243242Y0113922D01*
X0243242Y0114520D02*
X0293065Y0114520D01*
X0293065Y0115119D02*
X0243242Y0115119D01*
X0243242Y0115717D02*
X0293065Y0115717D01*
X0293065Y0116316D02*
X0243242Y0116316D01*
X0243242Y0116914D02*
X0293065Y0116914D01*
X0293065Y0117513D02*
X0243242Y0117513D01*
X0243242Y0118111D02*
X0293065Y0118111D01*
X0293065Y0118710D02*
X0243242Y0118710D01*
X0243242Y0119308D02*
X0293065Y0119308D01*
X0293065Y0119907D02*
X0243242Y0119907D01*
X0243242Y0120505D02*
X0293065Y0120505D01*
X0293065Y0121104D02*
X0243242Y0121104D01*
X0243242Y0121702D02*
X0293065Y0121702D01*
X0293065Y0122301D02*
X0243642Y0122301D01*
X0243642Y0122899D02*
X0293065Y0122899D01*
X0293065Y0123498D02*
X0243642Y0123498D01*
X0243548Y0124096D02*
X0293065Y0124096D01*
X0293065Y0124695D02*
X0242950Y0124695D01*
X0240134Y0124695D02*
X0069681Y0124695D01*
X0069681Y0125293D02*
X0293065Y0125293D01*
X0293065Y0125892D02*
X0069681Y0125892D01*
X0069681Y0126490D02*
X0293065Y0126490D01*
X0293065Y0127089D02*
X0069681Y0127089D01*
X0069681Y0127687D02*
X0293065Y0127687D01*
X0293065Y0128286D02*
X0069681Y0128286D01*
X0069681Y0128884D02*
X0293065Y0128884D01*
X0293065Y0129483D02*
X0069681Y0129483D01*
X0069681Y0130081D02*
X0293065Y0130081D01*
X0293065Y0130680D02*
X0069681Y0130680D01*
X0069681Y0131279D02*
X0293065Y0131279D01*
X0293065Y0131877D02*
X0069681Y0131877D01*
X0069681Y0132476D02*
X0293065Y0132476D01*
X0293065Y0133074D02*
X0069681Y0133074D01*
X0069681Y0133673D02*
X0293065Y0133673D01*
X0293065Y0134271D02*
X0069681Y0134271D01*
X0069681Y0134870D02*
X0293065Y0134870D01*
X0293065Y0135468D02*
X0069681Y0135468D01*
X0069681Y0136067D02*
X0293065Y0136067D01*
X0293065Y0136665D02*
X0069681Y0136665D01*
X0069681Y0137264D02*
X0293065Y0137264D01*
X0293065Y0137862D02*
X0069681Y0137862D01*
X0069681Y0138461D02*
X0293065Y0138461D01*
X0293065Y0139059D02*
X0069681Y0139059D01*
X0069681Y0139658D02*
X0293065Y0139658D01*
X0293065Y0140256D02*
X0069681Y0140256D01*
X0069681Y0140855D02*
X0293065Y0140855D01*
X0293065Y0141453D02*
X0069681Y0141453D01*
X0069681Y0142052D02*
X0293065Y0142052D01*
X0293065Y0142650D02*
X0069681Y0142650D01*
X0069681Y0143249D02*
X0293065Y0143249D01*
X0293065Y0143847D02*
X0069681Y0143847D01*
X0069706Y0144446D02*
X0293041Y0144446D01*
X0292993Y0145044D02*
X0069753Y0145044D01*
X0069838Y0145643D02*
X0292909Y0145643D01*
X0292714Y0146241D02*
X0070032Y0146241D01*
X0070227Y0146840D02*
X0292520Y0146840D01*
X0292326Y0147438D02*
X0070421Y0147438D01*
X0070615Y0148037D02*
X0292131Y0148037D01*
X0291713Y0148635D02*
X0071033Y0148635D01*
X0071468Y0149234D02*
X0291279Y0149234D01*
X0290844Y0149832D02*
X0071903Y0149832D01*
X0072435Y0150431D02*
X0290312Y0150431D01*
X0289488Y0151029D02*
X0073258Y0151029D01*
X0074082Y0151628D02*
X0288664Y0151628D01*
X0287254Y0152226D02*
X0075492Y0152226D01*
X0078317Y0152825D02*
X0284429Y0152825D01*
X0239535Y0124096D02*
X0069681Y0124096D01*
X0069681Y0123498D02*
X0239442Y0123498D01*
X0239442Y0122899D02*
X0069681Y0122899D01*
X0069681Y0122301D02*
X0239442Y0122301D01*
X0239842Y0121702D02*
X0069681Y0121702D01*
X0069681Y0121104D02*
X0239842Y0121104D01*
X0239842Y0120505D02*
X0069681Y0120505D01*
X0069681Y0119907D02*
X0239842Y0119907D01*
X0239842Y0119308D02*
X0069681Y0119308D01*
X0069681Y0118710D02*
X0239842Y0118710D01*
X0239842Y0118111D02*
X0069681Y0118111D01*
X0069681Y0117513D02*
X0239842Y0117513D01*
X0239842Y0116914D02*
X0069681Y0116914D01*
X0069681Y0116316D02*
X0239842Y0116316D01*
X0239842Y0115717D02*
X0069681Y0115717D01*
X0069681Y0115119D02*
X0239842Y0115119D01*
X0239842Y0114520D02*
X0069681Y0114520D01*
X0069681Y0113922D02*
X0239842Y0113922D01*
X0259131Y0103148D02*
X0272140Y0103148D01*
X0272140Y0102550D02*
X0259729Y0102550D01*
X0260328Y0101951D02*
X0272140Y0101951D01*
X0272140Y0101353D02*
X0260926Y0101353D01*
X0261525Y0100754D02*
X0272140Y0100754D01*
X0272140Y0100156D02*
X0262123Y0100156D01*
X0262722Y0099557D02*
X0272140Y0099557D01*
X0272313Y0098959D02*
X0263320Y0098959D01*
X0265116Y0097163D02*
X0293065Y0097163D01*
X0293065Y0096565D02*
X0265714Y0096565D01*
X0266313Y0095966D02*
X0293065Y0095966D01*
X0293065Y0095368D02*
X0266911Y0095368D01*
X0267510Y0094769D02*
X0293065Y0094769D01*
X0293065Y0094171D02*
X0268108Y0094171D01*
X0268707Y0093572D02*
X0293065Y0093572D01*
X0293065Y0092974D02*
X0269305Y0092974D01*
X0270769Y0092375D02*
X0293065Y0092375D01*
X0293065Y0091777D02*
X0271368Y0091777D01*
X0271542Y0091178D02*
X0293065Y0091178D01*
X0293065Y0090580D02*
X0271542Y0090580D01*
X0271542Y0089981D02*
X0293065Y0089981D01*
X0293065Y0089383D02*
X0271142Y0089383D01*
X0271142Y0088784D02*
X0293065Y0088784D01*
X0293065Y0088186D02*
X0271142Y0088186D01*
X0271142Y0087587D02*
X0293065Y0087587D01*
X0293065Y0086989D02*
X0271142Y0086989D01*
X0271142Y0086390D02*
X0293065Y0086390D01*
X0293065Y0085792D02*
X0271142Y0085792D01*
X0271142Y0085193D02*
X0293065Y0085193D01*
X0293065Y0084595D02*
X0282919Y0084595D01*
X0283480Y0083996D02*
X0293065Y0083996D01*
X0293065Y0083398D02*
X0283590Y0083398D01*
X0283590Y0082799D02*
X0293065Y0082799D01*
X0293065Y0082201D02*
X0283590Y0082201D01*
X0283590Y0081602D02*
X0293065Y0081602D01*
X0288957Y0081004D02*
X0288357Y0081004D01*
X0288357Y0080405D02*
X0288957Y0080405D01*
X0288957Y0079807D02*
X0288357Y0079807D01*
X0288357Y0079208D02*
X0288957Y0079208D01*
X0288957Y0078610D02*
X0288357Y0078610D01*
X0288357Y0078011D02*
X0288957Y0078011D01*
X0288957Y0077412D02*
X0288357Y0077412D01*
X0288357Y0076814D02*
X0288957Y0076814D01*
X0288957Y0076215D02*
X0288357Y0076215D01*
X0288357Y0075018D02*
X0288957Y0075018D01*
X0288957Y0074420D02*
X0288357Y0074420D01*
X0288357Y0073821D02*
X0288957Y0073821D01*
X0288957Y0073223D02*
X0288357Y0073223D01*
X0288357Y0072624D02*
X0288957Y0072624D01*
X0288957Y0072026D02*
X0288357Y0072026D01*
X0288357Y0071427D02*
X0288957Y0071427D01*
X0288957Y0070829D02*
X0288357Y0070829D01*
X0288357Y0070230D02*
X0288957Y0070230D01*
X0283586Y0070230D02*
X0259743Y0070230D01*
X0259145Y0069632D02*
X0293065Y0069632D01*
X0293065Y0069033D02*
X0258546Y0069033D01*
X0257948Y0068435D02*
X0293065Y0068435D01*
X0293065Y0067836D02*
X0257349Y0067836D01*
X0256751Y0067238D02*
X0293065Y0067238D01*
X0293065Y0066639D02*
X0256152Y0066639D01*
X0255554Y0066041D02*
X0293065Y0066041D01*
X0293065Y0065442D02*
X0254955Y0065442D01*
X0254357Y0064844D02*
X0293065Y0064844D01*
X0293065Y0064245D02*
X0253758Y0064245D01*
X0253160Y0063647D02*
X0293065Y0063647D01*
X0293065Y0063048D02*
X0252561Y0063048D01*
X0251963Y0062450D02*
X0293065Y0062450D01*
X0293065Y0061851D02*
X0251364Y0061851D01*
X0250766Y0061253D02*
X0293065Y0061253D01*
X0293065Y0060654D02*
X0250167Y0060654D01*
X0249569Y0060056D02*
X0293065Y0060056D01*
X0293065Y0059457D02*
X0248970Y0059457D01*
X0248372Y0058859D02*
X0293065Y0058859D01*
X0293065Y0058260D02*
X0247773Y0058260D01*
X0247175Y0057662D02*
X0293065Y0057662D01*
X0293065Y0057063D02*
X0246576Y0057063D01*
X0245977Y0056465D02*
X0293065Y0056465D01*
X0293065Y0055866D02*
X0245379Y0055866D01*
X0244780Y0055268D02*
X0293065Y0055268D01*
X0293065Y0054669D02*
X0244182Y0054669D01*
X0243583Y0054071D02*
X0293065Y0054071D01*
X0293065Y0053472D02*
X0242985Y0053472D01*
X0242386Y0052874D02*
X0293065Y0052874D01*
X0293065Y0052275D02*
X0241788Y0052275D01*
X0239972Y0055268D02*
X0229277Y0055268D01*
X0226806Y0055268D02*
X0176573Y0055268D01*
X0177172Y0055866D02*
X0240571Y0055866D01*
X0241169Y0056465D02*
X0177770Y0056465D01*
X0178369Y0057063D02*
X0241768Y0057063D01*
X0242366Y0057662D02*
X0178967Y0057662D01*
X0179566Y0058260D02*
X0242965Y0058260D01*
X0243563Y0058859D02*
X0180164Y0058859D01*
X0180763Y0059457D02*
X0244162Y0059457D01*
X0244760Y0060056D02*
X0181361Y0060056D01*
X0181960Y0060654D02*
X0245359Y0060654D01*
X0245957Y0061253D02*
X0182558Y0061253D01*
X0183157Y0061851D02*
X0246556Y0061851D01*
X0247154Y0062450D02*
X0223428Y0062450D01*
X0224027Y0063048D02*
X0247753Y0063048D01*
X0248351Y0063647D02*
X0224142Y0063647D01*
X0224142Y0064245D02*
X0248950Y0064245D01*
X0249548Y0064844D02*
X0224142Y0064844D01*
X0223602Y0065442D02*
X0250147Y0065442D01*
X0250745Y0066041D02*
X0223004Y0066041D01*
X0221080Y0066041D02*
X0215731Y0066041D01*
X0215133Y0066639D02*
X0251344Y0066639D01*
X0251942Y0067238D02*
X0214534Y0067238D01*
X0213936Y0067836D02*
X0252541Y0067836D01*
X0253139Y0068435D02*
X0213337Y0068435D01*
X0212739Y0069033D02*
X0253738Y0069033D01*
X0254336Y0069632D02*
X0212140Y0069632D01*
X0211542Y0070230D02*
X0254935Y0070230D01*
X0255533Y0070829D02*
X0210943Y0070829D01*
X0210345Y0071427D02*
X0256132Y0071427D01*
X0256730Y0072026D02*
X0209746Y0072026D01*
X0209148Y0072624D02*
X0257329Y0072624D01*
X0257927Y0073223D02*
X0208549Y0073223D01*
X0207950Y0073821D02*
X0258526Y0073821D01*
X0259125Y0074420D02*
X0207352Y0074420D01*
X0206753Y0075018D02*
X0259723Y0075018D01*
X0260322Y0075617D02*
X0206155Y0075617D01*
X0205556Y0076215D02*
X0260920Y0076215D01*
X0261519Y0076814D02*
X0204958Y0076814D01*
X0204359Y0077412D02*
X0262117Y0077412D01*
X0262716Y0078011D02*
X0203761Y0078011D01*
X0203142Y0076933D02*
X0193242Y0076933D01*
X0159642Y0043333D01*
X0157542Y0043297D02*
X0098075Y0043297D01*
X0098673Y0042699D02*
X0157542Y0042699D01*
X0160542Y0040933D02*
X0098742Y0040933D01*
X0100542Y0043896D02*
X0101142Y0043896D01*
X0101142Y0044494D02*
X0100542Y0044494D01*
X0100542Y0045093D02*
X0101142Y0045093D01*
X0101142Y0045691D02*
X0100542Y0045691D01*
X0100542Y0046290D02*
X0101142Y0046290D01*
X0101142Y0046888D02*
X0100542Y0046888D01*
X0100542Y0047487D02*
X0101142Y0047487D01*
X0101142Y0048085D02*
X0100542Y0048085D01*
X0101142Y0048684D02*
X0110542Y0048684D01*
X0110542Y0049282D02*
X0111142Y0049282D01*
X0111142Y0049881D02*
X0110542Y0049881D01*
X0110542Y0050479D02*
X0111142Y0050479D01*
X0111142Y0051078D02*
X0110542Y0051078D01*
X0110542Y0051677D02*
X0111142Y0051677D01*
X0111142Y0052275D02*
X0110542Y0052275D01*
X0110542Y0052874D02*
X0111142Y0052874D01*
X0111142Y0053472D02*
X0110542Y0053472D01*
X0110542Y0054071D02*
X0111142Y0054071D01*
X0101142Y0054071D02*
X0100542Y0054071D01*
X0100542Y0053472D02*
X0101142Y0053472D01*
X0101142Y0052874D02*
X0100542Y0052874D01*
X0100542Y0052275D02*
X0101142Y0052275D01*
X0101142Y0051677D02*
X0100542Y0051677D01*
X0100542Y0051078D02*
X0101142Y0051078D01*
X0101142Y0050479D02*
X0100542Y0050479D01*
X0100542Y0049881D02*
X0101142Y0049881D01*
X0101142Y0049282D02*
X0100542Y0049282D01*
X0086106Y0054071D02*
X0085577Y0054071D01*
X0085677Y0043896D02*
X0086006Y0043896D01*
X0147907Y0056465D02*
X0171076Y0056465D01*
X0170478Y0055866D02*
X0148506Y0055866D01*
X0149104Y0055268D02*
X0169879Y0055268D01*
X0169281Y0054669D02*
X0149703Y0054669D01*
X0150301Y0054071D02*
X0168682Y0054071D01*
X0168084Y0053472D02*
X0150900Y0053472D01*
X0151498Y0052874D02*
X0167485Y0052874D01*
X0166887Y0052275D02*
X0152097Y0052275D01*
X0152695Y0051677D02*
X0166288Y0051677D01*
X0165690Y0051078D02*
X0153294Y0051078D01*
X0164603Y0043297D02*
X0293065Y0043297D01*
X0293065Y0042699D02*
X0164005Y0042699D01*
X0163406Y0042100D02*
X0293065Y0042100D01*
X0293065Y0041502D02*
X0162808Y0041502D01*
X0162209Y0040903D02*
X0293065Y0040903D01*
X0293065Y0040305D02*
X0161611Y0040305D01*
X0160542Y0040933D02*
X0194442Y0074833D01*
X0202242Y0074833D01*
X0203601Y0073223D02*
X0205155Y0073223D01*
X0205753Y0072624D02*
X0193930Y0072624D01*
X0193332Y0072026D02*
X0206352Y0072026D01*
X0206950Y0071427D02*
X0192733Y0071427D01*
X0192135Y0070829D02*
X0207549Y0070829D01*
X0208147Y0070230D02*
X0191536Y0070230D01*
X0190938Y0069632D02*
X0208746Y0069632D01*
X0209344Y0069033D02*
X0190339Y0069033D01*
X0189741Y0068435D02*
X0209943Y0068435D01*
X0210542Y0067836D02*
X0189142Y0067836D01*
X0188544Y0067238D02*
X0211140Y0067238D01*
X0211739Y0066639D02*
X0187945Y0066639D01*
X0187347Y0066041D02*
X0212337Y0066041D01*
X0212936Y0065442D02*
X0186748Y0065442D01*
X0186150Y0064844D02*
X0213534Y0064844D01*
X0214133Y0064245D02*
X0185551Y0064245D01*
X0184953Y0063647D02*
X0214731Y0063647D01*
X0215330Y0063048D02*
X0184354Y0063048D01*
X0183755Y0062450D02*
X0220655Y0062450D01*
X0222042Y0064033D02*
X0216042Y0064033D01*
X0203142Y0076933D01*
X0204200Y0073821D02*
X0204556Y0073821D01*
X0200882Y0073223D02*
X0194529Y0073223D01*
X0216330Y0065442D02*
X0220481Y0065442D01*
X0226208Y0054669D02*
X0175975Y0054669D01*
X0175376Y0054071D02*
X0225942Y0054071D01*
X0225942Y0053472D02*
X0174778Y0053472D01*
X0174179Y0052874D02*
X0225942Y0052874D01*
X0226330Y0052275D02*
X0173581Y0052275D01*
X0172982Y0051677D02*
X0226929Y0051677D01*
X0229155Y0051677D02*
X0293065Y0051677D01*
X0293065Y0051078D02*
X0172384Y0051078D01*
X0171785Y0050479D02*
X0293065Y0050479D01*
X0293065Y0049881D02*
X0171187Y0049881D01*
X0170588Y0049282D02*
X0293065Y0049282D01*
X0293065Y0048684D02*
X0169990Y0048684D01*
X0169391Y0048085D02*
X0293065Y0048085D01*
X0293065Y0047487D02*
X0168793Y0047487D01*
X0168194Y0046888D02*
X0293065Y0046888D01*
X0293065Y0046290D02*
X0167596Y0046290D01*
X0166997Y0045691D02*
X0293065Y0045691D01*
X0293065Y0045093D02*
X0166399Y0045093D01*
X0165800Y0044494D02*
X0293065Y0044494D01*
X0293065Y0043896D02*
X0165202Y0043896D01*
X0260342Y0070829D02*
X0283036Y0070829D01*
X0282932Y0071427D02*
X0260940Y0071427D01*
X0261539Y0072026D02*
X0282932Y0072026D01*
X0282932Y0072624D02*
X0262137Y0072624D01*
X0262736Y0073223D02*
X0282932Y0073223D01*
X0278165Y0073821D02*
X0277565Y0073821D01*
X0277565Y0073306D02*
X0273269Y0073306D01*
X0272939Y0073395D01*
X0272642Y0073566D01*
X0272400Y0073808D01*
X0272229Y0074105D01*
X0272140Y0074435D01*
X0272140Y0078731D01*
X0277565Y0078731D01*
X0277565Y0073306D01*
X0277565Y0074420D02*
X0278165Y0074420D01*
X0278165Y0075018D02*
X0277565Y0075018D01*
X0277565Y0075617D02*
X0278165Y0075617D01*
X0278165Y0076215D02*
X0277565Y0076215D01*
X0277565Y0076814D02*
X0278165Y0076814D01*
X0278165Y0077412D02*
X0277565Y0077412D01*
X0277565Y0078011D02*
X0278165Y0078011D01*
X0278165Y0078610D02*
X0277565Y0078610D01*
X0277565Y0079208D02*
X0268721Y0079208D01*
X0269319Y0079807D02*
X0272140Y0079807D01*
X0272140Y0080405D02*
X0270784Y0080405D01*
X0271382Y0081004D02*
X0272140Y0081004D01*
X0272140Y0081602D02*
X0271542Y0081602D01*
X0271542Y0082201D02*
X0272140Y0082201D01*
X0272140Y0082799D02*
X0271542Y0082799D01*
X0271142Y0083398D02*
X0272140Y0083398D01*
X0272251Y0083996D02*
X0271142Y0083996D01*
X0271142Y0084595D02*
X0272812Y0084595D01*
X0277565Y0084595D02*
X0278165Y0084595D01*
X0278165Y0083996D02*
X0277565Y0083996D01*
X0277565Y0083398D02*
X0278165Y0083398D01*
X0278165Y0082799D02*
X0277565Y0082799D01*
X0277565Y0082201D02*
X0278165Y0082201D01*
X0278165Y0081602D02*
X0277565Y0081602D01*
X0277565Y0081004D02*
X0278165Y0081004D01*
X0278165Y0080405D02*
X0277565Y0080405D01*
X0277565Y0079807D02*
X0278165Y0079807D01*
X0272140Y0078610D02*
X0268122Y0078610D01*
X0267524Y0078011D02*
X0272140Y0078011D01*
X0272140Y0077412D02*
X0266925Y0077412D01*
X0266327Y0076814D02*
X0272140Y0076814D01*
X0272140Y0076215D02*
X0265728Y0076215D01*
X0265130Y0075617D02*
X0272140Y0075617D01*
X0272140Y0075018D02*
X0264531Y0075018D01*
X0263933Y0074420D02*
X0272145Y0074420D01*
X0272393Y0073821D02*
X0263334Y0073821D01*
X0277565Y0104345D02*
X0278165Y0104345D01*
X0278165Y0104944D02*
X0277565Y0104944D01*
X0277565Y0105543D02*
X0278165Y0105543D01*
X0278165Y0106141D02*
X0277565Y0106141D01*
X0277565Y0106740D02*
X0278165Y0106740D01*
X0278165Y0107338D02*
X0277565Y0107338D01*
X0277565Y0107937D02*
X0278165Y0107937D01*
X0278165Y0108535D02*
X0277565Y0108535D01*
X0277565Y0109134D02*
X0278165Y0109134D01*
X0278165Y0109732D02*
X0277565Y0109732D01*
X0282553Y0109732D02*
X0282932Y0109732D01*
M02*
