G75*
%MOIN*%
%OFA0B0*%
%FSLAX25Y25*%
%IPPOS*%
%LPD*%
%AMOC8*
5,1,8,0,0,1.08239X$1,22.5*
%
%ADD10R,0.08600X0.08600*%
%ADD11R,0.08850X0.08850*%
%ADD12R,0.08858X0.08858*%
%ADD13C,0.01600*%
%ADD14C,0.02400*%
%ADD15C,0.00600*%
D10*
X0080842Y0048933D03*
X0090842Y0048933D03*
X0100842Y0048933D03*
X0110842Y0048933D03*
D11*
X0277865Y0079031D03*
X0288657Y0075784D03*
X0277865Y0104031D03*
X0288657Y0107279D03*
D12*
X0178029Y0086528D03*
D13*
X0039619Y0031627D02*
X0037544Y0033135D01*
X0036036Y0035210D01*
X0035243Y0037650D01*
X0035142Y0038933D01*
X0035142Y0062634D01*
X0035243Y0063917D01*
X0036036Y0066357D01*
X0037544Y0068432D01*
X0039619Y0069940D01*
X0042059Y0070733D01*
X0043342Y0070834D01*
X0069127Y0070834D01*
X0070181Y0071888D01*
X0070181Y0144130D01*
X0070282Y0145413D01*
X0071075Y0147853D01*
X0072583Y0149928D01*
X0074658Y0151436D01*
X0077098Y0152229D01*
X0078381Y0152330D01*
X0284365Y0152330D01*
X0285648Y0152229D01*
X0288088Y0151436D01*
X0290164Y0149928D01*
X0291672Y0147853D01*
X0292464Y0145413D01*
X0292565Y0144130D01*
X0292565Y0113504D01*
X0289332Y0113504D01*
X0289332Y0107955D01*
X0287982Y0107955D01*
X0287982Y0113504D01*
X0283995Y0113504D01*
X0283537Y0113382D01*
X0283127Y0113145D01*
X0282791Y0112810D01*
X0282554Y0112399D01*
X0282432Y0111941D01*
X0282432Y0110256D01*
X0278540Y0110256D01*
X0278540Y0104707D01*
X0277190Y0104707D01*
X0277190Y0110256D01*
X0273203Y0110256D01*
X0272746Y0110134D01*
X0272335Y0109897D01*
X0272000Y0109562D01*
X0271763Y0109151D01*
X0271640Y0108693D01*
X0271640Y0104706D01*
X0277190Y0104706D01*
X0277190Y0103356D01*
X0278540Y0103356D01*
X0278540Y0097806D01*
X0282527Y0097806D01*
X0282985Y0097929D01*
X0283396Y0098166D01*
X0283731Y0098501D01*
X0283968Y0098912D01*
X0284090Y0099370D01*
X0284090Y0101054D01*
X0287982Y0101054D01*
X0287982Y0106604D01*
X0289332Y0106604D01*
X0289332Y0101054D01*
X0292565Y0101054D01*
X0292565Y0082008D01*
X0289332Y0082008D01*
X0289332Y0076459D01*
X0287982Y0076459D01*
X0287982Y0082008D01*
X0284090Y0082008D01*
X0284090Y0083693D01*
X0283968Y0084151D01*
X0283731Y0084562D01*
X0283396Y0084897D01*
X0282985Y0085134D01*
X0282527Y0085256D01*
X0278540Y0085256D01*
X0278540Y0079707D01*
X0277190Y0079707D01*
X0277190Y0085256D01*
X0273203Y0085256D01*
X0272746Y0085134D01*
X0272335Y0084897D01*
X0272000Y0084562D01*
X0271763Y0084151D01*
X0271642Y0083699D01*
X0271642Y0089256D01*
X0271646Y0089260D01*
X0272042Y0090216D01*
X0272042Y0091250D01*
X0271646Y0092206D01*
X0270915Y0092937D01*
X0269959Y0093333D01*
X0269653Y0093333D01*
X0255603Y0107383D01*
X0259642Y0111422D01*
X0259642Y0123756D01*
X0259646Y0123760D01*
X0260042Y0124716D01*
X0260042Y0125750D01*
X0259646Y0126706D01*
X0258915Y0127437D01*
X0257959Y0127833D01*
X0256925Y0127833D01*
X0255969Y0127437D01*
X0255238Y0126706D01*
X0254842Y0125750D01*
X0254842Y0124716D01*
X0255238Y0123760D01*
X0255242Y0123756D01*
X0255242Y0113244D01*
X0251753Y0109756D01*
X0251382Y0109632D01*
X0251282Y0109433D01*
X0236419Y0109433D01*
X0236415Y0109437D01*
X0235459Y0109833D01*
X0234425Y0109833D01*
X0233469Y0109437D01*
X0232738Y0108706D01*
X0232342Y0107750D01*
X0232342Y0106716D01*
X0232738Y0105760D01*
X0233469Y0105029D01*
X0234425Y0104633D01*
X0235459Y0104633D01*
X0236415Y0105029D01*
X0236419Y0105033D01*
X0251731Y0105033D01*
X0266919Y0089845D01*
X0267043Y0089473D01*
X0267177Y0089406D01*
X0267238Y0089260D01*
X0267242Y0089256D01*
X0267242Y0083510D01*
X0267238Y0083506D01*
X0267177Y0083361D01*
X0267043Y0083293D01*
X0266919Y0082921D01*
X0239731Y0055733D01*
X0229519Y0055733D01*
X0229515Y0055737D01*
X0228559Y0056133D01*
X0227525Y0056133D01*
X0226569Y0055737D01*
X0225838Y0055006D01*
X0225442Y0054050D01*
X0225442Y0053016D01*
X0225838Y0052060D01*
X0226569Y0051329D01*
X0227525Y0050933D01*
X0228559Y0050933D01*
X0229515Y0051329D01*
X0229519Y0051333D01*
X0241553Y0051333D01*
X0269653Y0079433D01*
X0269959Y0079433D01*
X0270915Y0079829D01*
X0271640Y0080555D01*
X0271640Y0079706D01*
X0277190Y0079706D01*
X0277190Y0078356D01*
X0278540Y0078356D01*
X0278540Y0072806D01*
X0282432Y0072806D01*
X0282432Y0071122D01*
X0282554Y0070664D01*
X0282791Y0070253D01*
X0283127Y0069918D01*
X0283537Y0069681D01*
X0283995Y0069559D01*
X0287982Y0069559D01*
X0287982Y0075108D01*
X0289332Y0075108D01*
X0289332Y0069559D01*
X0292565Y0069559D01*
X0292565Y0038933D01*
X0292464Y0037650D01*
X0291672Y0035210D01*
X0290164Y0033135D01*
X0288088Y0031627D01*
X0285648Y0030834D01*
X0284365Y0030733D01*
X0043342Y0030733D01*
X0042059Y0030834D01*
X0039619Y0031627D01*
X0038926Y0032130D02*
X0288781Y0032130D01*
X0290595Y0033729D02*
X0037112Y0033729D01*
X0035998Y0035327D02*
X0291710Y0035327D01*
X0292229Y0036926D02*
X0035478Y0036926D01*
X0035174Y0038524D02*
X0292533Y0038524D01*
X0292565Y0040123D02*
X0035142Y0040123D01*
X0035142Y0041721D02*
X0095550Y0041721D01*
X0096238Y0041033D02*
X0159746Y0041033D01*
X0160742Y0042029D01*
X0204146Y0085433D01*
X0204859Y0085433D01*
X0205815Y0085829D01*
X0206478Y0086493D01*
X0218542Y0074429D01*
X0218542Y0073716D01*
X0218938Y0072760D01*
X0219669Y0072029D01*
X0220625Y0071633D01*
X0221659Y0071633D01*
X0222615Y0072029D01*
X0223346Y0072760D01*
X0223742Y0073716D01*
X0223742Y0074750D01*
X0223346Y0075706D01*
X0222615Y0076437D01*
X0221659Y0076833D01*
X0220946Y0076833D01*
X0206942Y0090837D01*
X0205946Y0091833D01*
X0202138Y0091833D01*
X0157738Y0047433D01*
X0157646Y0047433D01*
X0136742Y0068337D01*
X0136742Y0069050D01*
X0136346Y0070006D01*
X0135615Y0070737D01*
X0134659Y0071133D01*
X0133625Y0071133D01*
X0132669Y0070737D01*
X0131938Y0070006D01*
X0131542Y0069050D01*
X0131542Y0068016D01*
X0131938Y0067060D01*
X0132669Y0066329D01*
X0133625Y0065933D01*
X0134338Y0065933D01*
X0155242Y0045029D01*
X0155242Y0044433D01*
X0116942Y0044433D01*
X0116942Y0048933D01*
X0110842Y0048933D01*
X0110842Y0048933D01*
X0116942Y0048933D01*
X0116942Y0053470D01*
X0116819Y0053928D01*
X0116582Y0054338D01*
X0116247Y0054673D01*
X0115837Y0054910D01*
X0115379Y0055033D01*
X0110842Y0055033D01*
X0110842Y0048933D01*
X0110142Y0049033D01*
X0100842Y0049033D01*
X0100842Y0048933D01*
X0100842Y0048933D01*
X0104742Y0048933D01*
X0110842Y0048933D01*
X0110742Y0049033D01*
X0130092Y0068383D01*
X0133842Y0064633D01*
X0134142Y0064033D01*
X0145842Y0052333D01*
X0147360Y0052911D02*
X0116942Y0052911D01*
X0116942Y0051312D02*
X0148958Y0051312D01*
X0150557Y0049714D02*
X0116942Y0049714D01*
X0116942Y0048115D02*
X0152155Y0048115D01*
X0153754Y0046517D02*
X0116942Y0046517D01*
X0116942Y0044918D02*
X0155242Y0044918D01*
X0156964Y0048115D02*
X0158420Y0048115D01*
X0160018Y0049714D02*
X0155365Y0049714D01*
X0153767Y0051312D02*
X0161617Y0051312D01*
X0163215Y0052911D02*
X0152168Y0052911D01*
X0150570Y0054509D02*
X0164814Y0054509D01*
X0166412Y0056108D02*
X0148971Y0056108D01*
X0147373Y0057706D02*
X0168011Y0057706D01*
X0169609Y0059305D02*
X0145774Y0059305D01*
X0144176Y0060903D02*
X0171208Y0060903D01*
X0172806Y0062502D02*
X0142577Y0062502D01*
X0140979Y0064100D02*
X0174405Y0064100D01*
X0176003Y0065699D02*
X0139380Y0065699D01*
X0137782Y0067297D02*
X0177602Y0067297D01*
X0179200Y0068896D02*
X0136742Y0068896D01*
X0135857Y0070494D02*
X0180799Y0070494D01*
X0182397Y0072093D02*
X0070181Y0072093D01*
X0070181Y0073691D02*
X0183996Y0073691D01*
X0185594Y0075290D02*
X0070181Y0075290D01*
X0070181Y0076888D02*
X0187193Y0076888D01*
X0188791Y0078487D02*
X0070181Y0078487D01*
X0070181Y0080085D02*
X0190390Y0080085D01*
X0191989Y0081684D02*
X0184210Y0081684D01*
X0184258Y0081861D02*
X0184258Y0085851D01*
X0178705Y0085851D01*
X0178705Y0080298D01*
X0182695Y0080298D01*
X0183153Y0080421D01*
X0183563Y0080658D01*
X0183898Y0080993D01*
X0184135Y0081404D01*
X0184258Y0081861D01*
X0184258Y0083282D02*
X0193587Y0083282D01*
X0195186Y0084881D02*
X0184258Y0084881D01*
X0184258Y0087204D02*
X0178705Y0087204D01*
X0177352Y0087204D01*
X0177352Y0085851D01*
X0171800Y0085851D01*
X0171800Y0081861D01*
X0171922Y0081404D01*
X0172159Y0080993D01*
X0172494Y0080658D01*
X0172905Y0080421D01*
X0173363Y0080298D01*
X0177352Y0080298D01*
X0177352Y0085851D01*
X0178705Y0085851D01*
X0178705Y0087204D01*
X0178705Y0092757D01*
X0182695Y0092757D01*
X0183153Y0092634D01*
X0183563Y0092397D01*
X0183898Y0092062D01*
X0184135Y0091651D01*
X0184258Y0091194D01*
X0184258Y0087204D01*
X0184258Y0088078D02*
X0198383Y0088078D01*
X0199981Y0089677D02*
X0184258Y0089677D01*
X0184236Y0091275D02*
X0201580Y0091275D01*
X0206142Y0091933D02*
X0183642Y0091933D01*
X0178242Y0086533D01*
X0178029Y0086528D01*
X0177342Y0086233D01*
X0163542Y0072433D01*
X0132342Y0072433D01*
X0131742Y0072133D01*
X0131742Y0070033D01*
X0130092Y0068383D01*
X0131542Y0068896D02*
X0038182Y0068896D01*
X0036719Y0067297D02*
X0131839Y0067297D01*
X0134572Y0065699D02*
X0035822Y0065699D01*
X0035302Y0064100D02*
X0136170Y0064100D01*
X0137769Y0062502D02*
X0035142Y0062502D01*
X0035142Y0060903D02*
X0139367Y0060903D01*
X0140966Y0059305D02*
X0035142Y0059305D01*
X0035142Y0057706D02*
X0142564Y0057706D01*
X0144163Y0056108D02*
X0035142Y0056108D01*
X0035142Y0054509D02*
X0075838Y0054509D01*
X0075962Y0054633D02*
X0075142Y0053813D01*
X0075142Y0044053D01*
X0075962Y0043233D01*
X0085722Y0043233D01*
X0085842Y0043353D01*
X0085962Y0043233D01*
X0094038Y0043233D01*
X0096238Y0041033D01*
X0085875Y0043320D02*
X0085808Y0043320D01*
X0075875Y0043320D02*
X0035142Y0043320D01*
X0035142Y0044918D02*
X0075142Y0044918D01*
X0075142Y0046517D02*
X0035142Y0046517D01*
X0035142Y0048115D02*
X0075142Y0048115D01*
X0075142Y0049714D02*
X0035142Y0049714D01*
X0035142Y0051312D02*
X0075142Y0051312D01*
X0075142Y0052911D02*
X0035142Y0052911D01*
X0041325Y0070494D02*
X0132426Y0070494D01*
X0110842Y0055033D02*
X0106305Y0055033D01*
X0105847Y0054910D01*
X0105842Y0054907D01*
X0105837Y0054910D01*
X0105379Y0055033D01*
X0100842Y0055033D01*
X0100842Y0048933D01*
X0110842Y0048933D01*
X0110842Y0048933D01*
X0110842Y0055033D01*
X0110842Y0054509D02*
X0110842Y0054509D01*
X0110842Y0052911D02*
X0110842Y0052911D01*
X0110842Y0051312D02*
X0110842Y0051312D01*
X0110842Y0049714D02*
X0110842Y0049714D01*
X0110842Y0048933D02*
X0110842Y0048933D01*
X0116411Y0054509D02*
X0145761Y0054509D01*
X0163631Y0044918D02*
X0292565Y0044918D01*
X0292565Y0043320D02*
X0162033Y0043320D01*
X0160434Y0041721D02*
X0292565Y0041721D01*
X0292565Y0046517D02*
X0165230Y0046517D01*
X0166828Y0048115D02*
X0292565Y0048115D01*
X0292565Y0049714D02*
X0168427Y0049714D01*
X0170025Y0051312D02*
X0226609Y0051312D01*
X0225485Y0052911D02*
X0171624Y0052911D01*
X0173222Y0054509D02*
X0225632Y0054509D01*
X0227464Y0056108D02*
X0174821Y0056108D01*
X0176419Y0057706D02*
X0241704Y0057706D01*
X0240105Y0056108D02*
X0228620Y0056108D01*
X0228042Y0053533D02*
X0240642Y0053533D01*
X0268842Y0081733D01*
X0269442Y0082033D01*
X0269442Y0090733D01*
X0268842Y0091033D01*
X0252642Y0107233D01*
X0252942Y0107833D01*
X0257442Y0112333D01*
X0257442Y0125233D01*
X0259755Y0126442D02*
X0292565Y0126442D01*
X0292565Y0124844D02*
X0260042Y0124844D01*
X0259642Y0123245D02*
X0292565Y0123245D01*
X0292565Y0121647D02*
X0259642Y0121647D01*
X0259642Y0120048D02*
X0292565Y0120048D01*
X0292565Y0118450D02*
X0259642Y0118450D01*
X0259642Y0116851D02*
X0292565Y0116851D01*
X0292565Y0115253D02*
X0259642Y0115253D01*
X0259642Y0113654D02*
X0292565Y0113654D01*
X0289332Y0112056D02*
X0287982Y0112056D01*
X0287982Y0110457D02*
X0289332Y0110457D01*
X0289332Y0108859D02*
X0287982Y0108859D01*
X0288657Y0107279D02*
X0288642Y0107233D01*
X0281142Y0107233D01*
X0278442Y0104533D01*
X0277865Y0104031D01*
X0277842Y0103933D01*
X0270342Y0096433D01*
X0269442Y0096433D01*
X0268842Y0096733D01*
X0258942Y0106633D01*
X0258042Y0106633D01*
X0257325Y0105662D02*
X0271640Y0105662D01*
X0271640Y0107260D02*
X0255726Y0107260D01*
X0257079Y0108859D02*
X0271685Y0108859D01*
X0277190Y0108859D02*
X0278540Y0108859D01*
X0278540Y0107260D02*
X0277190Y0107260D01*
X0277190Y0105662D02*
X0278540Y0105662D01*
X0277190Y0104063D02*
X0258923Y0104063D01*
X0260522Y0102465D02*
X0271640Y0102465D01*
X0271640Y0103356D02*
X0271640Y0099370D01*
X0271763Y0098912D01*
X0272000Y0098501D01*
X0272335Y0098166D01*
X0272746Y0097929D01*
X0273203Y0097806D01*
X0277190Y0097806D01*
X0277190Y0103356D01*
X0271640Y0103356D01*
X0271640Y0100866D02*
X0262120Y0100866D01*
X0263719Y0099268D02*
X0271668Y0099268D01*
X0277190Y0099268D02*
X0278540Y0099268D01*
X0278540Y0100866D02*
X0277190Y0100866D01*
X0277190Y0102465D02*
X0278540Y0102465D01*
X0284090Y0100866D02*
X0292565Y0100866D01*
X0292565Y0099268D02*
X0284063Y0099268D01*
X0287982Y0102465D02*
X0289332Y0102465D01*
X0289332Y0104063D02*
X0287982Y0104063D01*
X0287982Y0105662D02*
X0289332Y0105662D01*
X0282432Y0110457D02*
X0258677Y0110457D01*
X0259642Y0112056D02*
X0282462Y0112056D01*
X0257496Y0099268D02*
X0070181Y0099268D01*
X0070181Y0100866D02*
X0255898Y0100866D01*
X0254299Y0102465D02*
X0070181Y0102465D01*
X0070181Y0104063D02*
X0252700Y0104063D01*
X0252642Y0107233D02*
X0234942Y0107233D01*
X0232342Y0107260D02*
X0070181Y0107260D01*
X0070181Y0105662D02*
X0232836Y0105662D01*
X0232890Y0108859D02*
X0070181Y0108859D01*
X0070181Y0110457D02*
X0252455Y0110457D01*
X0254053Y0112056D02*
X0070181Y0112056D01*
X0070181Y0113654D02*
X0255242Y0113654D01*
X0255242Y0115253D02*
X0070181Y0115253D01*
X0070181Y0116851D02*
X0255242Y0116851D01*
X0255242Y0118450D02*
X0070181Y0118450D01*
X0070181Y0120048D02*
X0255242Y0120048D01*
X0255242Y0121647D02*
X0070181Y0121647D01*
X0070181Y0123245D02*
X0255242Y0123245D01*
X0254842Y0124844D02*
X0070181Y0124844D01*
X0070181Y0126442D02*
X0255128Y0126442D01*
X0292565Y0128041D02*
X0070181Y0128041D01*
X0070181Y0129639D02*
X0292565Y0129639D01*
X0292565Y0131238D02*
X0070181Y0131238D01*
X0070181Y0132836D02*
X0292565Y0132836D01*
X0292565Y0134435D02*
X0070181Y0134435D01*
X0070181Y0136033D02*
X0292565Y0136033D01*
X0292565Y0137632D02*
X0070181Y0137632D01*
X0070181Y0139230D02*
X0292565Y0139230D01*
X0292565Y0140829D02*
X0070181Y0140829D01*
X0070181Y0142427D02*
X0292565Y0142427D01*
X0292565Y0144026D02*
X0070181Y0144026D01*
X0070351Y0145624D02*
X0292396Y0145624D01*
X0291876Y0147223D02*
X0070870Y0147223D01*
X0071779Y0148821D02*
X0290968Y0148821D01*
X0289487Y0150420D02*
X0073260Y0150420D01*
X0076450Y0152018D02*
X0286296Y0152018D01*
X0292565Y0097669D02*
X0265317Y0097669D01*
X0266916Y0096071D02*
X0292565Y0096071D01*
X0292565Y0094472D02*
X0268514Y0094472D01*
X0270978Y0092874D02*
X0292565Y0092874D01*
X0292565Y0091275D02*
X0272032Y0091275D01*
X0271818Y0089677D02*
X0292565Y0089677D01*
X0292565Y0088078D02*
X0271642Y0088078D01*
X0271642Y0086479D02*
X0292565Y0086479D01*
X0292565Y0084881D02*
X0283412Y0084881D01*
X0284090Y0083282D02*
X0292565Y0083282D01*
X0289332Y0081684D02*
X0287982Y0081684D01*
X0287982Y0080085D02*
X0289332Y0080085D01*
X0289332Y0078487D02*
X0287982Y0078487D01*
X0287982Y0076888D02*
X0289332Y0076888D01*
X0289332Y0073691D02*
X0287982Y0073691D01*
X0287982Y0072093D02*
X0289332Y0072093D01*
X0289332Y0070494D02*
X0287982Y0070494D01*
X0282652Y0070494D02*
X0260714Y0070494D01*
X0259116Y0068896D02*
X0292565Y0068896D01*
X0292565Y0067297D02*
X0257517Y0067297D01*
X0255919Y0065699D02*
X0292565Y0065699D01*
X0292565Y0064100D02*
X0254320Y0064100D01*
X0252722Y0062502D02*
X0292565Y0062502D01*
X0292565Y0060903D02*
X0251123Y0060903D01*
X0249525Y0059305D02*
X0292565Y0059305D01*
X0292565Y0057706D02*
X0247926Y0057706D01*
X0246328Y0056108D02*
X0292565Y0056108D01*
X0292565Y0054509D02*
X0244729Y0054509D01*
X0243131Y0052911D02*
X0292565Y0052911D01*
X0292565Y0051312D02*
X0229474Y0051312D01*
X0243302Y0059305D02*
X0178018Y0059305D01*
X0179616Y0060903D02*
X0244901Y0060903D01*
X0246499Y0062502D02*
X0181215Y0062502D01*
X0182813Y0064100D02*
X0248098Y0064100D01*
X0249696Y0065699D02*
X0184412Y0065699D01*
X0186010Y0067297D02*
X0251295Y0067297D01*
X0252893Y0068896D02*
X0187609Y0068896D01*
X0189207Y0070494D02*
X0254492Y0070494D01*
X0256090Y0072093D02*
X0222679Y0072093D01*
X0223732Y0073691D02*
X0257689Y0073691D01*
X0259287Y0075290D02*
X0223518Y0075290D01*
X0220891Y0076888D02*
X0260886Y0076888D01*
X0262484Y0078487D02*
X0219292Y0078487D01*
X0217694Y0080085D02*
X0264083Y0080085D01*
X0265681Y0081684D02*
X0216095Y0081684D01*
X0214497Y0083282D02*
X0267039Y0083282D01*
X0267242Y0084881D02*
X0212898Y0084881D01*
X0211300Y0086479D02*
X0267242Y0086479D01*
X0267242Y0088078D02*
X0209701Y0088078D01*
X0210942Y0087133D02*
X0206142Y0091933D01*
X0206504Y0091275D02*
X0265489Y0091275D01*
X0266975Y0089677D02*
X0208103Y0089677D01*
X0210942Y0087133D02*
X0213942Y0087133D01*
X0208090Y0084881D02*
X0203594Y0084881D01*
X0201995Y0083282D02*
X0209688Y0083282D01*
X0211287Y0081684D02*
X0200397Y0081684D01*
X0198798Y0080085D02*
X0212885Y0080085D01*
X0214484Y0078487D02*
X0197200Y0078487D01*
X0195601Y0076888D02*
X0216082Y0076888D01*
X0217681Y0075290D02*
X0194003Y0075290D01*
X0192404Y0073691D02*
X0218552Y0073691D01*
X0219605Y0072093D02*
X0190806Y0072093D01*
X0178705Y0081684D02*
X0177352Y0081684D01*
X0177352Y0083282D02*
X0178705Y0083282D01*
X0178705Y0084881D02*
X0177352Y0084881D01*
X0177352Y0086479D02*
X0070181Y0086479D01*
X0070181Y0084881D02*
X0171800Y0084881D01*
X0171800Y0083282D02*
X0070181Y0083282D01*
X0070181Y0081684D02*
X0171847Y0081684D01*
X0178705Y0086479D02*
X0196784Y0086479D01*
X0206465Y0086479D02*
X0206491Y0086479D01*
X0178705Y0088078D02*
X0177352Y0088078D01*
X0177352Y0087204D02*
X0177352Y0092757D01*
X0173363Y0092757D01*
X0172905Y0092634D01*
X0172494Y0092397D01*
X0172159Y0092062D01*
X0171922Y0091651D01*
X0171800Y0091194D01*
X0171800Y0087204D01*
X0177352Y0087204D01*
X0177352Y0089677D02*
X0178705Y0089677D01*
X0178705Y0091275D02*
X0177352Y0091275D01*
X0171821Y0091275D02*
X0070181Y0091275D01*
X0070181Y0089677D02*
X0171800Y0089677D01*
X0171800Y0088078D02*
X0070181Y0088078D01*
X0070181Y0092874D02*
X0263890Y0092874D01*
X0262292Y0094472D02*
X0070181Y0094472D01*
X0070181Y0096071D02*
X0260693Y0096071D01*
X0259095Y0097669D02*
X0070181Y0097669D01*
X0095437Y0054673D02*
X0095396Y0054633D01*
X0085962Y0054633D01*
X0085842Y0054513D01*
X0085722Y0054633D01*
X0075962Y0054633D01*
X0095437Y0054673D02*
X0095847Y0054910D01*
X0096305Y0055033D01*
X0100842Y0055033D01*
X0100842Y0048933D01*
X0100842Y0048933D01*
X0100842Y0049714D02*
X0100842Y0049714D01*
X0100842Y0051312D02*
X0100842Y0051312D01*
X0100842Y0052911D02*
X0100842Y0052911D01*
X0100842Y0054509D02*
X0100842Y0054509D01*
X0262313Y0072093D02*
X0282432Y0072093D01*
X0278540Y0073691D02*
X0277190Y0073691D01*
X0277190Y0072806D02*
X0277190Y0078356D01*
X0271640Y0078356D01*
X0271640Y0074370D01*
X0271763Y0073912D01*
X0272000Y0073501D01*
X0272335Y0073166D01*
X0272746Y0072929D01*
X0273203Y0072806D01*
X0277190Y0072806D01*
X0277190Y0075290D02*
X0278540Y0075290D01*
X0278540Y0076888D02*
X0277190Y0076888D01*
X0277190Y0078487D02*
X0268707Y0078487D01*
X0267108Y0076888D02*
X0271640Y0076888D01*
X0271640Y0075290D02*
X0265510Y0075290D01*
X0263911Y0073691D02*
X0271890Y0073691D01*
X0271640Y0080085D02*
X0271171Y0080085D01*
X0277190Y0080085D02*
X0278540Y0080085D01*
X0278540Y0081684D02*
X0277190Y0081684D01*
X0277190Y0083282D02*
X0278540Y0083282D01*
X0278540Y0084881D02*
X0277190Y0084881D01*
X0272319Y0084881D02*
X0271642Y0084881D01*
D14*
X0269442Y0082033D03*
X0269442Y0090733D03*
X0269442Y0096433D03*
X0258042Y0106633D03*
X0234942Y0107233D03*
X0257442Y0125233D03*
X0213942Y0087133D03*
X0204342Y0088033D03*
X0221142Y0074233D03*
X0228042Y0053533D03*
X0157842Y0044833D03*
X0145842Y0052333D03*
X0133842Y0064633D03*
X0134142Y0068533D03*
X0131742Y0072133D03*
D15*
X0134142Y0068533D02*
X0157842Y0044833D01*
X0157842Y0045133D01*
X0202842Y0090133D01*
X0205242Y0090133D01*
X0221142Y0074233D01*
X0204342Y0088033D02*
X0159042Y0042733D01*
X0096942Y0042733D01*
X0090942Y0048733D01*
X0090842Y0048933D01*
M02*
