G75*
%MOIN*%
%OFA0B0*%
%FSLAX25Y25*%
%IPPOS*%
%LPD*%
%AMOC8*
5,1,8,0,0,1.08239X$1,22.5*
%
%ADD10R,0.04331X0.03937*%
%ADD11R,0.05118X0.06299*%
%ADD12R,0.08600X0.08600*%
%ADD13R,0.03543X0.02756*%
%ADD14R,0.06102X0.02559*%
%ADD15R,0.05315X0.01575*%
%ADD16R,0.07480X0.07480*%
%ADD17R,0.08850X0.08850*%
%ADD18R,0.05906X0.05118*%
%ADD19R,0.03937X0.04331*%
%ADD20R,0.07087X0.06299*%
%ADD21R,0.05846X0.03543*%
%ADD22R,0.06008X0.01713*%
%ADD23R,0.03937X0.05906*%
%ADD24R,0.05551X0.05551*%
%ADD25R,0.02756X0.05906*%
%ADD26R,0.03937X0.01969*%
%ADD27R,0.03150X0.03150*%
%ADD28C,0.01600*%
%ADD29C,0.02400*%
%ADD30C,0.00600*%
D10*
X0049995Y0036433D03*
X0056688Y0036433D03*
X0056688Y0062683D03*
X0049995Y0062683D03*
X0221495Y0140331D03*
X0228188Y0140331D03*
X0235495Y0140283D03*
X0242188Y0140283D03*
X0277342Y0120433D03*
X0284035Y0120433D03*
X0232188Y0076183D03*
X0225495Y0076183D03*
D11*
X0089582Y0038933D03*
X0082102Y0038933D03*
D12*
X0080842Y0048933D03*
X0090842Y0048933D03*
X0100842Y0048933D03*
X0110842Y0048933D03*
D13*
X0230617Y0056683D03*
X0240066Y0052943D03*
X0240066Y0060423D03*
X0240066Y0044173D03*
X0230617Y0040433D03*
X0240066Y0036693D03*
D14*
X0201995Y0040701D03*
X0201995Y0049165D03*
X0183688Y0049165D03*
X0183688Y0040701D03*
X0165745Y0040701D03*
X0165745Y0049165D03*
X0147438Y0049165D03*
X0147438Y0040701D03*
X0062495Y0044701D03*
X0044188Y0044701D03*
X0044188Y0053165D03*
X0062495Y0053165D03*
D15*
X0278126Y0086413D03*
X0278126Y0088971D03*
X0278126Y0091531D03*
X0278126Y0094091D03*
X0278126Y0096649D03*
D16*
X0288657Y0096255D03*
X0288657Y0086807D03*
D17*
X0277865Y0079031D03*
X0288657Y0075784D03*
X0277865Y0104031D03*
X0288657Y0107279D03*
D18*
X0264592Y0097280D03*
X0264592Y0090587D03*
X0127842Y0116587D03*
X0127842Y0123280D03*
D19*
X0127842Y0108280D03*
X0127842Y0101587D03*
X0127842Y0094530D03*
X0127842Y0087837D03*
X0127842Y0080780D03*
X0127842Y0074087D03*
X0127842Y0067030D03*
X0127842Y0060337D03*
X0222842Y0060030D03*
X0222842Y0053337D03*
X0222842Y0043780D03*
X0222842Y0037087D03*
X0247842Y0037087D03*
X0247842Y0043780D03*
X0247842Y0053337D03*
X0247842Y0060030D03*
X0268592Y0059780D03*
X0278444Y0059780D03*
X0278444Y0053087D03*
X0268592Y0053087D03*
X0268592Y0044030D03*
X0278444Y0044030D03*
X0278444Y0037337D03*
X0268592Y0037337D03*
X0264592Y0071837D03*
X0264592Y0078530D03*
X0264592Y0105587D03*
X0264592Y0112280D03*
D20*
X0257842Y0131575D03*
X0257842Y0142598D03*
D21*
X0209102Y0111724D03*
X0209102Y0105819D03*
X0209102Y0099913D03*
X0209102Y0094008D03*
X0209102Y0088102D03*
X0209102Y0082197D03*
X0209102Y0076291D03*
X0209102Y0070386D03*
X0209102Y0064480D03*
X0139082Y0064480D03*
X0139082Y0070386D03*
X0139082Y0076291D03*
X0139082Y0082197D03*
X0139082Y0088102D03*
X0139082Y0094008D03*
X0139082Y0099913D03*
X0139082Y0105819D03*
X0139082Y0111724D03*
D22*
X0225665Y0111685D03*
X0225665Y0109181D03*
X0225665Y0106685D03*
X0225665Y0104181D03*
X0225665Y0101685D03*
X0225665Y0099181D03*
X0225665Y0096685D03*
X0225665Y0094181D03*
X0247019Y0094181D03*
X0247019Y0096685D03*
X0247019Y0099181D03*
X0247019Y0101685D03*
X0247019Y0104181D03*
X0247019Y0106685D03*
X0247019Y0109181D03*
X0247019Y0111685D03*
X0247019Y0114181D03*
X0247019Y0116685D03*
X0225665Y0116685D03*
X0225665Y0114181D03*
D23*
X0272842Y0130650D03*
X0272842Y0145217D03*
D24*
G36*
X0268918Y0139508D02*
X0272842Y0143432D01*
X0276766Y0139508D01*
X0272842Y0135584D01*
X0268918Y0139508D01*
G37*
G36*
X0268918Y0136358D02*
X0272842Y0140282D01*
X0276766Y0136358D01*
X0272842Y0132434D01*
X0268918Y0136358D01*
G37*
D25*
X0266936Y0130650D03*
X0278747Y0130650D03*
X0278747Y0145217D03*
X0266936Y0145217D03*
D26*
X0272842Y0141476D03*
X0272842Y0134390D03*
D27*
X0272842Y0137933D03*
X0275204Y0137933D03*
X0270480Y0137933D03*
D28*
X0264942Y0149833D02*
X0258342Y0143233D01*
X0257842Y0142598D01*
X0257742Y0142333D01*
X0255942Y0140533D01*
X0242442Y0140533D01*
X0242188Y0140283D01*
X0241542Y0131833D02*
X0230142Y0131833D01*
X0221742Y0140233D01*
X0221495Y0140331D01*
X0220842Y0139933D01*
X0189642Y0108733D01*
X0144042Y0108733D01*
X0143442Y0108433D01*
X0143442Y0061933D01*
X0142242Y0060733D01*
X0128442Y0060733D01*
X0127842Y0060337D01*
X0127242Y0059833D01*
X0127242Y0054733D01*
X0112542Y0040033D01*
X0090042Y0040033D01*
X0089582Y0038933D01*
X0089442Y0039133D01*
X0089442Y0039733D01*
X0081042Y0048133D01*
X0081042Y0048733D01*
X0080842Y0048933D01*
X0088242Y0062233D02*
X0100842Y0049633D01*
X0100842Y0048933D01*
X0088242Y0062233D02*
X0057342Y0062233D01*
X0056688Y0062683D01*
X0056442Y0062833D01*
X0053142Y0066133D01*
X0047142Y0066133D01*
X0044442Y0063433D01*
X0044442Y0053233D01*
X0044188Y0053165D01*
X0124242Y0064033D02*
X0124242Y0084133D01*
X0127842Y0087733D01*
X0127842Y0087837D01*
X0127842Y0074087D02*
X0127842Y0073933D01*
X0129942Y0073933D01*
X0131742Y0072133D01*
X0133842Y0064633D02*
X0138942Y0064633D01*
X0139082Y0064480D01*
X0127842Y0060433D02*
X0127842Y0060337D01*
X0127842Y0060433D02*
X0124242Y0064033D01*
X0145842Y0052333D02*
X0147342Y0050833D01*
X0147342Y0049933D01*
X0147438Y0049165D01*
X0147642Y0049333D01*
X0159342Y0049333D01*
X0162042Y0052033D01*
X0180942Y0052033D01*
X0183642Y0049333D01*
X0183688Y0049165D01*
X0222842Y0053337D02*
X0223542Y0053533D01*
X0228042Y0053533D01*
X0222942Y0053233D02*
X0222842Y0053337D01*
X0222942Y0053233D02*
X0222942Y0043933D01*
X0222842Y0043780D01*
X0261942Y0068233D02*
X0267642Y0068233D01*
X0271992Y0072583D01*
X0266142Y0078433D01*
X0264642Y0078433D01*
X0264592Y0078530D01*
X0266442Y0079033D01*
X0269442Y0082033D01*
X0277865Y0079031D02*
X0278142Y0079033D01*
X0278142Y0086233D01*
X0278126Y0086413D01*
X0278742Y0086533D01*
X0288042Y0086533D01*
X0288657Y0086807D01*
X0288642Y0085933D01*
X0288642Y0076033D01*
X0288657Y0075784D01*
X0282042Y0062533D02*
X0271992Y0072583D01*
X0261942Y0068233D02*
X0241242Y0088933D01*
X0241242Y0101833D01*
X0243642Y0104233D01*
X0246942Y0104233D01*
X0247019Y0104181D01*
X0247242Y0106633D02*
X0247019Y0106685D01*
X0247242Y0106633D02*
X0258042Y0106633D01*
X0264592Y0097280D02*
X0264642Y0097033D01*
X0268842Y0097033D01*
X0269442Y0096433D01*
X0269442Y0090733D02*
X0264642Y0090733D01*
X0264592Y0090587D01*
X0288642Y0086833D02*
X0288657Y0086807D01*
X0288642Y0086833D02*
X0288642Y0096133D01*
X0288657Y0096255D01*
X0288642Y0097033D01*
X0288642Y0106633D01*
X0288657Y0107279D01*
X0288642Y0107533D01*
X0288642Y0141733D01*
X0280542Y0149833D01*
X0264942Y0149833D01*
X0257742Y0131833D02*
X0241542Y0131833D01*
X0241542Y0123133D01*
X0257842Y0131575D02*
X0258342Y0130933D01*
X0266742Y0130933D01*
X0266936Y0130650D01*
X0272842Y0130650D02*
X0273042Y0130633D01*
X0273042Y0130033D01*
X0277242Y0125833D01*
X0277242Y0120433D01*
X0277342Y0120433D01*
X0277842Y0119833D01*
X0277842Y0104233D01*
X0277865Y0104031D01*
X0277342Y0120433D02*
X0221442Y0120433D01*
X0212742Y0111733D01*
X0209142Y0111733D01*
X0209102Y0111724D01*
X0220842Y0105433D02*
X0222192Y0104083D01*
X0221142Y0103033D01*
X0221142Y0093433D01*
X0210042Y0082333D01*
X0209142Y0082333D01*
X0209102Y0082197D01*
X0222192Y0104083D02*
X0222342Y0104233D01*
X0225642Y0104233D01*
X0225665Y0104181D01*
X0225665Y0111685D02*
X0225942Y0111733D01*
X0234342Y0111733D01*
X0257842Y0131575D02*
X0257742Y0131833D01*
X0143442Y0108433D02*
X0140442Y0111433D01*
X0139842Y0111433D01*
X0139082Y0111724D01*
X0138942Y0111733D01*
X0132942Y0111733D01*
X0128442Y0116233D01*
X0127842Y0116587D01*
X0127842Y0116533D01*
X0124242Y0112933D01*
X0124242Y0105433D01*
X0127842Y0101833D01*
X0127842Y0101587D01*
X0132642Y0119533D02*
X0129042Y0123133D01*
X0127842Y0123133D01*
X0127842Y0123280D01*
X0278742Y0053833D02*
X0278444Y0053087D01*
X0278742Y0052933D01*
X0282042Y0049633D01*
X0282042Y0040933D01*
X0278742Y0037633D01*
X0278444Y0037337D01*
X0278742Y0053833D02*
X0282042Y0057133D01*
X0282042Y0062533D01*
D29*
X0269442Y0082033D03*
X0269442Y0090733D03*
X0269442Y0096433D03*
X0258042Y0106633D03*
X0234342Y0111733D03*
X0220842Y0105433D03*
X0241542Y0123133D03*
X0202242Y0074833D03*
X0222042Y0064033D03*
X0228042Y0053533D03*
X0159642Y0043033D03*
X0145842Y0052333D03*
X0133842Y0064633D03*
X0134142Y0068533D03*
X0131742Y0072133D03*
X0132642Y0119533D03*
D30*
X0041981Y0030340D02*
X0039392Y0031181D01*
X0037190Y0032781D01*
X0035590Y0034983D01*
X0034749Y0037572D01*
X0034642Y0038933D01*
X0034642Y0062634D01*
X0034749Y0063995D01*
X0035590Y0066584D01*
X0037190Y0068786D01*
X0039392Y0070386D01*
X0041981Y0071227D01*
X0043342Y0071334D01*
X0047946Y0071334D01*
X0038742Y0062130D01*
X0038742Y0051236D01*
X0039445Y0050533D01*
X0042942Y0047036D01*
X0042942Y0046880D01*
X0040764Y0046880D01*
X0040237Y0046353D01*
X0040237Y0043048D01*
X0040764Y0042521D01*
X0047612Y0042521D01*
X0048139Y0043048D01*
X0048139Y0046353D01*
X0047612Y0046880D01*
X0045342Y0046880D01*
X0045342Y0048030D01*
X0042786Y0050586D01*
X0043888Y0050586D01*
X0043888Y0052865D01*
X0044488Y0052865D01*
X0044488Y0050586D01*
X0047411Y0050586D01*
X0047741Y0050674D01*
X0048038Y0050846D01*
X0048280Y0051088D01*
X0048451Y0051384D01*
X0048539Y0051715D01*
X0048539Y0052865D01*
X0044488Y0052865D01*
X0044488Y0053465D01*
X0048539Y0053465D01*
X0048539Y0054616D01*
X0048451Y0054947D01*
X0048280Y0055243D01*
X0048038Y0055485D01*
X0047741Y0055656D01*
X0047411Y0055745D01*
X0044488Y0055745D01*
X0044488Y0053465D01*
X0043888Y0053465D01*
X0043888Y0055745D01*
X0041142Y0055745D01*
X0041142Y0061136D01*
X0050039Y0070033D01*
X0105239Y0070033D01*
X0124973Y0089768D01*
X0124973Y0087269D01*
X0122542Y0084837D01*
X0122542Y0063329D01*
X0124973Y0060897D01*
X0124973Y0057798D01*
X0125501Y0057271D01*
X0125542Y0057271D01*
X0125542Y0055437D01*
X0116442Y0046337D01*
X0116442Y0048633D01*
X0111142Y0048633D01*
X0111142Y0049233D01*
X0116442Y0049233D01*
X0116442Y0053404D01*
X0116353Y0053735D01*
X0116182Y0054031D01*
X0115940Y0054273D01*
X0115644Y0054444D01*
X0115313Y0054533D01*
X0111142Y0054533D01*
X0111142Y0049233D01*
X0110542Y0049233D01*
X0110542Y0054533D01*
X0106371Y0054533D01*
X0106040Y0054444D01*
X0105842Y0054330D01*
X0105644Y0054444D01*
X0105313Y0054533D01*
X0101142Y0054533D01*
X0101142Y0049233D01*
X0110542Y0049233D01*
X0110542Y0048633D01*
X0111142Y0048633D01*
X0111142Y0043333D01*
X0113438Y0043333D01*
X0111838Y0041733D01*
X0093041Y0041733D01*
X0093041Y0042455D01*
X0092514Y0042983D01*
X0088596Y0042983D01*
X0087846Y0043733D01*
X0095515Y0043733D01*
X0095559Y0043777D01*
X0095744Y0043593D01*
X0096040Y0043422D01*
X0096371Y0043333D01*
X0100542Y0043333D01*
X0100542Y0048633D01*
X0101142Y0048633D01*
X0101142Y0049233D01*
X0100542Y0049233D01*
X0100542Y0054533D01*
X0096371Y0054533D01*
X0096040Y0054444D01*
X0095744Y0054273D01*
X0095559Y0054089D01*
X0095515Y0054133D01*
X0087239Y0054133D01*
X0086039Y0055333D01*
X0075445Y0055333D01*
X0074742Y0054630D01*
X0074442Y0054330D01*
X0074442Y0043736D01*
X0075145Y0043033D01*
X0078643Y0039535D01*
X0078643Y0036929D01*
X0077939Y0037633D01*
X0059754Y0037633D01*
X0059754Y0038774D01*
X0059226Y0039302D01*
X0054150Y0039302D01*
X0053623Y0038774D01*
X0053623Y0034092D01*
X0054150Y0033565D01*
X0059226Y0033565D01*
X0059754Y0034092D01*
X0059754Y0035233D01*
X0076945Y0035233D01*
X0078042Y0034136D01*
X0078745Y0033433D01*
X0125639Y0033433D01*
X0143207Y0051002D01*
X0143176Y0050947D01*
X0143087Y0050616D01*
X0143087Y0049465D01*
X0147138Y0049465D01*
X0147138Y0048865D01*
X0147738Y0048865D01*
X0147738Y0046586D01*
X0150661Y0046586D01*
X0150991Y0046674D01*
X0151288Y0046846D01*
X0151530Y0047088D01*
X0151701Y0047384D01*
X0151789Y0047715D01*
X0151789Y0048865D01*
X0147738Y0048865D01*
X0147738Y0049465D01*
X0151789Y0049465D01*
X0151789Y0050616D01*
X0151701Y0050947D01*
X0151530Y0051243D01*
X0151288Y0051485D01*
X0150991Y0051656D01*
X0150661Y0051745D01*
X0147738Y0051745D01*
X0147738Y0049465D01*
X0147138Y0049465D01*
X0147138Y0051745D01*
X0144216Y0051745D01*
X0143885Y0051656D01*
X0143830Y0051624D01*
X0155339Y0063133D01*
X0205278Y0063133D01*
X0205278Y0062336D01*
X0205806Y0061809D01*
X0212398Y0061809D01*
X0212925Y0062336D01*
X0212925Y0066433D01*
X0213239Y0066433D01*
X0215292Y0068486D01*
X0218742Y0065036D01*
X0218742Y0046333D01*
X0158245Y0046333D01*
X0157542Y0045630D01*
X0154045Y0042133D01*
X0151389Y0042133D01*
X0151389Y0042353D01*
X0150862Y0042880D01*
X0144014Y0042880D01*
X0143487Y0042353D01*
X0143487Y0039048D01*
X0144014Y0038521D01*
X0150862Y0038521D01*
X0151389Y0039048D01*
X0151389Y0039733D01*
X0155039Y0039733D01*
X0157542Y0042236D01*
X0157542Y0042163D01*
X0158772Y0040933D01*
X0160512Y0040933D01*
X0161412Y0041833D01*
X0161794Y0041833D01*
X0161794Y0039048D01*
X0162321Y0038521D01*
X0169169Y0038521D01*
X0169697Y0039048D01*
X0169697Y0041833D01*
X0179737Y0041833D01*
X0179737Y0039048D01*
X0180264Y0038521D01*
X0187112Y0038521D01*
X0187639Y0039048D01*
X0187639Y0042353D01*
X0187112Y0042880D01*
X0183392Y0042880D01*
X0182339Y0043933D01*
X0218742Y0043933D01*
X0218742Y0040736D01*
X0219973Y0039505D01*
X0219973Y0034548D01*
X0220501Y0034021D01*
X0225183Y0034021D01*
X0225710Y0034548D01*
X0225710Y0038405D01*
X0226439Y0039133D01*
X0227946Y0039133D01*
X0227946Y0038682D01*
X0228473Y0038155D01*
X0232423Y0038155D01*
X0238045Y0032533D01*
X0250439Y0032533D01*
X0251142Y0033236D01*
X0254039Y0036133D01*
X0265723Y0036133D01*
X0265723Y0034798D01*
X0266251Y0034271D01*
X0270933Y0034271D01*
X0271460Y0034798D01*
X0271460Y0039875D01*
X0270933Y0040402D01*
X0266251Y0040402D01*
X0265723Y0039875D01*
X0265723Y0038533D01*
X0253045Y0038533D01*
X0250710Y0036199D01*
X0250710Y0038505D01*
X0252042Y0039836D01*
X0252042Y0063030D01*
X0251339Y0063733D01*
X0250739Y0064333D01*
X0244945Y0064333D01*
X0244242Y0063630D01*
X0242738Y0062126D01*
X0242738Y0062174D01*
X0242211Y0062701D01*
X0240071Y0062701D01*
X0239442Y0063330D01*
X0239442Y0081536D01*
X0265723Y0055255D01*
X0265723Y0050548D01*
X0266251Y0050021D01*
X0270933Y0050021D01*
X0271460Y0050548D01*
X0271460Y0055625D01*
X0270933Y0056152D01*
X0268220Y0056152D01*
X0267658Y0056714D01*
X0270933Y0056714D01*
X0271460Y0057241D01*
X0271460Y0058633D01*
X0275576Y0058633D01*
X0275576Y0057241D01*
X0276103Y0056714D01*
X0279219Y0056714D01*
X0278657Y0056152D01*
X0276103Y0056152D01*
X0275576Y0055625D01*
X0275576Y0050548D01*
X0276103Y0050021D01*
X0279249Y0050021D01*
X0280342Y0048929D01*
X0280342Y0047095D01*
X0276103Y0047095D01*
X0275576Y0046568D01*
X0275576Y0045433D01*
X0271460Y0045433D01*
X0271460Y0046568D01*
X0270933Y0047095D01*
X0266251Y0047095D01*
X0265723Y0046568D01*
X0265723Y0041491D01*
X0266251Y0040964D01*
X0270933Y0040964D01*
X0271460Y0041491D01*
X0271460Y0043033D01*
X0275576Y0043033D01*
X0275576Y0041491D01*
X0276103Y0040964D01*
X0279669Y0040964D01*
X0279107Y0040402D01*
X0276103Y0040402D01*
X0275576Y0039875D01*
X0275576Y0034798D01*
X0276103Y0034271D01*
X0280785Y0034271D01*
X0281313Y0034798D01*
X0281313Y0037800D01*
X0282746Y0039233D01*
X0283742Y0040229D01*
X0283742Y0050337D01*
X0281313Y0052766D01*
X0281313Y0054000D01*
X0283742Y0056429D01*
X0283742Y0063237D01*
X0282746Y0064233D01*
X0282746Y0064233D01*
X0273692Y0073287D01*
X0273692Y0073287D01*
X0273673Y0073306D01*
X0277565Y0073306D01*
X0277565Y0078731D01*
X0278165Y0078731D01*
X0278165Y0073306D01*
X0282462Y0073306D01*
X0282792Y0073395D01*
X0282932Y0073476D01*
X0282932Y0071187D01*
X0283020Y0070857D01*
X0283192Y0070560D01*
X0283434Y0070318D01*
X0283730Y0070147D01*
X0284061Y0070059D01*
X0288357Y0070059D01*
X0288357Y0075483D01*
X0288957Y0075483D01*
X0288957Y0070059D01*
X0293065Y0070059D01*
X0293065Y0038933D01*
X0292958Y0037572D01*
X0292117Y0034983D01*
X0290517Y0032781D01*
X0288315Y0031181D01*
X0285726Y0030340D01*
X0284365Y0030233D01*
X0043342Y0030233D01*
X0041981Y0030340D01*
X0040785Y0030729D02*
X0286922Y0030729D01*
X0288516Y0031327D02*
X0039191Y0031327D01*
X0038368Y0031926D02*
X0289340Y0031926D01*
X0290163Y0032524D02*
X0037544Y0032524D01*
X0036942Y0033123D02*
X0237455Y0033123D01*
X0236857Y0033721D02*
X0125927Y0033721D01*
X0126525Y0034320D02*
X0220202Y0034320D01*
X0219973Y0034918D02*
X0127124Y0034918D01*
X0127722Y0035517D02*
X0219973Y0035517D01*
X0219973Y0036115D02*
X0128321Y0036115D01*
X0128919Y0036714D02*
X0219973Y0036714D01*
X0219973Y0037312D02*
X0129518Y0037312D01*
X0130117Y0037911D02*
X0219973Y0037911D01*
X0219973Y0038509D02*
X0130715Y0038509D01*
X0131314Y0039108D02*
X0143487Y0039108D01*
X0143487Y0039706D02*
X0131912Y0039706D01*
X0132511Y0040305D02*
X0143487Y0040305D01*
X0143487Y0040903D02*
X0133109Y0040903D01*
X0133708Y0041502D02*
X0143487Y0041502D01*
X0143487Y0042100D02*
X0134306Y0042100D01*
X0134905Y0042699D02*
X0143833Y0042699D01*
X0147438Y0040701D02*
X0147642Y0040933D01*
X0154542Y0040933D01*
X0158742Y0045133D01*
X0219942Y0045133D01*
X0219942Y0065533D01*
X0215292Y0070183D01*
X0212742Y0067633D01*
X0202842Y0067633D01*
X0197742Y0072733D01*
X0197742Y0094633D01*
X0208842Y0105733D01*
X0209102Y0105819D01*
X0209402Y0108653D02*
X0211842Y0108653D01*
X0211842Y0108491D01*
X0205806Y0108491D01*
X0205278Y0107963D01*
X0205278Y0103867D01*
X0197245Y0095833D01*
X0196542Y0095130D01*
X0196542Y0072236D01*
X0201642Y0067136D01*
X0202345Y0066433D01*
X0205278Y0066433D01*
X0205278Y0065533D01*
X0154345Y0065533D01*
X0153642Y0064830D01*
X0124645Y0035833D01*
X0093041Y0035833D01*
X0093041Y0038333D01*
X0113246Y0038333D01*
X0114242Y0039329D01*
X0128942Y0054029D01*
X0128942Y0057271D01*
X0130183Y0057271D01*
X0130710Y0057798D01*
X0130710Y0059033D01*
X0142946Y0059033D01*
X0143942Y0060029D01*
X0145142Y0061229D01*
X0145142Y0107033D01*
X0190346Y0107033D01*
X0220775Y0137462D01*
X0222109Y0137462D01*
X0228442Y0131129D01*
X0229438Y0130133D01*
X0239842Y0130133D01*
X0239842Y0124403D01*
X0239442Y0124003D01*
X0239442Y0122263D01*
X0240672Y0121033D01*
X0242412Y0121033D01*
X0243642Y0122263D01*
X0243642Y0124003D01*
X0243242Y0124403D01*
X0243242Y0130133D01*
X0253398Y0130133D01*
X0253398Y0128052D01*
X0253926Y0127525D01*
X0261758Y0127525D01*
X0262285Y0128052D01*
X0262285Y0129233D01*
X0264658Y0129233D01*
X0264658Y0127324D01*
X0265186Y0126797D01*
X0268687Y0126797D01*
X0269214Y0127324D01*
X0269214Y0133975D01*
X0268687Y0134502D01*
X0265186Y0134502D01*
X0264658Y0133975D01*
X0264658Y0132633D01*
X0262285Y0132633D01*
X0262285Y0135097D01*
X0261758Y0135624D01*
X0253926Y0135624D01*
X0253398Y0135097D01*
X0253398Y0133533D01*
X0230846Y0133533D01*
X0226917Y0137462D01*
X0230726Y0137462D01*
X0231254Y0137989D01*
X0231254Y0139033D01*
X0232430Y0139033D01*
X0232430Y0137942D01*
X0232957Y0137415D01*
X0238033Y0137415D01*
X0238561Y0137942D01*
X0238561Y0142624D01*
X0238033Y0143152D01*
X0232957Y0143152D01*
X0232430Y0142624D01*
X0232430Y0141433D01*
X0231254Y0141433D01*
X0231254Y0142672D01*
X0230726Y0143199D01*
X0225650Y0143199D01*
X0225123Y0142672D01*
X0225123Y0139256D01*
X0224561Y0139818D01*
X0224561Y0142672D01*
X0224033Y0143199D01*
X0218957Y0143199D01*
X0218430Y0142672D01*
X0218430Y0139925D01*
X0188938Y0110433D01*
X0144318Y0110433D01*
X0143911Y0110568D01*
X0143777Y0110502D01*
X0142905Y0111374D01*
X0142905Y0113869D01*
X0142378Y0114396D01*
X0135786Y0114396D01*
X0135259Y0113869D01*
X0135259Y0113433D01*
X0133646Y0113433D01*
X0131695Y0115384D01*
X0131695Y0119518D01*
X0131555Y0119658D01*
X0131593Y0119680D01*
X0131835Y0119922D01*
X0132006Y0120219D01*
X0132095Y0120549D01*
X0132095Y0122980D01*
X0128142Y0122980D01*
X0128142Y0123579D01*
X0132095Y0123579D01*
X0132095Y0126010D01*
X0132006Y0126340D01*
X0131835Y0126637D01*
X0131593Y0126879D01*
X0131296Y0127050D01*
X0130966Y0127139D01*
X0128142Y0127139D01*
X0128142Y0123580D01*
X0127542Y0123580D01*
X0127542Y0127139D01*
X0124718Y0127139D01*
X0124387Y0127050D01*
X0124091Y0126879D01*
X0123849Y0126637D01*
X0123678Y0126340D01*
X0123589Y0126010D01*
X0123589Y0123579D01*
X0127542Y0123579D01*
X0127542Y0122980D01*
X0123589Y0122980D01*
X0123589Y0120549D01*
X0123678Y0120219D01*
X0123849Y0119922D01*
X0124091Y0119680D01*
X0124129Y0119658D01*
X0123989Y0119518D01*
X0123989Y0115084D01*
X0122542Y0113637D01*
X0122542Y0104729D01*
X0123538Y0103733D01*
X0124973Y0102297D01*
X0124973Y0099048D01*
X0125501Y0098521D01*
X0130183Y0098521D01*
X0130710Y0099048D01*
X0130710Y0104125D01*
X0130183Y0104652D01*
X0127427Y0104652D01*
X0126865Y0105214D01*
X0130183Y0105214D01*
X0130710Y0105741D01*
X0130710Y0106933D01*
X0135259Y0106933D01*
X0135259Y0103674D01*
X0135786Y0103147D01*
X0141742Y0103147D01*
X0141742Y0102585D01*
X0135786Y0102585D01*
X0135259Y0102058D01*
X0135259Y0098047D01*
X0133045Y0095833D01*
X0130710Y0095833D01*
X0130710Y0097068D01*
X0130183Y0097595D01*
X0125501Y0097595D01*
X0124973Y0097068D01*
X0124973Y0093162D01*
X0104245Y0072433D01*
X0069681Y0072433D01*
X0069681Y0144130D01*
X0069788Y0145491D01*
X0070629Y0148080D01*
X0072229Y0150282D01*
X0074431Y0151882D01*
X0077020Y0152723D01*
X0078381Y0152830D01*
X0284365Y0152830D01*
X0285726Y0152723D01*
X0288315Y0151882D01*
X0290517Y0150282D01*
X0292117Y0148080D01*
X0292958Y0145491D01*
X0293065Y0144130D01*
X0293065Y0113004D01*
X0288957Y0113004D01*
X0288957Y0107580D01*
X0288357Y0107580D01*
X0288357Y0113004D01*
X0284442Y0113004D01*
X0284442Y0117565D01*
X0286573Y0117565D01*
X0287100Y0118092D01*
X0287100Y0122774D01*
X0286573Y0123302D01*
X0285042Y0123302D01*
X0285042Y0126330D01*
X0281025Y0130347D01*
X0281025Y0133975D01*
X0280498Y0134502D01*
X0279942Y0134502D01*
X0279942Y0141364D01*
X0280498Y0141364D01*
X0281025Y0141891D01*
X0281025Y0148542D01*
X0280498Y0149069D01*
X0276997Y0149069D01*
X0276469Y0148542D01*
X0276469Y0141891D01*
X0276997Y0141364D01*
X0277542Y0141364D01*
X0277542Y0140018D01*
X0277152Y0140408D01*
X0277140Y0140408D01*
X0275710Y0141837D01*
X0275710Y0148542D01*
X0275183Y0149069D01*
X0270501Y0149069D01*
X0269973Y0148542D01*
X0269973Y0141837D01*
X0268544Y0140408D01*
X0268532Y0140408D01*
X0268005Y0139881D01*
X0268005Y0135985D01*
X0268532Y0135458D01*
X0268544Y0135458D01*
X0269748Y0134254D01*
X0269662Y0134104D01*
X0269573Y0133774D01*
X0269573Y0130950D01*
X0272542Y0130950D01*
X0272542Y0130350D01*
X0269573Y0130350D01*
X0269573Y0127526D01*
X0269662Y0127195D01*
X0269833Y0126899D01*
X0270075Y0126657D01*
X0270372Y0126485D01*
X0270702Y0126397D01*
X0272542Y0126397D01*
X0272542Y0130350D01*
X0273142Y0130350D01*
X0273142Y0130950D01*
X0276110Y0130950D01*
X0276110Y0133774D01*
X0276022Y0134104D01*
X0275935Y0134254D01*
X0277140Y0135458D01*
X0277152Y0135458D01*
X0277542Y0135848D01*
X0277542Y0134502D01*
X0276997Y0134502D01*
X0276469Y0133975D01*
X0276469Y0127324D01*
X0276997Y0126797D01*
X0280498Y0126797D01*
X0280840Y0127138D01*
X0282642Y0125336D01*
X0282642Y0123302D01*
X0281497Y0123302D01*
X0280969Y0122774D01*
X0280969Y0118092D01*
X0281497Y0117565D01*
X0282042Y0117565D01*
X0282042Y0109756D01*
X0278165Y0109756D01*
X0278165Y0104332D01*
X0277565Y0104332D01*
X0277565Y0109756D01*
X0273269Y0109756D01*
X0272939Y0109668D01*
X0272642Y0109497D01*
X0272400Y0109255D01*
X0272229Y0108958D01*
X0272140Y0108628D01*
X0272140Y0104331D01*
X0277565Y0104331D01*
X0277565Y0103731D01*
X0272140Y0103731D01*
X0272140Y0099435D01*
X0272229Y0099105D01*
X0272400Y0098808D01*
X0272642Y0098566D01*
X0272939Y0098395D01*
X0273269Y0098306D01*
X0275065Y0098306D01*
X0274568Y0097810D01*
X0274568Y0096004D01*
X0269142Y0101430D01*
X0268439Y0102133D01*
X0253645Y0102133D01*
X0250923Y0099411D01*
X0250923Y0100410D01*
X0250900Y0100433D01*
X0250923Y0100456D01*
X0250923Y0102914D01*
X0250904Y0102933D01*
X0250923Y0102952D01*
X0250923Y0104890D01*
X0251063Y0105031D01*
X0251234Y0105327D01*
X0251323Y0105658D01*
X0251323Y0106557D01*
X0247147Y0106557D01*
X0247147Y0106813D01*
X0251323Y0106813D01*
X0251323Y0107712D01*
X0251234Y0108043D01*
X0251063Y0108340D01*
X0250923Y0108480D01*
X0250923Y0110410D01*
X0250900Y0110433D01*
X0250923Y0110456D01*
X0250923Y0112914D01*
X0250904Y0112933D01*
X0250923Y0112952D01*
X0250923Y0115055D01*
X0261445Y0104533D01*
X0261723Y0104533D01*
X0261723Y0103048D01*
X0262251Y0102521D01*
X0266933Y0102521D01*
X0267460Y0103048D01*
X0267460Y0108125D01*
X0266933Y0108652D01*
X0262251Y0108652D01*
X0261723Y0108125D01*
X0261723Y0107649D01*
X0258239Y0111133D01*
X0261723Y0111133D01*
X0261723Y0109741D01*
X0262251Y0109214D01*
X0266933Y0109214D01*
X0267460Y0109741D01*
X0267460Y0114818D01*
X0266933Y0115345D01*
X0262251Y0115345D01*
X0261723Y0114818D01*
X0261723Y0113533D01*
X0257639Y0113533D01*
X0252042Y0119130D01*
X0251339Y0119833D01*
X0221845Y0119833D01*
X0213325Y0111313D01*
X0213325Y0111424D01*
X0209402Y0111424D01*
X0209402Y0112024D01*
X0213325Y0112024D01*
X0213325Y0113667D01*
X0213236Y0113998D01*
X0213065Y0114294D01*
X0212823Y0114536D01*
X0212527Y0114707D01*
X0212196Y0114796D01*
X0209402Y0114796D01*
X0209402Y0112024D01*
X0208802Y0112024D01*
X0208802Y0111424D01*
X0209402Y0111424D01*
X0209402Y0108653D01*
X0209402Y0109134D02*
X0208802Y0109134D01*
X0208802Y0108653D02*
X0206007Y0108653D01*
X0205677Y0108741D01*
X0205380Y0108912D01*
X0205138Y0109155D01*
X0204967Y0109451D01*
X0204878Y0109782D01*
X0204878Y0111424D01*
X0208802Y0111424D01*
X0208802Y0108653D01*
X0208802Y0109732D02*
X0209402Y0109732D01*
X0209402Y0110331D02*
X0208802Y0110331D01*
X0208802Y0110929D02*
X0209402Y0110929D01*
X0209402Y0111528D02*
X0213539Y0111528D01*
X0213325Y0112126D02*
X0214138Y0112126D01*
X0214736Y0112725D02*
X0213325Y0112725D01*
X0213325Y0113323D02*
X0215335Y0113323D01*
X0215933Y0113922D02*
X0213257Y0113922D01*
X0212839Y0114520D02*
X0216532Y0114520D01*
X0217130Y0115119D02*
X0198432Y0115119D01*
X0199030Y0115717D02*
X0217729Y0115717D01*
X0218327Y0116316D02*
X0199629Y0116316D01*
X0200227Y0116914D02*
X0218926Y0116914D01*
X0219524Y0117513D02*
X0200826Y0117513D01*
X0201424Y0118111D02*
X0220123Y0118111D01*
X0220721Y0118710D02*
X0202023Y0118710D01*
X0202621Y0119308D02*
X0221320Y0119308D01*
X0222342Y0118633D02*
X0213042Y0109333D01*
X0213042Y0097633D01*
X0212142Y0096733D01*
X0205842Y0096733D01*
X0198942Y0089833D01*
X0198942Y0073333D01*
X0201642Y0070633D01*
X0208842Y0070633D01*
X0209102Y0070386D01*
X0212142Y0073333D02*
X0205842Y0073333D01*
X0205242Y0072733D01*
X0201342Y0072733D01*
X0200142Y0073933D01*
X0200142Y0085333D01*
X0205842Y0091033D01*
X0206142Y0091033D01*
X0208842Y0093733D01*
X0209102Y0094008D01*
X0208142Y0091336D02*
X0212398Y0091336D01*
X0212925Y0091863D01*
X0212925Y0095819D01*
X0213342Y0096236D01*
X0214242Y0097136D01*
X0214242Y0108836D01*
X0221761Y0116355D01*
X0221761Y0115456D01*
X0221784Y0115433D01*
X0221761Y0115410D01*
X0221761Y0112952D01*
X0221780Y0112933D01*
X0221761Y0112914D01*
X0221761Y0110456D01*
X0221784Y0110433D01*
X0221761Y0110410D01*
X0221761Y0107952D01*
X0221780Y0107933D01*
X0221761Y0107914D01*
X0221761Y0105976D01*
X0221620Y0105836D01*
X0221449Y0105539D01*
X0221361Y0105209D01*
X0221361Y0104309D01*
X0225536Y0104309D01*
X0225536Y0104053D01*
X0221361Y0104053D01*
X0221361Y0103154D01*
X0221449Y0102823D01*
X0221620Y0102527D01*
X0221761Y0102386D01*
X0221761Y0100456D01*
X0221784Y0100433D01*
X0221761Y0100410D01*
X0221761Y0097952D01*
X0221780Y0097933D01*
X0221761Y0097914D01*
X0221761Y0095456D01*
X0221784Y0095433D01*
X0221761Y0095410D01*
X0221761Y0092952D01*
X0222288Y0092425D01*
X0225853Y0092425D01*
X0227442Y0090836D01*
X0227442Y0079052D01*
X0222957Y0079052D01*
X0222430Y0078524D01*
X0222430Y0077533D01*
X0212925Y0077533D01*
X0212925Y0078436D01*
X0212398Y0078963D01*
X0205806Y0078963D01*
X0205278Y0078436D01*
X0205278Y0074467D01*
X0204745Y0073933D01*
X0204312Y0073933D01*
X0204342Y0073963D01*
X0204342Y0075703D01*
X0203442Y0076603D01*
X0203442Y0080936D01*
X0205003Y0082497D01*
X0208802Y0082497D01*
X0208802Y0085268D01*
X0207774Y0085268D01*
X0207936Y0085431D01*
X0212398Y0085431D01*
X0212925Y0085958D01*
X0212925Y0090247D01*
X0212398Y0090774D01*
X0207580Y0090774D01*
X0208142Y0091336D01*
X0207984Y0091178D02*
X0227100Y0091178D01*
X0227442Y0090580D02*
X0212592Y0090580D01*
X0212925Y0089981D02*
X0227442Y0089981D01*
X0227442Y0089383D02*
X0212925Y0089383D01*
X0212925Y0088784D02*
X0227442Y0088784D01*
X0227442Y0088186D02*
X0212925Y0088186D01*
X0212925Y0087587D02*
X0227442Y0087587D01*
X0227442Y0086989D02*
X0212925Y0086989D01*
X0212925Y0086390D02*
X0227442Y0086390D01*
X0227442Y0085792D02*
X0212759Y0085792D01*
X0212527Y0085180D02*
X0212823Y0085009D01*
X0213065Y0084767D01*
X0213236Y0084470D01*
X0213325Y0084140D01*
X0213325Y0082497D01*
X0209402Y0082497D01*
X0209402Y0081897D01*
X0213325Y0081897D01*
X0213325Y0080254D01*
X0213236Y0079923D01*
X0213065Y0079627D01*
X0212823Y0079385D01*
X0212527Y0079214D01*
X0212196Y0079125D01*
X0209402Y0079125D01*
X0209402Y0081897D01*
X0208802Y0081897D01*
X0208802Y0079125D01*
X0206007Y0079125D01*
X0205677Y0079214D01*
X0205380Y0079385D01*
X0205138Y0079627D01*
X0204967Y0079923D01*
X0204878Y0080254D01*
X0204878Y0081897D01*
X0208802Y0081897D01*
X0208802Y0082497D01*
X0209402Y0082497D01*
X0209402Y0085268D01*
X0212196Y0085268D01*
X0212527Y0085180D01*
X0212477Y0085193D02*
X0227442Y0085193D01*
X0227442Y0084595D02*
X0213164Y0084595D01*
X0213325Y0083996D02*
X0227442Y0083996D01*
X0227442Y0083398D02*
X0213325Y0083398D01*
X0213325Y0082799D02*
X0227442Y0082799D01*
X0227442Y0082201D02*
X0209402Y0082201D01*
X0209402Y0082799D02*
X0208802Y0082799D01*
X0208802Y0082201D02*
X0204706Y0082201D01*
X0204878Y0081602D02*
X0204108Y0081602D01*
X0203509Y0081004D02*
X0204878Y0081004D01*
X0204878Y0080405D02*
X0203442Y0080405D01*
X0203442Y0079807D02*
X0205034Y0079807D01*
X0205698Y0079208D02*
X0203442Y0079208D01*
X0203442Y0078610D02*
X0205452Y0078610D01*
X0205278Y0078011D02*
X0203442Y0078011D01*
X0203442Y0077412D02*
X0205278Y0077412D01*
X0205278Y0076814D02*
X0203442Y0076814D01*
X0203829Y0076215D02*
X0205278Y0076215D01*
X0205278Y0075617D02*
X0204342Y0075617D01*
X0204342Y0075018D02*
X0205278Y0075018D01*
X0205232Y0074420D02*
X0204342Y0074420D01*
X0202242Y0074833D02*
X0202242Y0081433D01*
X0208842Y0088033D01*
X0209102Y0088102D01*
X0208802Y0085193D02*
X0209402Y0085193D01*
X0209402Y0084595D02*
X0208802Y0084595D01*
X0208802Y0083996D02*
X0209402Y0083996D01*
X0209402Y0083398D02*
X0208802Y0083398D01*
X0208802Y0081602D02*
X0209402Y0081602D01*
X0209402Y0081004D02*
X0208802Y0081004D01*
X0208802Y0080405D02*
X0209402Y0080405D01*
X0209402Y0079807D02*
X0208802Y0079807D01*
X0208802Y0079208D02*
X0209402Y0079208D01*
X0212505Y0079208D02*
X0227442Y0079208D01*
X0227442Y0079807D02*
X0213169Y0079807D01*
X0213325Y0080405D02*
X0227442Y0080405D01*
X0227442Y0081004D02*
X0213325Y0081004D01*
X0213325Y0081602D02*
X0227442Y0081602D01*
X0229842Y0081602D02*
X0230742Y0081602D01*
X0230742Y0081004D02*
X0229842Y0081004D01*
X0229842Y0080405D02*
X0230742Y0080405D01*
X0230742Y0079807D02*
X0229842Y0079807D01*
X0229842Y0079208D02*
X0230742Y0079208D01*
X0230742Y0079052D02*
X0229842Y0079052D01*
X0229842Y0091830D01*
X0229144Y0092528D01*
X0229569Y0092952D01*
X0229569Y0095410D01*
X0229546Y0095433D01*
X0229569Y0095456D01*
X0229569Y0097914D01*
X0229550Y0097933D01*
X0229569Y0097952D01*
X0229569Y0100410D01*
X0229546Y0100433D01*
X0229569Y0100456D01*
X0229569Y0102386D01*
X0229709Y0102527D01*
X0229880Y0102823D01*
X0229969Y0103154D01*
X0229969Y0104053D01*
X0225793Y0104053D01*
X0225793Y0104309D01*
X0229969Y0104309D01*
X0229969Y0105209D01*
X0229880Y0105539D01*
X0229709Y0105836D01*
X0229569Y0105976D01*
X0229569Y0106409D01*
X0230742Y0105236D01*
X0230742Y0079052D01*
X0231942Y0076333D02*
X0232188Y0076183D01*
X0231942Y0076333D02*
X0231942Y0105733D01*
X0228642Y0109033D01*
X0225942Y0109033D01*
X0225665Y0109181D01*
X0221761Y0109134D02*
X0214539Y0109134D01*
X0214242Y0108535D02*
X0221761Y0108535D01*
X0221776Y0107937D02*
X0214242Y0107937D01*
X0214242Y0107338D02*
X0221761Y0107338D01*
X0221761Y0106740D02*
X0214242Y0106740D01*
X0214242Y0106141D02*
X0221761Y0106141D01*
X0221451Y0105543D02*
X0214242Y0105543D01*
X0214242Y0104944D02*
X0221361Y0104944D01*
X0221361Y0104345D02*
X0214242Y0104345D01*
X0214242Y0103747D02*
X0221361Y0103747D01*
X0221362Y0103148D02*
X0214242Y0103148D01*
X0214242Y0102550D02*
X0221607Y0102550D01*
X0221761Y0101951D02*
X0214242Y0101951D01*
X0214242Y0101353D02*
X0221761Y0101353D01*
X0221761Y0100754D02*
X0214242Y0100754D01*
X0214242Y0100156D02*
X0221761Y0100156D01*
X0221761Y0099557D02*
X0214242Y0099557D01*
X0214242Y0098959D02*
X0221761Y0098959D01*
X0221761Y0098360D02*
X0214242Y0098360D01*
X0214242Y0097762D02*
X0221761Y0097762D01*
X0221761Y0097163D02*
X0214242Y0097163D01*
X0213671Y0096565D02*
X0221761Y0096565D01*
X0221761Y0095966D02*
X0213072Y0095966D01*
X0212925Y0095368D02*
X0221761Y0095368D01*
X0221761Y0094769D02*
X0212925Y0094769D01*
X0212925Y0094171D02*
X0221761Y0094171D01*
X0221761Y0093572D02*
X0212925Y0093572D01*
X0212925Y0092974D02*
X0221761Y0092974D01*
X0225665Y0094181D02*
X0225942Y0094033D01*
X0228642Y0091333D01*
X0228642Y0074233D01*
X0233442Y0069433D01*
X0233442Y0038833D01*
X0238542Y0033733D01*
X0249942Y0033733D01*
X0253542Y0037333D01*
X0268542Y0037333D01*
X0268592Y0037337D01*
X0271460Y0037312D02*
X0275576Y0037312D01*
X0275576Y0036714D02*
X0271460Y0036714D01*
X0271460Y0036115D02*
X0275576Y0036115D01*
X0275576Y0035517D02*
X0271460Y0035517D01*
X0271460Y0034918D02*
X0275576Y0034918D01*
X0276054Y0034320D02*
X0270982Y0034320D01*
X0266202Y0034320D02*
X0252225Y0034320D01*
X0251627Y0033721D02*
X0291200Y0033721D01*
X0290765Y0033123D02*
X0251028Y0033123D01*
X0252824Y0034918D02*
X0265723Y0034918D01*
X0265723Y0035517D02*
X0253422Y0035517D01*
X0254021Y0036115D02*
X0265723Y0036115D01*
X0265723Y0039108D02*
X0251314Y0039108D01*
X0251912Y0039706D02*
X0265723Y0039706D01*
X0266153Y0040305D02*
X0252042Y0040305D01*
X0252042Y0040903D02*
X0279608Y0040903D01*
X0282022Y0038509D02*
X0293032Y0038509D01*
X0293065Y0039108D02*
X0282621Y0039108D01*
X0283219Y0039706D02*
X0293065Y0039706D01*
X0293065Y0040305D02*
X0283742Y0040305D01*
X0283742Y0040903D02*
X0293065Y0040903D01*
X0293065Y0041502D02*
X0283742Y0041502D01*
X0283742Y0042100D02*
X0293065Y0042100D01*
X0293065Y0042699D02*
X0283742Y0042699D01*
X0283742Y0043297D02*
X0293065Y0043297D01*
X0293065Y0043896D02*
X0283742Y0043896D01*
X0283742Y0044494D02*
X0293065Y0044494D01*
X0293065Y0045093D02*
X0283742Y0045093D01*
X0283742Y0045691D02*
X0293065Y0045691D01*
X0293065Y0046290D02*
X0283742Y0046290D01*
X0283742Y0046888D02*
X0293065Y0046888D01*
X0293065Y0047487D02*
X0283742Y0047487D01*
X0283742Y0048085D02*
X0293065Y0048085D01*
X0293065Y0048684D02*
X0283742Y0048684D01*
X0283742Y0049282D02*
X0293065Y0049282D01*
X0293065Y0049881D02*
X0283742Y0049881D01*
X0283600Y0050479D02*
X0293065Y0050479D01*
X0293065Y0051078D02*
X0283001Y0051078D01*
X0282403Y0051677D02*
X0293065Y0051677D01*
X0293065Y0052275D02*
X0281804Y0052275D01*
X0281313Y0052874D02*
X0293065Y0052874D01*
X0293065Y0053472D02*
X0281313Y0053472D01*
X0281383Y0054071D02*
X0293065Y0054071D01*
X0293065Y0054669D02*
X0281982Y0054669D01*
X0282580Y0055268D02*
X0293065Y0055268D01*
X0293065Y0055866D02*
X0283179Y0055866D01*
X0283742Y0056465D02*
X0293065Y0056465D01*
X0293065Y0057063D02*
X0283742Y0057063D01*
X0283742Y0057662D02*
X0293065Y0057662D01*
X0293065Y0058260D02*
X0283742Y0058260D01*
X0283742Y0058859D02*
X0293065Y0058859D01*
X0293065Y0059457D02*
X0283742Y0059457D01*
X0283742Y0060056D02*
X0293065Y0060056D01*
X0293065Y0060654D02*
X0283742Y0060654D01*
X0283742Y0061253D02*
X0293065Y0061253D01*
X0293065Y0061851D02*
X0283742Y0061851D01*
X0283742Y0062450D02*
X0293065Y0062450D01*
X0293065Y0063048D02*
X0283742Y0063048D01*
X0283332Y0063647D02*
X0293065Y0063647D01*
X0293065Y0064245D02*
X0282734Y0064245D01*
X0282135Y0064844D02*
X0293065Y0064844D01*
X0293065Y0065442D02*
X0281537Y0065442D01*
X0280938Y0066041D02*
X0293065Y0066041D01*
X0293065Y0066639D02*
X0280340Y0066639D01*
X0279741Y0067238D02*
X0293065Y0067238D01*
X0293065Y0067836D02*
X0279143Y0067836D01*
X0278544Y0068435D02*
X0293065Y0068435D01*
X0293065Y0069033D02*
X0277946Y0069033D01*
X0277347Y0069632D02*
X0293065Y0069632D01*
X0288957Y0070230D02*
X0288357Y0070230D01*
X0288357Y0070829D02*
X0288957Y0070829D01*
X0288957Y0071427D02*
X0288357Y0071427D01*
X0288357Y0072026D02*
X0288957Y0072026D01*
X0288957Y0072624D02*
X0288357Y0072624D01*
X0288357Y0073223D02*
X0288957Y0073223D01*
X0288957Y0073821D02*
X0288357Y0073821D01*
X0288357Y0074420D02*
X0288957Y0074420D01*
X0288957Y0075018D02*
X0288357Y0075018D01*
X0288357Y0076084D02*
X0288357Y0081508D01*
X0284061Y0081508D01*
X0283730Y0081420D01*
X0283590Y0081339D01*
X0283590Y0083628D01*
X0283502Y0083958D01*
X0283331Y0084255D01*
X0283089Y0084497D01*
X0282792Y0084668D01*
X0282462Y0084756D01*
X0281752Y0084756D01*
X0281823Y0084828D01*
X0281995Y0085124D01*
X0282083Y0085455D01*
X0282083Y0086320D01*
X0278220Y0086320D01*
X0278220Y0086507D01*
X0282083Y0086507D01*
X0282083Y0087372D01*
X0281995Y0087703D01*
X0281823Y0087999D01*
X0281683Y0088139D01*
X0281683Y0090132D01*
X0281564Y0090251D01*
X0281683Y0090371D01*
X0281683Y0092692D01*
X0281564Y0092811D01*
X0281683Y0092931D01*
X0281683Y0095252D01*
X0281565Y0095370D01*
X0281683Y0095489D01*
X0281683Y0095877D01*
X0283617Y0097811D01*
X0283617Y0096555D01*
X0288357Y0096555D01*
X0288357Y0095956D01*
X0283617Y0095956D01*
X0283617Y0092344D01*
X0283705Y0092014D01*
X0283877Y0091717D01*
X0284062Y0091531D01*
X0283877Y0091346D01*
X0283705Y0091049D01*
X0283617Y0090719D01*
X0283617Y0087107D01*
X0288357Y0087107D01*
X0288357Y0086508D01*
X0283617Y0086508D01*
X0283617Y0082896D01*
X0283705Y0082566D01*
X0283877Y0082269D01*
X0284119Y0082027D01*
X0284415Y0081856D01*
X0284746Y0081767D01*
X0288357Y0081767D01*
X0288357Y0086507D01*
X0288957Y0086507D01*
X0288957Y0081767D01*
X0292568Y0081767D01*
X0292899Y0081856D01*
X0293065Y0081952D01*
X0293065Y0081508D01*
X0288957Y0081508D01*
X0288957Y0076084D01*
X0288357Y0076084D01*
X0288357Y0076215D02*
X0288957Y0076215D01*
X0288957Y0076814D02*
X0288357Y0076814D01*
X0288357Y0077412D02*
X0288957Y0077412D01*
X0288957Y0078011D02*
X0288357Y0078011D01*
X0288357Y0078610D02*
X0288957Y0078610D01*
X0288957Y0079208D02*
X0288357Y0079208D01*
X0288357Y0079807D02*
X0288957Y0079807D01*
X0288957Y0080405D02*
X0288357Y0080405D01*
X0288357Y0081004D02*
X0288957Y0081004D01*
X0288957Y0082201D02*
X0288357Y0082201D01*
X0288357Y0082799D02*
X0288957Y0082799D01*
X0288957Y0083398D02*
X0288357Y0083398D01*
X0288357Y0083996D02*
X0288957Y0083996D01*
X0288957Y0084595D02*
X0288357Y0084595D01*
X0288357Y0085193D02*
X0288957Y0085193D01*
X0288957Y0085792D02*
X0288357Y0085792D01*
X0288357Y0086390D02*
X0288957Y0086390D01*
X0288957Y0087108D02*
X0288357Y0087108D01*
X0288357Y0095955D01*
X0288957Y0095955D01*
X0288957Y0091216D01*
X0288957Y0087108D01*
X0288957Y0087587D02*
X0288357Y0087587D01*
X0288357Y0086989D02*
X0282083Y0086989D01*
X0282026Y0087587D02*
X0283617Y0087587D01*
X0283617Y0088186D02*
X0281683Y0088186D01*
X0281683Y0088784D02*
X0283617Y0088784D01*
X0283617Y0089383D02*
X0281683Y0089383D01*
X0281683Y0089981D02*
X0283617Y0089981D01*
X0283617Y0090580D02*
X0281683Y0090580D01*
X0281683Y0091178D02*
X0283780Y0091178D01*
X0283842Y0091777D02*
X0281683Y0091777D01*
X0281683Y0092375D02*
X0283617Y0092375D01*
X0283617Y0092974D02*
X0281683Y0092974D01*
X0281683Y0093572D02*
X0283617Y0093572D01*
X0283617Y0094171D02*
X0281683Y0094171D01*
X0281683Y0094769D02*
X0283617Y0094769D01*
X0283617Y0095368D02*
X0281567Y0095368D01*
X0281772Y0095966D02*
X0288357Y0095966D01*
X0288357Y0096556D02*
X0288357Y0101295D01*
X0284746Y0101295D01*
X0284442Y0101214D01*
X0284442Y0101554D01*
X0288357Y0101554D01*
X0288357Y0106979D01*
X0288957Y0106979D01*
X0288957Y0101554D01*
X0293065Y0101554D01*
X0293065Y0101111D01*
X0292899Y0101207D01*
X0292568Y0101295D01*
X0288957Y0101295D01*
X0288957Y0096556D01*
X0288357Y0096556D01*
X0288357Y0096565D02*
X0288957Y0096565D01*
X0288957Y0097163D02*
X0288357Y0097163D01*
X0288357Y0097762D02*
X0288957Y0097762D01*
X0288957Y0098360D02*
X0288357Y0098360D01*
X0288357Y0098959D02*
X0288957Y0098959D01*
X0288957Y0099557D02*
X0288357Y0099557D01*
X0288357Y0100156D02*
X0288957Y0100156D01*
X0288957Y0100754D02*
X0288357Y0100754D01*
X0288357Y0101951D02*
X0288957Y0101951D01*
X0288957Y0102550D02*
X0288357Y0102550D01*
X0288357Y0103148D02*
X0288957Y0103148D01*
X0288957Y0103747D02*
X0288357Y0103747D01*
X0288357Y0104345D02*
X0288957Y0104345D01*
X0288957Y0104944D02*
X0288357Y0104944D01*
X0288357Y0105543D02*
X0288957Y0105543D01*
X0288957Y0106141D02*
X0288357Y0106141D01*
X0288357Y0106740D02*
X0288957Y0106740D01*
X0288957Y0107937D02*
X0288357Y0107937D01*
X0288357Y0108535D02*
X0288957Y0108535D01*
X0288957Y0109134D02*
X0288357Y0109134D01*
X0288357Y0109732D02*
X0288957Y0109732D01*
X0288957Y0110331D02*
X0288357Y0110331D01*
X0288357Y0110929D02*
X0288957Y0110929D01*
X0288957Y0111528D02*
X0288357Y0111528D01*
X0288357Y0112126D02*
X0288957Y0112126D01*
X0288957Y0112725D02*
X0288357Y0112725D01*
X0284442Y0113323D02*
X0293065Y0113323D01*
X0293065Y0113922D02*
X0284442Y0113922D01*
X0284442Y0114520D02*
X0293065Y0114520D01*
X0293065Y0115119D02*
X0284442Y0115119D01*
X0284442Y0115717D02*
X0293065Y0115717D01*
X0293065Y0116316D02*
X0284442Y0116316D01*
X0284442Y0116914D02*
X0293065Y0116914D01*
X0293065Y0117513D02*
X0284442Y0117513D01*
X0282042Y0117513D02*
X0280394Y0117513D01*
X0280305Y0117424D02*
X0280547Y0117666D01*
X0280719Y0117963D01*
X0280807Y0118293D01*
X0280807Y0120133D01*
X0277642Y0120133D01*
X0277642Y0120733D01*
X0280807Y0120733D01*
X0280807Y0122573D01*
X0280719Y0122903D01*
X0280547Y0123200D01*
X0280305Y0123442D01*
X0280009Y0123613D01*
X0279678Y0123702D01*
X0277642Y0123702D01*
X0277642Y0120733D01*
X0277042Y0120733D01*
X0277042Y0123702D01*
X0275005Y0123702D01*
X0274675Y0123613D01*
X0274378Y0123442D01*
X0274136Y0123200D01*
X0273965Y0122903D01*
X0273876Y0122573D01*
X0273876Y0120733D01*
X0277042Y0120733D01*
X0277042Y0120133D01*
X0277642Y0120133D01*
X0277642Y0117165D01*
X0279678Y0117165D01*
X0280009Y0117253D01*
X0280305Y0117424D01*
X0280758Y0118111D02*
X0280969Y0118111D01*
X0280969Y0118710D02*
X0280807Y0118710D01*
X0280807Y0119308D02*
X0280969Y0119308D01*
X0280969Y0119907D02*
X0280807Y0119907D01*
X0280969Y0120505D02*
X0277642Y0120505D01*
X0277642Y0119907D02*
X0277042Y0119907D01*
X0277042Y0120133D02*
X0277042Y0117165D01*
X0275005Y0117165D01*
X0274675Y0117253D01*
X0274378Y0117424D01*
X0274136Y0117666D01*
X0273965Y0117963D01*
X0273876Y0118293D01*
X0273876Y0120133D01*
X0277042Y0120133D01*
X0277042Y0120505D02*
X0203818Y0120505D01*
X0203220Y0119907D02*
X0273876Y0119907D01*
X0273876Y0119308D02*
X0251864Y0119308D01*
X0252462Y0118710D02*
X0273876Y0118710D01*
X0273925Y0118111D02*
X0253061Y0118111D01*
X0253659Y0117513D02*
X0274290Y0117513D01*
X0277042Y0117513D02*
X0277642Y0117513D01*
X0277642Y0118111D02*
X0277042Y0118111D01*
X0277042Y0118710D02*
X0277642Y0118710D01*
X0277642Y0119308D02*
X0277042Y0119308D01*
X0277042Y0121104D02*
X0277642Y0121104D01*
X0277642Y0121702D02*
X0277042Y0121702D01*
X0277042Y0122301D02*
X0277642Y0122301D01*
X0277642Y0122899D02*
X0277042Y0122899D01*
X0277042Y0123498D02*
X0277642Y0123498D01*
X0280208Y0123498D02*
X0282642Y0123498D01*
X0282642Y0124096D02*
X0243548Y0124096D01*
X0243642Y0123498D02*
X0274475Y0123498D01*
X0273964Y0122899D02*
X0243642Y0122899D01*
X0243642Y0122301D02*
X0273876Y0122301D01*
X0273876Y0121702D02*
X0243081Y0121702D01*
X0242482Y0121104D02*
X0273876Y0121104D01*
X0280807Y0121104D02*
X0280969Y0121104D01*
X0280969Y0121702D02*
X0280807Y0121702D01*
X0280807Y0122301D02*
X0280969Y0122301D01*
X0281094Y0122899D02*
X0280720Y0122899D01*
X0282642Y0124695D02*
X0243242Y0124695D01*
X0243242Y0125293D02*
X0282642Y0125293D01*
X0282086Y0125892D02*
X0243242Y0125892D01*
X0243242Y0126490D02*
X0270363Y0126490D01*
X0269723Y0127089D02*
X0268979Y0127089D01*
X0269214Y0127687D02*
X0269573Y0127687D01*
X0269573Y0128286D02*
X0269214Y0128286D01*
X0269214Y0128884D02*
X0269573Y0128884D01*
X0269573Y0129483D02*
X0269214Y0129483D01*
X0269214Y0130081D02*
X0269573Y0130081D01*
X0269214Y0130680D02*
X0272542Y0130680D01*
X0272542Y0130081D02*
X0273142Y0130081D01*
X0273142Y0130350D02*
X0273142Y0126397D01*
X0274981Y0126397D01*
X0275312Y0126485D01*
X0275609Y0126657D01*
X0275851Y0126899D01*
X0276022Y0127195D01*
X0276110Y0127526D01*
X0276110Y0130350D01*
X0273142Y0130350D01*
X0273142Y0130680D02*
X0276469Y0130680D01*
X0276469Y0131279D02*
X0276110Y0131279D01*
X0276110Y0131877D02*
X0276469Y0131877D01*
X0276469Y0132476D02*
X0276110Y0132476D01*
X0276110Y0133074D02*
X0276469Y0133074D01*
X0276469Y0133673D02*
X0276110Y0133673D01*
X0275953Y0134271D02*
X0276765Y0134271D01*
X0276551Y0134870D02*
X0277542Y0134870D01*
X0277542Y0135468D02*
X0277161Y0135468D01*
X0279942Y0135468D02*
X0293065Y0135468D01*
X0293065Y0134870D02*
X0279942Y0134870D01*
X0280729Y0134271D02*
X0293065Y0134271D01*
X0293065Y0133673D02*
X0281025Y0133673D01*
X0281025Y0133074D02*
X0293065Y0133074D01*
X0293065Y0132476D02*
X0281025Y0132476D01*
X0281025Y0131877D02*
X0293065Y0131877D01*
X0293065Y0131279D02*
X0281025Y0131279D01*
X0281025Y0130680D02*
X0293065Y0130680D01*
X0293065Y0130081D02*
X0281290Y0130081D01*
X0281889Y0129483D02*
X0293065Y0129483D01*
X0293065Y0128884D02*
X0282487Y0128884D01*
X0283086Y0128286D02*
X0293065Y0128286D01*
X0293065Y0127687D02*
X0283684Y0127687D01*
X0284283Y0127089D02*
X0293065Y0127089D01*
X0293065Y0126490D02*
X0284881Y0126490D01*
X0285042Y0125892D02*
X0293065Y0125892D01*
X0293065Y0125293D02*
X0285042Y0125293D01*
X0285042Y0124695D02*
X0293065Y0124695D01*
X0293065Y0124096D02*
X0285042Y0124096D01*
X0285042Y0123498D02*
X0293065Y0123498D01*
X0293065Y0122899D02*
X0286975Y0122899D01*
X0287100Y0122301D02*
X0293065Y0122301D01*
X0293065Y0121702D02*
X0287100Y0121702D01*
X0287100Y0121104D02*
X0293065Y0121104D01*
X0293065Y0120505D02*
X0287100Y0120505D01*
X0287100Y0119907D02*
X0293065Y0119907D01*
X0293065Y0119308D02*
X0287100Y0119308D01*
X0287100Y0118710D02*
X0293065Y0118710D01*
X0293065Y0118111D02*
X0287100Y0118111D01*
X0283842Y0120433D02*
X0283242Y0119833D01*
X0283242Y0099133D01*
X0280842Y0096733D01*
X0278142Y0096733D01*
X0278126Y0096649D01*
X0274568Y0096565D02*
X0274007Y0096565D01*
X0274568Y0097163D02*
X0273409Y0097163D01*
X0272810Y0097762D02*
X0274568Y0097762D01*
X0273068Y0098360D02*
X0272212Y0098360D01*
X0272313Y0098959D02*
X0271613Y0098959D01*
X0272140Y0099557D02*
X0271015Y0099557D01*
X0270416Y0100156D02*
X0272140Y0100156D01*
X0272140Y0100754D02*
X0269817Y0100754D01*
X0269219Y0101353D02*
X0272140Y0101353D01*
X0272140Y0101951D02*
X0268620Y0101951D01*
X0267942Y0100933D02*
X0254142Y0100933D01*
X0249942Y0096733D01*
X0247242Y0096733D01*
X0247019Y0096685D01*
X0250923Y0096017D02*
X0251142Y0096236D01*
X0254639Y0099733D01*
X0260339Y0099733D01*
X0260339Y0097579D01*
X0264292Y0097579D01*
X0264292Y0096980D01*
X0260339Y0096980D01*
X0260339Y0094549D01*
X0260428Y0094219D01*
X0260599Y0093922D01*
X0260841Y0093680D01*
X0260879Y0093658D01*
X0260739Y0093518D01*
X0260739Y0088033D01*
X0254939Y0088033D01*
X0250471Y0092501D01*
X0250923Y0092952D01*
X0250923Y0095410D01*
X0250900Y0095433D01*
X0250923Y0095456D01*
X0250923Y0096017D01*
X0250923Y0095966D02*
X0260339Y0095966D01*
X0260339Y0095368D02*
X0250923Y0095368D01*
X0250923Y0094769D02*
X0260339Y0094769D01*
X0260455Y0094171D02*
X0250923Y0094171D01*
X0250923Y0093572D02*
X0260793Y0093572D01*
X0260739Y0092974D02*
X0250923Y0092974D01*
X0250597Y0092375D02*
X0260739Y0092375D01*
X0260739Y0091777D02*
X0251195Y0091777D01*
X0251794Y0091178D02*
X0260739Y0091178D01*
X0260739Y0090580D02*
X0252392Y0090580D01*
X0252991Y0089981D02*
X0260739Y0089981D01*
X0260739Y0089383D02*
X0253589Y0089383D01*
X0254188Y0088784D02*
X0260739Y0088784D01*
X0260739Y0088186D02*
X0254786Y0088186D01*
X0254442Y0086833D02*
X0247242Y0094033D01*
X0247019Y0094181D01*
X0247153Y0092425D02*
X0245147Y0092425D01*
X0262670Y0074902D01*
X0266933Y0074902D01*
X0267460Y0074375D01*
X0267460Y0070456D01*
X0269588Y0072583D01*
X0266707Y0075464D01*
X0262251Y0075464D01*
X0261723Y0075991D01*
X0261723Y0081068D01*
X0262251Y0081595D01*
X0266599Y0081595D01*
X0267342Y0082337D01*
X0267342Y0082903D01*
X0268572Y0084133D01*
X0270312Y0084133D01*
X0271542Y0082903D01*
X0271542Y0081163D01*
X0270312Y0079933D01*
X0269746Y0079933D01*
X0268396Y0078583D01*
X0272140Y0074839D01*
X0272140Y0078731D01*
X0277565Y0078731D01*
X0277565Y0079331D01*
X0272140Y0079331D01*
X0272140Y0083628D01*
X0272229Y0083958D01*
X0272400Y0084255D01*
X0272642Y0084497D01*
X0272939Y0084668D01*
X0273269Y0084756D01*
X0274499Y0084756D01*
X0274428Y0084828D01*
X0274257Y0085124D01*
X0274168Y0085455D01*
X0274168Y0086320D01*
X0278032Y0086320D01*
X0278032Y0086507D01*
X0274168Y0086507D01*
X0274168Y0087372D01*
X0274257Y0087703D01*
X0274428Y0087999D01*
X0274568Y0088139D01*
X0274568Y0090132D01*
X0274570Y0090133D01*
X0273539Y0090133D01*
X0269742Y0086336D01*
X0269039Y0085633D01*
X0254939Y0085633D01*
X0253945Y0085633D01*
X0247153Y0092425D01*
X0247203Y0092375D02*
X0245197Y0092375D01*
X0245795Y0091777D02*
X0247801Y0091777D01*
X0248400Y0091178D02*
X0246394Y0091178D01*
X0246992Y0090580D02*
X0248998Y0090580D01*
X0249597Y0089981D02*
X0247591Y0089981D01*
X0248189Y0089383D02*
X0250195Y0089383D01*
X0250794Y0088784D02*
X0248788Y0088784D01*
X0249386Y0088186D02*
X0251392Y0088186D01*
X0251991Y0087587D02*
X0249985Y0087587D01*
X0250583Y0086989D02*
X0252589Y0086989D01*
X0253188Y0086390D02*
X0251182Y0086390D01*
X0251780Y0085792D02*
X0253786Y0085792D01*
X0254442Y0086833D02*
X0268542Y0086833D01*
X0273042Y0091333D01*
X0277842Y0091333D01*
X0278126Y0091531D01*
X0278126Y0094091D02*
X0277842Y0094333D01*
X0274542Y0094333D01*
X0267942Y0100933D01*
X0268845Y0098333D02*
X0274045Y0093133D01*
X0274568Y0093133D01*
X0274568Y0092931D01*
X0274688Y0092811D01*
X0274568Y0092692D01*
X0274568Y0092533D01*
X0272545Y0092533D01*
X0271542Y0091530D01*
X0271542Y0091603D01*
X0270312Y0092833D01*
X0268572Y0092833D01*
X0268445Y0092706D01*
X0268445Y0093518D01*
X0268305Y0093658D01*
X0268343Y0093680D01*
X0268585Y0093922D01*
X0268756Y0094219D01*
X0268845Y0094549D01*
X0268845Y0096980D01*
X0264892Y0096980D01*
X0264892Y0097579D01*
X0268845Y0097579D01*
X0268845Y0098333D01*
X0268845Y0097762D02*
X0269416Y0097762D01*
X0270014Y0097163D02*
X0264892Y0097163D01*
X0264292Y0097163D02*
X0252069Y0097163D01*
X0251471Y0096565D02*
X0260339Y0096565D01*
X0260339Y0097762D02*
X0252668Y0097762D01*
X0253266Y0098360D02*
X0260339Y0098360D01*
X0260339Y0098959D02*
X0253865Y0098959D01*
X0254463Y0099557D02*
X0260339Y0099557D01*
X0262222Y0102550D02*
X0250923Y0102550D01*
X0250923Y0103148D02*
X0261723Y0103148D01*
X0261723Y0103747D02*
X0250923Y0103747D01*
X0250923Y0104345D02*
X0261723Y0104345D01*
X0261034Y0104944D02*
X0250977Y0104944D01*
X0251292Y0105543D02*
X0260435Y0105543D01*
X0259837Y0106141D02*
X0251323Y0106141D01*
X0251323Y0107338D02*
X0258640Y0107338D01*
X0259238Y0106740D02*
X0247147Y0106740D01*
X0250923Y0108535D02*
X0257443Y0108535D01*
X0258041Y0107937D02*
X0251263Y0107937D01*
X0250923Y0109134D02*
X0256844Y0109134D01*
X0256246Y0109732D02*
X0250923Y0109732D01*
X0250923Y0110331D02*
X0255647Y0110331D01*
X0255049Y0110929D02*
X0250923Y0110929D01*
X0250923Y0111528D02*
X0254450Y0111528D01*
X0253852Y0112126D02*
X0250923Y0112126D01*
X0250923Y0112725D02*
X0253253Y0112725D01*
X0252655Y0113323D02*
X0250923Y0113323D01*
X0250923Y0113922D02*
X0252056Y0113922D01*
X0251458Y0114520D02*
X0250923Y0114520D01*
X0251142Y0116533D02*
X0247242Y0116533D01*
X0247019Y0116685D01*
X0251142Y0116533D02*
X0261942Y0105733D01*
X0264342Y0105733D01*
X0264592Y0105587D01*
X0267460Y0105543D02*
X0272140Y0105543D01*
X0272140Y0106141D02*
X0267460Y0106141D01*
X0267460Y0106740D02*
X0272140Y0106740D01*
X0272140Y0107338D02*
X0267460Y0107338D01*
X0267460Y0107937D02*
X0272140Y0107937D01*
X0272140Y0108535D02*
X0267050Y0108535D01*
X0267451Y0109732D02*
X0273178Y0109732D01*
X0272330Y0109134D02*
X0260238Y0109134D01*
X0259640Y0109732D02*
X0261733Y0109732D01*
X0261723Y0110331D02*
X0259041Y0110331D01*
X0258443Y0110929D02*
X0261723Y0110929D01*
X0264342Y0112333D02*
X0257142Y0112333D01*
X0250842Y0118633D01*
X0222342Y0118633D01*
X0221761Y0116316D02*
X0221721Y0116316D01*
X0221761Y0115717D02*
X0221123Y0115717D01*
X0220524Y0115119D02*
X0221761Y0115119D01*
X0221761Y0114520D02*
X0219926Y0114520D01*
X0219327Y0113922D02*
X0221761Y0113922D01*
X0221761Y0113323D02*
X0218729Y0113323D01*
X0218130Y0112725D02*
X0221761Y0112725D01*
X0221761Y0112126D02*
X0217532Y0112126D01*
X0216933Y0111528D02*
X0221761Y0111528D01*
X0221761Y0110929D02*
X0216335Y0110929D01*
X0215736Y0110331D02*
X0221761Y0110331D01*
X0221761Y0109732D02*
X0215138Y0109732D01*
X0211842Y0108535D02*
X0191848Y0108535D01*
X0191249Y0107937D02*
X0205278Y0107937D01*
X0205278Y0107338D02*
X0190651Y0107338D01*
X0192446Y0109134D02*
X0205159Y0109134D01*
X0204892Y0109732D02*
X0193045Y0109732D01*
X0193644Y0110331D02*
X0204878Y0110331D01*
X0204878Y0110929D02*
X0194242Y0110929D01*
X0194841Y0111528D02*
X0208802Y0111528D01*
X0208802Y0112024D02*
X0204878Y0112024D01*
X0204878Y0113667D01*
X0204967Y0113998D01*
X0205138Y0114294D01*
X0205380Y0114536D01*
X0205677Y0114707D01*
X0206007Y0114796D01*
X0208802Y0114796D01*
X0208802Y0112024D01*
X0208802Y0112126D02*
X0209402Y0112126D01*
X0209402Y0112725D02*
X0208802Y0112725D01*
X0208802Y0113323D02*
X0209402Y0113323D01*
X0209402Y0113922D02*
X0208802Y0113922D01*
X0208802Y0114520D02*
X0209402Y0114520D01*
X0205364Y0114520D02*
X0197833Y0114520D01*
X0197235Y0113922D02*
X0204947Y0113922D01*
X0204878Y0113323D02*
X0196636Y0113323D01*
X0196038Y0112725D02*
X0204878Y0112725D01*
X0204878Y0112126D02*
X0195439Y0112126D01*
X0191828Y0113323D02*
X0142905Y0113323D01*
X0142905Y0112725D02*
X0191229Y0112725D01*
X0190631Y0112126D02*
X0142905Y0112126D01*
X0142905Y0111528D02*
X0190032Y0111528D01*
X0189434Y0110929D02*
X0143350Y0110929D01*
X0142852Y0113922D02*
X0192426Y0113922D01*
X0193025Y0114520D02*
X0132559Y0114520D01*
X0133157Y0113922D02*
X0135312Y0113922D01*
X0131960Y0115119D02*
X0193623Y0115119D01*
X0194222Y0115717D02*
X0131695Y0115717D01*
X0131695Y0116316D02*
X0194820Y0116316D01*
X0195419Y0116914D02*
X0131695Y0116914D01*
X0131695Y0117513D02*
X0196017Y0117513D01*
X0196616Y0118111D02*
X0131695Y0118111D01*
X0131695Y0118710D02*
X0197214Y0118710D01*
X0197813Y0119308D02*
X0131695Y0119308D01*
X0131819Y0119907D02*
X0198411Y0119907D01*
X0199010Y0120505D02*
X0132083Y0120505D01*
X0132095Y0121104D02*
X0199608Y0121104D01*
X0200207Y0121702D02*
X0132095Y0121702D01*
X0132095Y0122301D02*
X0200805Y0122301D01*
X0201404Y0122899D02*
X0132095Y0122899D01*
X0132095Y0124096D02*
X0202601Y0124096D01*
X0202002Y0123498D02*
X0128142Y0123498D01*
X0128142Y0124096D02*
X0127542Y0124096D01*
X0127542Y0123498D02*
X0069681Y0123498D01*
X0069681Y0124096D02*
X0123589Y0124096D01*
X0123589Y0124695D02*
X0069681Y0124695D01*
X0069681Y0125293D02*
X0123589Y0125293D01*
X0123589Y0125892D02*
X0069681Y0125892D01*
X0069681Y0126490D02*
X0123764Y0126490D01*
X0124533Y0127089D02*
X0069681Y0127089D01*
X0069681Y0127687D02*
X0206192Y0127687D01*
X0205594Y0127089D02*
X0131151Y0127089D01*
X0131919Y0126490D02*
X0204995Y0126490D01*
X0204396Y0125892D02*
X0132095Y0125892D01*
X0132095Y0125293D02*
X0203798Y0125293D01*
X0203199Y0124695D02*
X0132095Y0124695D01*
X0128142Y0124695D02*
X0127542Y0124695D01*
X0127542Y0125293D02*
X0128142Y0125293D01*
X0128142Y0125892D02*
X0127542Y0125892D01*
X0127542Y0126490D02*
X0128142Y0126490D01*
X0128142Y0127089D02*
X0127542Y0127089D01*
X0123589Y0122899D02*
X0069681Y0122899D01*
X0069681Y0122301D02*
X0123589Y0122301D01*
X0123589Y0121702D02*
X0069681Y0121702D01*
X0069681Y0121104D02*
X0123589Y0121104D01*
X0123601Y0120505D02*
X0069681Y0120505D01*
X0069681Y0119907D02*
X0123864Y0119907D01*
X0123989Y0119308D02*
X0069681Y0119308D01*
X0069681Y0118710D02*
X0123989Y0118710D01*
X0123989Y0118111D02*
X0069681Y0118111D01*
X0069681Y0117513D02*
X0123989Y0117513D01*
X0123989Y0116914D02*
X0069681Y0116914D01*
X0069681Y0116316D02*
X0123989Y0116316D01*
X0123989Y0115717D02*
X0069681Y0115717D01*
X0069681Y0115119D02*
X0123989Y0115119D01*
X0123425Y0114520D02*
X0069681Y0114520D01*
X0069681Y0113922D02*
X0122826Y0113922D01*
X0122542Y0113323D02*
X0069681Y0113323D01*
X0069681Y0112725D02*
X0122542Y0112725D01*
X0122542Y0112126D02*
X0069681Y0112126D01*
X0069681Y0111528D02*
X0122542Y0111528D01*
X0122542Y0110929D02*
X0069681Y0110929D01*
X0069681Y0110331D02*
X0122542Y0110331D01*
X0122542Y0109732D02*
X0069681Y0109732D01*
X0069681Y0109134D02*
X0122542Y0109134D01*
X0122542Y0108535D02*
X0069681Y0108535D01*
X0069681Y0107937D02*
X0122542Y0107937D01*
X0122542Y0107338D02*
X0069681Y0107338D01*
X0069681Y0106740D02*
X0122542Y0106740D01*
X0122542Y0106141D02*
X0069681Y0106141D01*
X0069681Y0105543D02*
X0122542Y0105543D01*
X0122542Y0104944D02*
X0069681Y0104944D01*
X0069681Y0104345D02*
X0122925Y0104345D01*
X0123524Y0103747D02*
X0069681Y0103747D01*
X0069681Y0103148D02*
X0124122Y0103148D01*
X0124721Y0102550D02*
X0069681Y0102550D01*
X0069681Y0101951D02*
X0124973Y0101951D01*
X0124973Y0101353D02*
X0069681Y0101353D01*
X0069681Y0100754D02*
X0124973Y0100754D01*
X0124973Y0100156D02*
X0069681Y0100156D01*
X0069681Y0099557D02*
X0124973Y0099557D01*
X0125063Y0098959D02*
X0069681Y0098959D01*
X0069681Y0098360D02*
X0135259Y0098360D01*
X0135259Y0098959D02*
X0130621Y0098959D01*
X0130710Y0099557D02*
X0135259Y0099557D01*
X0135259Y0100156D02*
X0130710Y0100156D01*
X0130710Y0100754D02*
X0135259Y0100754D01*
X0135259Y0101353D02*
X0130710Y0101353D01*
X0130710Y0101951D02*
X0135259Y0101951D01*
X0135751Y0102550D02*
X0130710Y0102550D01*
X0130710Y0103148D02*
X0135785Y0103148D01*
X0135259Y0103747D02*
X0130710Y0103747D01*
X0130490Y0104345D02*
X0135259Y0104345D01*
X0135259Y0104944D02*
X0127135Y0104944D01*
X0130511Y0105543D02*
X0135259Y0105543D01*
X0135259Y0106141D02*
X0130710Y0106141D01*
X0130710Y0106740D02*
X0135259Y0106740D01*
X0136842Y0108133D02*
X0138942Y0106033D01*
X0139082Y0105819D01*
X0136842Y0108133D02*
X0127842Y0108133D01*
X0127842Y0108280D01*
X0138942Y0100033D02*
X0139082Y0099913D01*
X0138942Y0100033D02*
X0133542Y0094633D01*
X0127842Y0094633D01*
X0127842Y0094530D01*
X0127842Y0094333D01*
X0104742Y0071233D01*
X0049542Y0071233D01*
X0039942Y0061633D01*
X0039942Y0051733D01*
X0044142Y0047533D01*
X0044142Y0044833D01*
X0044188Y0044701D01*
X0040237Y0044494D02*
X0034642Y0044494D01*
X0034642Y0043896D02*
X0040237Y0043896D01*
X0040237Y0043297D02*
X0034642Y0043297D01*
X0034642Y0042699D02*
X0040587Y0042699D01*
X0040237Y0045093D02*
X0034642Y0045093D01*
X0034642Y0045691D02*
X0040237Y0045691D01*
X0040237Y0046290D02*
X0034642Y0046290D01*
X0034642Y0046888D02*
X0042942Y0046888D01*
X0042491Y0047487D02*
X0034642Y0047487D01*
X0034642Y0048085D02*
X0041892Y0048085D01*
X0041294Y0048684D02*
X0034642Y0048684D01*
X0034642Y0049282D02*
X0040695Y0049282D01*
X0040097Y0049881D02*
X0034642Y0049881D01*
X0034642Y0050479D02*
X0039498Y0050479D01*
X0038900Y0051078D02*
X0034642Y0051078D01*
X0034642Y0051677D02*
X0038742Y0051677D01*
X0038742Y0052275D02*
X0034642Y0052275D01*
X0034642Y0052874D02*
X0038742Y0052874D01*
X0038742Y0053472D02*
X0034642Y0053472D01*
X0034642Y0054071D02*
X0038742Y0054071D01*
X0038742Y0054669D02*
X0034642Y0054669D01*
X0034642Y0055268D02*
X0038742Y0055268D01*
X0038742Y0055866D02*
X0034642Y0055866D01*
X0034642Y0056465D02*
X0038742Y0056465D01*
X0038742Y0057063D02*
X0034642Y0057063D01*
X0034642Y0057662D02*
X0038742Y0057662D01*
X0038742Y0058260D02*
X0034642Y0058260D01*
X0034642Y0058859D02*
X0038742Y0058859D01*
X0038742Y0059457D02*
X0034642Y0059457D01*
X0034642Y0060056D02*
X0038742Y0060056D01*
X0038742Y0060654D02*
X0034642Y0060654D01*
X0034642Y0061253D02*
X0038742Y0061253D01*
X0038742Y0061851D02*
X0034642Y0061851D01*
X0034642Y0062450D02*
X0039061Y0062450D01*
X0039660Y0063048D02*
X0034674Y0063048D01*
X0034722Y0063647D02*
X0040258Y0063647D01*
X0040857Y0064245D02*
X0034830Y0064245D01*
X0035025Y0064844D02*
X0041455Y0064844D01*
X0042054Y0065442D02*
X0035219Y0065442D01*
X0035414Y0066041D02*
X0042652Y0066041D01*
X0043251Y0066639D02*
X0035630Y0066639D01*
X0036065Y0067238D02*
X0043849Y0067238D01*
X0044448Y0067836D02*
X0036500Y0067836D01*
X0036935Y0068435D02*
X0045047Y0068435D01*
X0045645Y0069033D02*
X0037531Y0069033D01*
X0038355Y0069632D02*
X0046244Y0069632D01*
X0046842Y0070230D02*
X0039178Y0070230D01*
X0040756Y0070829D02*
X0047441Y0070829D01*
X0049039Y0069033D02*
X0122542Y0069033D01*
X0122542Y0068435D02*
X0048441Y0068435D01*
X0047842Y0067836D02*
X0122542Y0067836D01*
X0122542Y0067238D02*
X0047244Y0067238D01*
X0046645Y0066639D02*
X0122542Y0066639D01*
X0122542Y0066041D02*
X0046047Y0066041D01*
X0045448Y0065442D02*
X0047348Y0065442D01*
X0047457Y0065552D02*
X0046930Y0065024D01*
X0046930Y0060342D01*
X0047457Y0059815D01*
X0048942Y0059815D01*
X0048942Y0039302D01*
X0047457Y0039302D01*
X0046930Y0038774D01*
X0046930Y0034092D01*
X0047457Y0033565D01*
X0052533Y0033565D01*
X0053061Y0034092D01*
X0053061Y0038774D01*
X0052533Y0039302D01*
X0051342Y0039302D01*
X0051342Y0059815D01*
X0052533Y0059815D01*
X0053061Y0060342D01*
X0053061Y0065024D01*
X0052533Y0065552D01*
X0047457Y0065552D01*
X0046930Y0064844D02*
X0044850Y0064844D01*
X0044251Y0064245D02*
X0046930Y0064245D01*
X0046930Y0063647D02*
X0043653Y0063647D01*
X0043054Y0063048D02*
X0046930Y0063048D01*
X0046930Y0062450D02*
X0042455Y0062450D01*
X0041857Y0061851D02*
X0046930Y0061851D01*
X0046930Y0061253D02*
X0041258Y0061253D01*
X0041142Y0060654D02*
X0046930Y0060654D01*
X0047216Y0060056D02*
X0041142Y0060056D01*
X0041142Y0059457D02*
X0048942Y0059457D01*
X0048942Y0058859D02*
X0041142Y0058859D01*
X0041142Y0058260D02*
X0048942Y0058260D01*
X0048942Y0057662D02*
X0041142Y0057662D01*
X0041142Y0057063D02*
X0048942Y0057063D01*
X0048942Y0056465D02*
X0041142Y0056465D01*
X0041142Y0055866D02*
X0048942Y0055866D01*
X0048942Y0055268D02*
X0048255Y0055268D01*
X0048525Y0054669D02*
X0048942Y0054669D01*
X0048942Y0054071D02*
X0048539Y0054071D01*
X0048539Y0053472D02*
X0048942Y0053472D01*
X0048942Y0052874D02*
X0044488Y0052874D01*
X0044488Y0053472D02*
X0043888Y0053472D01*
X0043888Y0054071D02*
X0044488Y0054071D01*
X0044488Y0054669D02*
X0043888Y0054669D01*
X0043888Y0055268D02*
X0044488Y0055268D01*
X0044488Y0052275D02*
X0043888Y0052275D01*
X0043888Y0051677D02*
X0044488Y0051677D01*
X0044488Y0051078D02*
X0043888Y0051078D01*
X0042892Y0050479D02*
X0048942Y0050479D01*
X0048942Y0049881D02*
X0043491Y0049881D01*
X0044089Y0049282D02*
X0048942Y0049282D01*
X0048942Y0048684D02*
X0044688Y0048684D01*
X0045286Y0048085D02*
X0048942Y0048085D01*
X0048942Y0047487D02*
X0045342Y0047487D01*
X0045342Y0046888D02*
X0048942Y0046888D01*
X0048942Y0046290D02*
X0048139Y0046290D01*
X0048139Y0045691D02*
X0048942Y0045691D01*
X0048942Y0045093D02*
X0048139Y0045093D01*
X0048139Y0044494D02*
X0048942Y0044494D01*
X0048942Y0043896D02*
X0048139Y0043896D01*
X0048139Y0043297D02*
X0048942Y0043297D01*
X0048942Y0042699D02*
X0047790Y0042699D01*
X0048942Y0042100D02*
X0034642Y0042100D01*
X0034642Y0041502D02*
X0048942Y0041502D01*
X0048942Y0040903D02*
X0034642Y0040903D01*
X0034642Y0040305D02*
X0048942Y0040305D01*
X0048942Y0039706D02*
X0034642Y0039706D01*
X0034642Y0039108D02*
X0047263Y0039108D01*
X0046930Y0038509D02*
X0034675Y0038509D01*
X0034722Y0037911D02*
X0046930Y0037911D01*
X0046930Y0037312D02*
X0034833Y0037312D01*
X0035028Y0036714D02*
X0046930Y0036714D01*
X0046930Y0036115D02*
X0035222Y0036115D01*
X0035417Y0035517D02*
X0046930Y0035517D01*
X0046930Y0034918D02*
X0035637Y0034918D01*
X0036072Y0034320D02*
X0046930Y0034320D01*
X0047301Y0033721D02*
X0036507Y0033721D01*
X0049995Y0036433D02*
X0050142Y0036433D01*
X0050142Y0062533D01*
X0049995Y0062683D01*
X0053061Y0062450D02*
X0056388Y0062450D01*
X0056388Y0062383D02*
X0053223Y0062383D01*
X0053223Y0060543D01*
X0053312Y0060213D01*
X0053483Y0059916D01*
X0053725Y0059674D01*
X0054021Y0059503D01*
X0054352Y0059415D01*
X0056388Y0059415D01*
X0056388Y0062383D01*
X0056388Y0062983D01*
X0053223Y0062983D01*
X0053223Y0064823D01*
X0053312Y0065153D01*
X0053483Y0065450D01*
X0053725Y0065692D01*
X0054021Y0065863D01*
X0054352Y0065952D01*
X0056388Y0065952D01*
X0056388Y0062983D01*
X0056988Y0062983D01*
X0056988Y0065952D01*
X0059025Y0065952D01*
X0059355Y0065863D01*
X0059652Y0065692D01*
X0059894Y0065450D01*
X0060065Y0065153D01*
X0060154Y0064823D01*
X0060154Y0062983D01*
X0056988Y0062983D01*
X0056988Y0062383D01*
X0056988Y0059415D01*
X0059025Y0059415D01*
X0059355Y0059503D01*
X0059652Y0059674D01*
X0059894Y0059916D01*
X0060065Y0060213D01*
X0060154Y0060543D01*
X0060154Y0062383D01*
X0056988Y0062383D01*
X0056388Y0062383D01*
X0056388Y0061851D02*
X0056988Y0061851D01*
X0056988Y0061253D02*
X0056388Y0061253D01*
X0056388Y0060654D02*
X0056988Y0060654D01*
X0056988Y0060056D02*
X0056388Y0060056D01*
X0056388Y0059457D02*
X0056988Y0059457D01*
X0059184Y0059457D02*
X0124973Y0059457D01*
X0124973Y0058859D02*
X0051342Y0058859D01*
X0051342Y0059457D02*
X0054193Y0059457D01*
X0053402Y0060056D02*
X0052775Y0060056D01*
X0053061Y0060654D02*
X0053223Y0060654D01*
X0053223Y0061253D02*
X0053061Y0061253D01*
X0053061Y0061851D02*
X0053223Y0061851D01*
X0053223Y0063048D02*
X0053061Y0063048D01*
X0053061Y0063647D02*
X0053223Y0063647D01*
X0053223Y0064245D02*
X0053061Y0064245D01*
X0053061Y0064844D02*
X0053229Y0064844D01*
X0053478Y0065442D02*
X0052643Y0065442D01*
X0056388Y0065442D02*
X0056988Y0065442D01*
X0056988Y0064844D02*
X0056388Y0064844D01*
X0056388Y0064245D02*
X0056988Y0064245D01*
X0056988Y0063647D02*
X0056388Y0063647D01*
X0056388Y0063048D02*
X0056988Y0063048D01*
X0056988Y0062450D02*
X0123421Y0062450D01*
X0122822Y0063048D02*
X0060154Y0063048D01*
X0060154Y0063647D02*
X0122542Y0063647D01*
X0122542Y0064245D02*
X0060154Y0064245D01*
X0060148Y0064844D02*
X0122542Y0064844D01*
X0122542Y0065442D02*
X0059898Y0065442D01*
X0060154Y0061851D02*
X0124020Y0061851D01*
X0124618Y0061253D02*
X0060154Y0061253D01*
X0060154Y0060654D02*
X0124973Y0060654D01*
X0124973Y0060056D02*
X0059974Y0060056D01*
X0059071Y0055345D02*
X0058544Y0054818D01*
X0058544Y0051513D01*
X0059071Y0050986D01*
X0065919Y0050986D01*
X0066447Y0051513D01*
X0066447Y0054818D01*
X0065919Y0055345D01*
X0059071Y0055345D01*
X0058994Y0055268D02*
X0051342Y0055268D01*
X0051342Y0055866D02*
X0125542Y0055866D01*
X0125542Y0056465D02*
X0051342Y0056465D01*
X0051342Y0057063D02*
X0125542Y0057063D01*
X0125110Y0057662D02*
X0051342Y0057662D01*
X0051342Y0058260D02*
X0124973Y0058260D01*
X0128942Y0057063D02*
X0145875Y0057063D01*
X0146473Y0057662D02*
X0130573Y0057662D01*
X0130710Y0058260D02*
X0147072Y0058260D01*
X0147670Y0058859D02*
X0130710Y0058859D01*
X0128942Y0056465D02*
X0145276Y0056465D01*
X0144678Y0055866D02*
X0128942Y0055866D01*
X0128942Y0055268D02*
X0144079Y0055268D01*
X0143481Y0054669D02*
X0128942Y0054669D01*
X0128942Y0054071D02*
X0142882Y0054071D01*
X0142284Y0053472D02*
X0128385Y0053472D01*
X0127786Y0052874D02*
X0141685Y0052874D01*
X0141087Y0052275D02*
X0127188Y0052275D01*
X0126589Y0051677D02*
X0140488Y0051677D01*
X0139890Y0051078D02*
X0125991Y0051078D01*
X0125392Y0050479D02*
X0139291Y0050479D01*
X0138693Y0049881D02*
X0124794Y0049881D01*
X0124195Y0049282D02*
X0138094Y0049282D01*
X0137496Y0048684D02*
X0123597Y0048684D01*
X0122998Y0048085D02*
X0136897Y0048085D01*
X0136299Y0047487D02*
X0122400Y0047487D01*
X0121801Y0046888D02*
X0135700Y0046888D01*
X0135102Y0046290D02*
X0121203Y0046290D01*
X0120604Y0045691D02*
X0134503Y0045691D01*
X0133905Y0045093D02*
X0120006Y0045093D01*
X0119407Y0044494D02*
X0133306Y0044494D01*
X0132708Y0043896D02*
X0118809Y0043896D01*
X0118210Y0043297D02*
X0132109Y0043297D01*
X0131511Y0042699D02*
X0117612Y0042699D01*
X0117013Y0042100D02*
X0130912Y0042100D01*
X0130313Y0041502D02*
X0116415Y0041502D01*
X0115816Y0040903D02*
X0129715Y0040903D01*
X0129116Y0040305D02*
X0115218Y0040305D01*
X0114619Y0039706D02*
X0128518Y0039706D01*
X0127919Y0039108D02*
X0114021Y0039108D01*
X0113422Y0038509D02*
X0127321Y0038509D01*
X0126722Y0037911D02*
X0093041Y0037911D01*
X0093041Y0037312D02*
X0126124Y0037312D01*
X0125525Y0036714D02*
X0093041Y0036714D01*
X0093041Y0036115D02*
X0124927Y0036115D01*
X0125142Y0034633D02*
X0154842Y0064333D01*
X0208842Y0064333D01*
X0209102Y0064480D01*
X0205278Y0063048D02*
X0155254Y0063048D01*
X0154655Y0062450D02*
X0205278Y0062450D01*
X0205763Y0061851D02*
X0154057Y0061851D01*
X0153458Y0061253D02*
X0218742Y0061253D01*
X0218742Y0061851D02*
X0212440Y0061851D01*
X0212925Y0062450D02*
X0218742Y0062450D01*
X0218742Y0063048D02*
X0212925Y0063048D01*
X0212925Y0063647D02*
X0218742Y0063647D01*
X0218742Y0064245D02*
X0212925Y0064245D01*
X0212925Y0064844D02*
X0218742Y0064844D01*
X0218336Y0065442D02*
X0212925Y0065442D01*
X0212925Y0066041D02*
X0217737Y0066041D01*
X0217139Y0066639D02*
X0213445Y0066639D01*
X0214044Y0067238D02*
X0216540Y0067238D01*
X0215942Y0067836D02*
X0214642Y0067836D01*
X0215241Y0068435D02*
X0215343Y0068435D01*
X0215292Y0070183D02*
X0212142Y0073333D01*
X0209102Y0076291D02*
X0209142Y0076333D01*
X0225342Y0076333D01*
X0225495Y0076183D01*
X0222430Y0078011D02*
X0212925Y0078011D01*
X0212751Y0078610D02*
X0222515Y0078610D01*
X0229842Y0082201D02*
X0230742Y0082201D01*
X0230742Y0082799D02*
X0229842Y0082799D01*
X0229842Y0083398D02*
X0230742Y0083398D01*
X0230742Y0083996D02*
X0229842Y0083996D01*
X0229842Y0084595D02*
X0230742Y0084595D01*
X0230742Y0085193D02*
X0229842Y0085193D01*
X0229842Y0085792D02*
X0230742Y0085792D01*
X0230742Y0086390D02*
X0229842Y0086390D01*
X0229842Y0086989D02*
X0230742Y0086989D01*
X0230742Y0087587D02*
X0229842Y0087587D01*
X0229842Y0088186D02*
X0230742Y0088186D01*
X0230742Y0088784D02*
X0229842Y0088784D01*
X0229842Y0089383D02*
X0230742Y0089383D01*
X0230742Y0089981D02*
X0229842Y0089981D01*
X0229842Y0090580D02*
X0230742Y0090580D01*
X0230742Y0091178D02*
X0229842Y0091178D01*
X0229842Y0091777D02*
X0230742Y0091777D01*
X0230742Y0092375D02*
X0229297Y0092375D01*
X0229569Y0092974D02*
X0230742Y0092974D01*
X0230742Y0093572D02*
X0229569Y0093572D01*
X0229569Y0094171D02*
X0230742Y0094171D01*
X0230742Y0094769D02*
X0229569Y0094769D01*
X0229569Y0095368D02*
X0230742Y0095368D01*
X0230742Y0095966D02*
X0229569Y0095966D01*
X0229569Y0096565D02*
X0230742Y0096565D01*
X0230742Y0097163D02*
X0229569Y0097163D01*
X0229569Y0097762D02*
X0230742Y0097762D01*
X0230742Y0098360D02*
X0229569Y0098360D01*
X0229569Y0098959D02*
X0230742Y0098959D01*
X0230742Y0099557D02*
X0229569Y0099557D01*
X0229569Y0100156D02*
X0230742Y0100156D01*
X0230742Y0100754D02*
X0229569Y0100754D01*
X0229569Y0101353D02*
X0230742Y0101353D01*
X0230742Y0101951D02*
X0229569Y0101951D01*
X0229722Y0102550D02*
X0230742Y0102550D01*
X0230742Y0103148D02*
X0229967Y0103148D01*
X0229969Y0103747D02*
X0230742Y0103747D01*
X0230742Y0104345D02*
X0229969Y0104345D01*
X0229969Y0104944D02*
X0230742Y0104944D01*
X0230435Y0105543D02*
X0229878Y0105543D01*
X0229837Y0106141D02*
X0229569Y0106141D01*
X0237042Y0112033D02*
X0237042Y0058933D01*
X0239292Y0056683D01*
X0237342Y0054733D01*
X0237342Y0051133D01*
X0240042Y0048433D01*
X0240042Y0044233D01*
X0240066Y0044173D01*
X0240942Y0036733D02*
X0247842Y0043633D01*
X0247842Y0043780D01*
X0252042Y0043896D02*
X0265723Y0043896D01*
X0265723Y0044494D02*
X0252042Y0044494D01*
X0252042Y0045093D02*
X0265723Y0045093D01*
X0265723Y0045691D02*
X0252042Y0045691D01*
X0252042Y0046290D02*
X0265723Y0046290D01*
X0266044Y0046888D02*
X0252042Y0046888D01*
X0252042Y0047487D02*
X0280342Y0047487D01*
X0280342Y0048085D02*
X0252042Y0048085D01*
X0252042Y0048684D02*
X0280342Y0048684D01*
X0279988Y0049282D02*
X0252042Y0049282D01*
X0252042Y0049881D02*
X0279390Y0049881D01*
X0275645Y0050479D02*
X0271391Y0050479D01*
X0271460Y0051078D02*
X0275576Y0051078D01*
X0275576Y0051677D02*
X0271460Y0051677D01*
X0271460Y0052275D02*
X0275576Y0052275D01*
X0275576Y0052874D02*
X0271460Y0052874D01*
X0271460Y0053472D02*
X0275576Y0053472D01*
X0275576Y0054071D02*
X0271460Y0054071D01*
X0271460Y0054669D02*
X0275576Y0054669D01*
X0275576Y0055268D02*
X0271460Y0055268D01*
X0271219Y0055866D02*
X0275817Y0055866D01*
X0275754Y0057063D02*
X0271282Y0057063D01*
X0271460Y0057662D02*
X0275576Y0057662D01*
X0275576Y0058260D02*
X0271460Y0058260D01*
X0268842Y0059833D02*
X0268592Y0059780D01*
X0268842Y0059833D02*
X0278442Y0059833D01*
X0278444Y0059780D01*
X0278969Y0056465D02*
X0267907Y0056465D01*
X0265710Y0055268D02*
X0252042Y0055268D01*
X0252042Y0055866D02*
X0265112Y0055866D01*
X0264513Y0056465D02*
X0252042Y0056465D01*
X0252042Y0057063D02*
X0263915Y0057063D01*
X0263316Y0057662D02*
X0252042Y0057662D01*
X0252042Y0058260D02*
X0262718Y0058260D01*
X0262119Y0058859D02*
X0252042Y0058859D01*
X0252042Y0059457D02*
X0261521Y0059457D01*
X0260922Y0060056D02*
X0252042Y0060056D01*
X0252042Y0060654D02*
X0260324Y0060654D01*
X0259725Y0061253D02*
X0252042Y0061253D01*
X0252042Y0061851D02*
X0259127Y0061851D01*
X0258528Y0062450D02*
X0252042Y0062450D01*
X0252024Y0063048D02*
X0257930Y0063048D01*
X0257331Y0063647D02*
X0251425Y0063647D01*
X0250827Y0064245D02*
X0256733Y0064245D01*
X0256134Y0064844D02*
X0239442Y0064844D01*
X0239442Y0065442D02*
X0255536Y0065442D01*
X0254937Y0066041D02*
X0239442Y0066041D01*
X0239442Y0066639D02*
X0254339Y0066639D01*
X0253740Y0067238D02*
X0239442Y0067238D01*
X0239442Y0067836D02*
X0253142Y0067836D01*
X0252543Y0068435D02*
X0239442Y0068435D01*
X0239442Y0069033D02*
X0251944Y0069033D01*
X0251346Y0069632D02*
X0239442Y0069632D01*
X0239442Y0070230D02*
X0250747Y0070230D01*
X0250149Y0070829D02*
X0239442Y0070829D01*
X0239442Y0071427D02*
X0249550Y0071427D01*
X0248952Y0072026D02*
X0239442Y0072026D01*
X0239442Y0072624D02*
X0248353Y0072624D01*
X0247755Y0073223D02*
X0239442Y0073223D01*
X0239442Y0073821D02*
X0247156Y0073821D01*
X0246558Y0074420D02*
X0239442Y0074420D01*
X0239442Y0075018D02*
X0245959Y0075018D01*
X0245361Y0075617D02*
X0239442Y0075617D01*
X0239442Y0076215D02*
X0244762Y0076215D01*
X0244164Y0076814D02*
X0239442Y0076814D01*
X0239442Y0077412D02*
X0243565Y0077412D01*
X0242967Y0078011D02*
X0239442Y0078011D01*
X0239442Y0078610D02*
X0242368Y0078610D01*
X0241770Y0079208D02*
X0239442Y0079208D01*
X0239442Y0079807D02*
X0241171Y0079807D01*
X0240573Y0080405D02*
X0239442Y0080405D01*
X0239442Y0081004D02*
X0239974Y0081004D01*
X0239442Y0083233D02*
X0239442Y0104533D01*
X0243942Y0109033D01*
X0246942Y0109033D01*
X0247019Y0109181D01*
X0238242Y0112633D02*
X0238242Y0062833D01*
X0240342Y0060733D01*
X0240066Y0060423D01*
X0240342Y0060433D01*
X0242742Y0060433D01*
X0245442Y0063133D01*
X0250242Y0063133D01*
X0250842Y0062533D01*
X0250842Y0040333D01*
X0247842Y0037333D01*
X0247842Y0037087D01*
X0250710Y0037312D02*
X0251824Y0037312D01*
X0251225Y0036714D02*
X0250710Y0036714D01*
X0250710Y0037911D02*
X0252422Y0037911D01*
X0253021Y0038509D02*
X0250715Y0038509D01*
X0252042Y0041502D02*
X0265723Y0041502D01*
X0265723Y0042100D02*
X0252042Y0042100D01*
X0252042Y0042699D02*
X0265723Y0042699D01*
X0265723Y0043297D02*
X0252042Y0043297D01*
X0252042Y0050479D02*
X0265792Y0050479D01*
X0265723Y0051078D02*
X0252042Y0051078D01*
X0252042Y0051677D02*
X0265723Y0051677D01*
X0265723Y0052275D02*
X0252042Y0052275D01*
X0252042Y0052874D02*
X0265723Y0052874D01*
X0265723Y0053472D02*
X0252042Y0053472D01*
X0252042Y0054071D02*
X0265723Y0054071D01*
X0265723Y0054669D02*
X0252042Y0054669D01*
X0247842Y0053337D02*
X0247842Y0053233D01*
X0240342Y0053233D01*
X0240066Y0052943D01*
X0239292Y0056683D02*
X0240642Y0058033D01*
X0246042Y0058033D01*
X0247842Y0059833D01*
X0247842Y0060030D01*
X0243061Y0062450D02*
X0242462Y0062450D01*
X0243660Y0063048D02*
X0239724Y0063048D01*
X0239442Y0063647D02*
X0244258Y0063647D01*
X0244857Y0064245D02*
X0239442Y0064245D01*
X0230617Y0056683D02*
X0230442Y0056833D01*
X0225942Y0056833D01*
X0222942Y0059833D01*
X0222842Y0060030D01*
X0222642Y0060133D01*
X0222642Y0063433D01*
X0222042Y0064033D01*
X0218742Y0060654D02*
X0152860Y0060654D01*
X0152261Y0060056D02*
X0218742Y0060056D01*
X0218742Y0059457D02*
X0151663Y0059457D01*
X0151064Y0058859D02*
X0218742Y0058859D01*
X0218742Y0058260D02*
X0150466Y0058260D01*
X0149867Y0057662D02*
X0218742Y0057662D01*
X0218742Y0057063D02*
X0149269Y0057063D01*
X0148670Y0056465D02*
X0218742Y0056465D01*
X0218742Y0055866D02*
X0148072Y0055866D01*
X0147473Y0055268D02*
X0218742Y0055268D01*
X0218742Y0054669D02*
X0146875Y0054669D01*
X0146276Y0054071D02*
X0218742Y0054071D01*
X0218742Y0053472D02*
X0145678Y0053472D01*
X0145079Y0052874D02*
X0218742Y0052874D01*
X0218742Y0052275D02*
X0144481Y0052275D01*
X0143961Y0051677D02*
X0143882Y0051677D01*
X0143087Y0050479D02*
X0142685Y0050479D01*
X0143087Y0049881D02*
X0142087Y0049881D01*
X0141488Y0049282D02*
X0147138Y0049282D01*
X0147138Y0048865D02*
X0143087Y0048865D01*
X0143087Y0047715D01*
X0143176Y0047384D01*
X0143347Y0047088D01*
X0143589Y0046846D01*
X0143885Y0046674D01*
X0144216Y0046586D01*
X0147138Y0046586D01*
X0147138Y0048865D01*
X0147138Y0048684D02*
X0147738Y0048684D01*
X0147738Y0049282D02*
X0161794Y0049282D01*
X0161794Y0048684D02*
X0151789Y0048684D01*
X0151789Y0048085D02*
X0161794Y0048085D01*
X0161794Y0047513D02*
X0162321Y0046986D01*
X0169169Y0046986D01*
X0169697Y0047513D01*
X0169697Y0050818D01*
X0169169Y0051345D01*
X0162321Y0051345D01*
X0161794Y0050818D01*
X0161794Y0047513D01*
X0161820Y0047487D02*
X0151728Y0047487D01*
X0151330Y0046888D02*
X0179796Y0046888D01*
X0179839Y0046846D02*
X0180135Y0046674D01*
X0180466Y0046586D01*
X0183388Y0046586D01*
X0183388Y0048865D01*
X0183988Y0048865D01*
X0183988Y0046586D01*
X0186911Y0046586D01*
X0187241Y0046674D01*
X0187538Y0046846D01*
X0187780Y0047088D01*
X0187951Y0047384D01*
X0188039Y0047715D01*
X0188039Y0048865D01*
X0183988Y0048865D01*
X0183988Y0049465D01*
X0188039Y0049465D01*
X0188039Y0050616D01*
X0187951Y0050947D01*
X0187780Y0051243D01*
X0187538Y0051485D01*
X0187241Y0051656D01*
X0186911Y0051745D01*
X0183988Y0051745D01*
X0183988Y0049465D01*
X0183388Y0049465D01*
X0183388Y0048865D01*
X0179337Y0048865D01*
X0179337Y0047715D01*
X0179426Y0047384D01*
X0179597Y0047088D01*
X0179839Y0046846D01*
X0179398Y0047487D02*
X0169670Y0047487D01*
X0169697Y0048085D02*
X0179337Y0048085D01*
X0179337Y0048684D02*
X0169697Y0048684D01*
X0169697Y0049282D02*
X0183388Y0049282D01*
X0183388Y0049465D02*
X0179337Y0049465D01*
X0179337Y0050616D01*
X0179426Y0050947D01*
X0179597Y0051243D01*
X0179839Y0051485D01*
X0180135Y0051656D01*
X0180466Y0051745D01*
X0183388Y0051745D01*
X0183388Y0049465D01*
X0183388Y0049881D02*
X0183988Y0049881D01*
X0183988Y0050479D02*
X0183388Y0050479D01*
X0183388Y0051078D02*
X0183988Y0051078D01*
X0183988Y0051677D02*
X0183388Y0051677D01*
X0180211Y0051677D02*
X0150916Y0051677D01*
X0151625Y0051078D02*
X0162054Y0051078D01*
X0161794Y0050479D02*
X0151789Y0050479D01*
X0151789Y0049881D02*
X0161794Y0049881D01*
X0169436Y0051078D02*
X0179502Y0051078D01*
X0179337Y0050479D02*
X0169697Y0050479D01*
X0169697Y0049881D02*
X0179337Y0049881D01*
X0183388Y0048684D02*
X0183988Y0048684D01*
X0183988Y0049282D02*
X0198044Y0049282D01*
X0198044Y0048684D02*
X0188039Y0048684D01*
X0188039Y0048085D02*
X0198044Y0048085D01*
X0198044Y0047513D02*
X0198571Y0046986D01*
X0205419Y0046986D01*
X0205947Y0047513D01*
X0205947Y0050818D01*
X0205419Y0051345D01*
X0198571Y0051345D01*
X0198044Y0050818D01*
X0198044Y0047513D01*
X0198070Y0047487D02*
X0187978Y0047487D01*
X0187580Y0046888D02*
X0218742Y0046888D01*
X0218742Y0047487D02*
X0205920Y0047487D01*
X0205947Y0048085D02*
X0218742Y0048085D01*
X0218742Y0048684D02*
X0205947Y0048684D01*
X0205947Y0049282D02*
X0218742Y0049282D01*
X0218742Y0049881D02*
X0205947Y0049881D01*
X0205947Y0050479D02*
X0218742Y0050479D01*
X0218742Y0051078D02*
X0205686Y0051078D01*
X0198304Y0051078D02*
X0187875Y0051078D01*
X0188039Y0050479D02*
X0198044Y0050479D01*
X0198044Y0049881D02*
X0188039Y0049881D01*
X0187166Y0051677D02*
X0218742Y0051677D01*
X0219942Y0045133D02*
X0219942Y0041233D01*
X0223242Y0037933D01*
X0222842Y0037087D01*
X0222942Y0037333D01*
X0225942Y0040333D01*
X0230442Y0040333D01*
X0230617Y0040433D01*
X0227946Y0039108D02*
X0226414Y0039108D01*
X0225815Y0038509D02*
X0228119Y0038509D01*
X0225710Y0037911D02*
X0232667Y0037911D01*
X0233266Y0037312D02*
X0225710Y0037312D01*
X0225710Y0036714D02*
X0233864Y0036714D01*
X0234463Y0036115D02*
X0225710Y0036115D01*
X0225710Y0035517D02*
X0235061Y0035517D01*
X0235660Y0034918D02*
X0225710Y0034918D01*
X0225482Y0034320D02*
X0236258Y0034320D01*
X0240066Y0036693D02*
X0240342Y0036733D01*
X0240942Y0036733D01*
X0219973Y0039108D02*
X0205947Y0039108D01*
X0205947Y0039048D02*
X0205419Y0038521D01*
X0198571Y0038521D01*
X0198044Y0039048D01*
X0198044Y0042353D01*
X0198571Y0042880D01*
X0205419Y0042880D01*
X0205947Y0042353D01*
X0205947Y0039048D01*
X0205947Y0039706D02*
X0219772Y0039706D01*
X0219173Y0040305D02*
X0205947Y0040305D01*
X0205947Y0040903D02*
X0218742Y0040903D01*
X0218742Y0041502D02*
X0205947Y0041502D01*
X0205947Y0042100D02*
X0218742Y0042100D01*
X0218742Y0042699D02*
X0205601Y0042699D01*
X0198390Y0042699D02*
X0187294Y0042699D01*
X0187639Y0042100D02*
X0198044Y0042100D01*
X0198044Y0041502D02*
X0187639Y0041502D01*
X0187639Y0040903D02*
X0198044Y0040903D01*
X0198044Y0040305D02*
X0187639Y0040305D01*
X0187639Y0039706D02*
X0198044Y0039706D01*
X0198044Y0039108D02*
X0187639Y0039108D01*
X0183688Y0040701D02*
X0183642Y0040933D01*
X0181542Y0043033D01*
X0159642Y0043033D01*
X0161080Y0041502D02*
X0161794Y0041502D01*
X0161794Y0040903D02*
X0156209Y0040903D01*
X0155611Y0040305D02*
X0161794Y0040305D01*
X0161794Y0039706D02*
X0151389Y0039706D01*
X0151389Y0039108D02*
X0161794Y0039108D01*
X0158203Y0041502D02*
X0156808Y0041502D01*
X0157406Y0042100D02*
X0157605Y0042100D01*
X0155808Y0043896D02*
X0136102Y0043896D01*
X0136700Y0044494D02*
X0156406Y0044494D01*
X0157005Y0045093D02*
X0137299Y0045093D01*
X0137897Y0045691D02*
X0157603Y0045691D01*
X0158202Y0046290D02*
X0138496Y0046290D01*
X0139094Y0046888D02*
X0143546Y0046888D01*
X0143148Y0047487D02*
X0139693Y0047487D01*
X0140291Y0048085D02*
X0143087Y0048085D01*
X0143087Y0048684D02*
X0140890Y0048684D01*
X0147138Y0048085D02*
X0147738Y0048085D01*
X0147738Y0047487D02*
X0147138Y0047487D01*
X0147138Y0046888D02*
X0147738Y0046888D01*
X0147738Y0049881D02*
X0147138Y0049881D01*
X0147138Y0050479D02*
X0147738Y0050479D01*
X0147738Y0051078D02*
X0147138Y0051078D01*
X0147138Y0051677D02*
X0147738Y0051677D01*
X0148269Y0059457D02*
X0143370Y0059457D01*
X0143969Y0060056D02*
X0148867Y0060056D01*
X0149466Y0060654D02*
X0144567Y0060654D01*
X0145142Y0061253D02*
X0150064Y0061253D01*
X0150663Y0061851D02*
X0145142Y0061851D01*
X0145142Y0062450D02*
X0151261Y0062450D01*
X0151860Y0063048D02*
X0145142Y0063048D01*
X0145142Y0063647D02*
X0152458Y0063647D01*
X0153057Y0064245D02*
X0145142Y0064245D01*
X0145142Y0064844D02*
X0153655Y0064844D01*
X0154254Y0065442D02*
X0145142Y0065442D01*
X0145142Y0066041D02*
X0205278Y0066041D01*
X0202139Y0066639D02*
X0145142Y0066639D01*
X0145142Y0067238D02*
X0201540Y0067238D01*
X0200942Y0067836D02*
X0145142Y0067836D01*
X0145142Y0068435D02*
X0200343Y0068435D01*
X0199744Y0069033D02*
X0145142Y0069033D01*
X0145142Y0069632D02*
X0199146Y0069632D01*
X0198547Y0070230D02*
X0145142Y0070230D01*
X0145142Y0070829D02*
X0197949Y0070829D01*
X0197350Y0071427D02*
X0145142Y0071427D01*
X0145142Y0072026D02*
X0196752Y0072026D01*
X0196542Y0072624D02*
X0145142Y0072624D01*
X0145142Y0073223D02*
X0196542Y0073223D01*
X0196542Y0073821D02*
X0191892Y0073821D01*
X0191892Y0073559D02*
X0191716Y0073383D01*
X0168968Y0073383D01*
X0168792Y0073559D01*
X0168792Y0096307D01*
X0168968Y0096483D01*
X0191716Y0096483D01*
X0191892Y0096307D01*
X0191892Y0073559D01*
X0191892Y0074420D02*
X0196542Y0074420D01*
X0196542Y0075018D02*
X0191892Y0075018D01*
X0191892Y0075617D02*
X0196542Y0075617D01*
X0196542Y0076215D02*
X0191892Y0076215D01*
X0191892Y0076814D02*
X0196542Y0076814D01*
X0196542Y0077412D02*
X0191892Y0077412D01*
X0191892Y0078011D02*
X0196542Y0078011D01*
X0196542Y0078610D02*
X0191892Y0078610D01*
X0191892Y0079208D02*
X0196542Y0079208D01*
X0196542Y0079807D02*
X0191892Y0079807D01*
X0191892Y0080405D02*
X0196542Y0080405D01*
X0196542Y0081004D02*
X0191892Y0081004D01*
X0191892Y0081602D02*
X0196542Y0081602D01*
X0196542Y0082201D02*
X0191892Y0082201D01*
X0191892Y0082799D02*
X0196542Y0082799D01*
X0196542Y0083398D02*
X0191892Y0083398D01*
X0191892Y0083996D02*
X0196542Y0083996D01*
X0196542Y0084595D02*
X0191892Y0084595D01*
X0191892Y0085193D02*
X0196542Y0085193D01*
X0196542Y0085792D02*
X0191892Y0085792D01*
X0191892Y0086390D02*
X0196542Y0086390D01*
X0196542Y0086989D02*
X0191892Y0086989D01*
X0191892Y0087587D02*
X0196542Y0087587D01*
X0196542Y0088186D02*
X0191892Y0088186D01*
X0191892Y0088784D02*
X0196542Y0088784D01*
X0196542Y0089383D02*
X0191892Y0089383D01*
X0191892Y0089981D02*
X0196542Y0089981D01*
X0196542Y0090580D02*
X0191892Y0090580D01*
X0191892Y0091178D02*
X0196542Y0091178D01*
X0196542Y0091777D02*
X0191892Y0091777D01*
X0191892Y0092375D02*
X0196542Y0092375D01*
X0196542Y0092974D02*
X0191892Y0092974D01*
X0191892Y0093572D02*
X0196542Y0093572D01*
X0196542Y0094171D02*
X0191892Y0094171D01*
X0191892Y0094769D02*
X0196542Y0094769D01*
X0196780Y0095368D02*
X0191892Y0095368D01*
X0191892Y0095966D02*
X0197378Y0095966D01*
X0197977Y0096565D02*
X0145142Y0096565D01*
X0145142Y0097163D02*
X0198575Y0097163D01*
X0199174Y0097762D02*
X0145142Y0097762D01*
X0145142Y0098360D02*
X0199772Y0098360D01*
X0200371Y0098959D02*
X0145142Y0098959D01*
X0145142Y0099557D02*
X0200969Y0099557D01*
X0201568Y0100156D02*
X0145142Y0100156D01*
X0145142Y0100754D02*
X0202166Y0100754D01*
X0202765Y0101353D02*
X0145142Y0101353D01*
X0145142Y0101951D02*
X0203363Y0101951D01*
X0203962Y0102550D02*
X0145142Y0102550D01*
X0145142Y0103148D02*
X0204560Y0103148D01*
X0205159Y0103747D02*
X0145142Y0103747D01*
X0145142Y0104345D02*
X0205278Y0104345D01*
X0205278Y0104944D02*
X0145142Y0104944D01*
X0145142Y0105543D02*
X0205278Y0105543D01*
X0205278Y0106141D02*
X0145142Y0106141D01*
X0145142Y0106740D02*
X0205278Y0106740D01*
X0225665Y0114181D02*
X0225942Y0114133D01*
X0234942Y0114133D01*
X0237042Y0112033D01*
X0238242Y0112633D02*
X0234342Y0116533D01*
X0225942Y0116533D01*
X0225665Y0116685D01*
X0239442Y0122301D02*
X0205614Y0122301D01*
X0206212Y0122899D02*
X0239442Y0122899D01*
X0239442Y0123498D02*
X0206811Y0123498D01*
X0207409Y0124096D02*
X0239535Y0124096D01*
X0239842Y0124695D02*
X0208008Y0124695D01*
X0208606Y0125293D02*
X0239842Y0125293D01*
X0239842Y0125892D02*
X0209205Y0125892D01*
X0209803Y0126490D02*
X0239842Y0126490D01*
X0239842Y0127089D02*
X0210402Y0127089D01*
X0211000Y0127687D02*
X0239842Y0127687D01*
X0239842Y0128286D02*
X0211599Y0128286D01*
X0212197Y0128884D02*
X0239842Y0128884D01*
X0239842Y0129483D02*
X0212796Y0129483D01*
X0213394Y0130081D02*
X0239842Y0130081D01*
X0243242Y0130081D02*
X0253398Y0130081D01*
X0253398Y0129483D02*
X0243242Y0129483D01*
X0243242Y0128884D02*
X0253398Y0128884D01*
X0253398Y0128286D02*
X0243242Y0128286D01*
X0243242Y0127687D02*
X0253763Y0127687D01*
X0261920Y0127687D02*
X0264658Y0127687D01*
X0264658Y0128286D02*
X0262285Y0128286D01*
X0262285Y0128884D02*
X0264658Y0128884D01*
X0264893Y0127089D02*
X0243242Y0127089D01*
X0240003Y0121702D02*
X0205015Y0121702D01*
X0204417Y0121104D02*
X0240601Y0121104D01*
X0254258Y0116914D02*
X0282042Y0116914D01*
X0282042Y0116316D02*
X0254856Y0116316D01*
X0255455Y0115717D02*
X0282042Y0115717D01*
X0282042Y0115119D02*
X0267159Y0115119D01*
X0267460Y0114520D02*
X0282042Y0114520D01*
X0282042Y0113922D02*
X0267460Y0113922D01*
X0267460Y0113323D02*
X0282042Y0113323D01*
X0282042Y0112725D02*
X0267460Y0112725D01*
X0267460Y0112126D02*
X0282042Y0112126D01*
X0282042Y0111528D02*
X0267460Y0111528D01*
X0267460Y0110929D02*
X0282042Y0110929D01*
X0282042Y0110331D02*
X0267460Y0110331D01*
X0264592Y0112280D02*
X0264342Y0112333D01*
X0261723Y0113922D02*
X0257250Y0113922D01*
X0256652Y0114520D02*
X0261723Y0114520D01*
X0262024Y0115119D02*
X0256053Y0115119D01*
X0260837Y0108535D02*
X0262134Y0108535D01*
X0261723Y0107937D02*
X0261435Y0107937D01*
X0267460Y0104944D02*
X0272140Y0104944D01*
X0272140Y0104345D02*
X0267460Y0104345D01*
X0267460Y0103747D02*
X0277565Y0103747D01*
X0277565Y0104345D02*
X0278165Y0104345D01*
X0278165Y0104944D02*
X0277565Y0104944D01*
X0277565Y0105543D02*
X0278165Y0105543D01*
X0278165Y0106141D02*
X0277565Y0106141D01*
X0277565Y0106740D02*
X0278165Y0106740D01*
X0278165Y0107338D02*
X0277565Y0107338D01*
X0277565Y0107937D02*
X0278165Y0107937D01*
X0278165Y0108535D02*
X0277565Y0108535D01*
X0277565Y0109134D02*
X0278165Y0109134D01*
X0278165Y0109732D02*
X0277565Y0109732D01*
X0272140Y0103148D02*
X0267460Y0103148D01*
X0266962Y0102550D02*
X0272140Y0102550D01*
X0270613Y0096565D02*
X0268845Y0096565D01*
X0268845Y0095966D02*
X0271211Y0095966D01*
X0271810Y0095368D02*
X0268845Y0095368D01*
X0268845Y0094769D02*
X0272409Y0094769D01*
X0273007Y0094171D02*
X0268728Y0094171D01*
X0268391Y0093572D02*
X0273606Y0093572D01*
X0274568Y0092974D02*
X0268445Y0092974D01*
X0270769Y0092375D02*
X0272387Y0092375D01*
X0271788Y0091777D02*
X0271368Y0091777D01*
X0273387Y0089981D02*
X0274568Y0089981D01*
X0274568Y0089383D02*
X0272788Y0089383D01*
X0272190Y0088784D02*
X0274568Y0088784D01*
X0274568Y0088186D02*
X0271591Y0088186D01*
X0270993Y0087587D02*
X0274226Y0087587D01*
X0274168Y0086989D02*
X0270394Y0086989D01*
X0269796Y0086390D02*
X0278032Y0086390D01*
X0278032Y0086320D02*
X0278220Y0086320D01*
X0278220Y0084756D01*
X0278165Y0084756D01*
X0278165Y0079332D01*
X0277565Y0079332D01*
X0277565Y0084326D01*
X0278032Y0084326D01*
X0278032Y0086320D01*
X0278220Y0086390D02*
X0283617Y0086390D01*
X0283617Y0085792D02*
X0282083Y0085792D01*
X0282013Y0085193D02*
X0283617Y0085193D01*
X0283617Y0084595D02*
X0282919Y0084595D01*
X0283480Y0083996D02*
X0283617Y0083996D01*
X0283590Y0083398D02*
X0283617Y0083398D01*
X0283590Y0082799D02*
X0283643Y0082799D01*
X0283590Y0082201D02*
X0283945Y0082201D01*
X0283590Y0081602D02*
X0293065Y0081602D01*
X0288957Y0088186D02*
X0288357Y0088186D01*
X0288357Y0088784D02*
X0288957Y0088784D01*
X0288957Y0089383D02*
X0288357Y0089383D01*
X0288357Y0089981D02*
X0288957Y0089981D01*
X0288957Y0090580D02*
X0288357Y0090580D01*
X0288357Y0091178D02*
X0288957Y0091178D01*
X0288957Y0091777D02*
X0288357Y0091777D01*
X0288357Y0092375D02*
X0288957Y0092375D01*
X0288957Y0092974D02*
X0288357Y0092974D01*
X0288357Y0093572D02*
X0288957Y0093572D01*
X0288957Y0094171D02*
X0288357Y0094171D01*
X0288357Y0094769D02*
X0288957Y0094769D01*
X0288957Y0095368D02*
X0288357Y0095368D01*
X0283617Y0096565D02*
X0282371Y0096565D01*
X0282969Y0097163D02*
X0283617Y0097163D01*
X0283617Y0097762D02*
X0283568Y0097762D01*
X0284442Y0101353D02*
X0293065Y0101353D01*
X0278220Y0085792D02*
X0278032Y0085792D01*
X0278032Y0085193D02*
X0278220Y0085193D01*
X0278165Y0084595D02*
X0278032Y0084595D01*
X0278165Y0083996D02*
X0277565Y0083996D01*
X0277565Y0083398D02*
X0278165Y0083398D01*
X0278165Y0082799D02*
X0277565Y0082799D01*
X0277565Y0082201D02*
X0278165Y0082201D01*
X0278165Y0081602D02*
X0277565Y0081602D01*
X0277565Y0081004D02*
X0278165Y0081004D01*
X0278165Y0080405D02*
X0277565Y0080405D01*
X0277565Y0079807D02*
X0278165Y0079807D01*
X0277565Y0079208D02*
X0269021Y0079208D01*
X0269619Y0079807D02*
X0272140Y0079807D01*
X0272140Y0080405D02*
X0270784Y0080405D01*
X0271382Y0081004D02*
X0272140Y0081004D01*
X0272140Y0081602D02*
X0271542Y0081602D01*
X0271542Y0082201D02*
X0272140Y0082201D01*
X0272140Y0082799D02*
X0271542Y0082799D01*
X0271047Y0083398D02*
X0272140Y0083398D01*
X0272251Y0083996D02*
X0270449Y0083996D01*
X0268435Y0083996D02*
X0253576Y0083996D01*
X0254174Y0083398D02*
X0267836Y0083398D01*
X0267342Y0082799D02*
X0254773Y0082799D01*
X0255371Y0082201D02*
X0267205Y0082201D01*
X0266607Y0081602D02*
X0255970Y0081602D01*
X0256568Y0081004D02*
X0261723Y0081004D01*
X0261723Y0080405D02*
X0257167Y0080405D01*
X0257765Y0079807D02*
X0261723Y0079807D01*
X0261723Y0079208D02*
X0258364Y0079208D01*
X0258962Y0078610D02*
X0261723Y0078610D01*
X0261723Y0078011D02*
X0259561Y0078011D01*
X0260159Y0077412D02*
X0261723Y0077412D01*
X0261723Y0076814D02*
X0260758Y0076814D01*
X0261356Y0076215D02*
X0261723Y0076215D01*
X0261955Y0075617D02*
X0262098Y0075617D01*
X0262553Y0075018D02*
X0267152Y0075018D01*
X0267415Y0074420D02*
X0267751Y0074420D01*
X0267460Y0073821D02*
X0268349Y0073821D01*
X0268948Y0073223D02*
X0267460Y0073223D01*
X0267460Y0072624D02*
X0269546Y0072624D01*
X0269030Y0072026D02*
X0267460Y0072026D01*
X0267460Y0071427D02*
X0268432Y0071427D01*
X0267833Y0070829D02*
X0267460Y0070829D01*
X0264592Y0071837D02*
X0264342Y0072133D01*
X0263742Y0072133D01*
X0243042Y0092833D01*
X0243042Y0100633D01*
X0243942Y0101533D01*
X0246942Y0101533D01*
X0247019Y0101685D01*
X0250923Y0101951D02*
X0253463Y0101951D01*
X0252865Y0101353D02*
X0250923Y0101353D01*
X0250923Y0100754D02*
X0252266Y0100754D01*
X0251668Y0100156D02*
X0250923Y0100156D01*
X0250923Y0099557D02*
X0251069Y0099557D01*
X0226501Y0091777D02*
X0212838Y0091777D01*
X0212925Y0092375D02*
X0225903Y0092375D01*
X0239442Y0083233D02*
X0268542Y0054133D01*
X0268542Y0053233D01*
X0268592Y0053087D01*
X0271140Y0046888D02*
X0275896Y0046888D01*
X0275576Y0046290D02*
X0271460Y0046290D01*
X0271460Y0045691D02*
X0275576Y0045691D01*
X0278442Y0044233D02*
X0278444Y0044030D01*
X0278442Y0044233D02*
X0268842Y0044233D01*
X0268592Y0044030D01*
X0271460Y0042699D02*
X0275576Y0042699D01*
X0275576Y0042100D02*
X0271460Y0042100D01*
X0271460Y0041502D02*
X0275576Y0041502D01*
X0276006Y0040305D02*
X0271030Y0040305D01*
X0271460Y0039706D02*
X0275576Y0039706D01*
X0275576Y0039108D02*
X0271460Y0039108D01*
X0271460Y0038509D02*
X0275576Y0038509D01*
X0275576Y0037911D02*
X0271460Y0037911D01*
X0281313Y0037312D02*
X0292874Y0037312D01*
X0292985Y0037911D02*
X0281424Y0037911D01*
X0281313Y0036714D02*
X0292679Y0036714D01*
X0292485Y0036115D02*
X0281313Y0036115D01*
X0281313Y0035517D02*
X0292290Y0035517D01*
X0292070Y0034918D02*
X0281313Y0034918D01*
X0280834Y0034320D02*
X0291635Y0034320D01*
X0283586Y0070230D02*
X0276749Y0070230D01*
X0276150Y0070829D02*
X0283036Y0070829D01*
X0282932Y0071427D02*
X0275552Y0071427D01*
X0274953Y0072026D02*
X0282932Y0072026D01*
X0282932Y0072624D02*
X0274355Y0072624D01*
X0273756Y0073223D02*
X0282932Y0073223D01*
X0278165Y0073821D02*
X0277565Y0073821D01*
X0277565Y0074420D02*
X0278165Y0074420D01*
X0278165Y0075018D02*
X0277565Y0075018D01*
X0277565Y0075617D02*
X0278165Y0075617D01*
X0278165Y0076215D02*
X0277565Y0076215D01*
X0277565Y0076814D02*
X0278165Y0076814D01*
X0278165Y0077412D02*
X0277565Y0077412D01*
X0277565Y0078011D02*
X0278165Y0078011D01*
X0278165Y0078610D02*
X0277565Y0078610D01*
X0272140Y0078610D02*
X0268422Y0078610D01*
X0268968Y0078011D02*
X0272140Y0078011D01*
X0272140Y0077412D02*
X0269567Y0077412D01*
X0270165Y0076814D02*
X0272140Y0076814D01*
X0272140Y0076215D02*
X0270764Y0076215D01*
X0271362Y0075617D02*
X0272140Y0075617D01*
X0272140Y0075018D02*
X0271961Y0075018D01*
X0272812Y0084595D02*
X0252977Y0084595D01*
X0252379Y0085193D02*
X0274238Y0085193D01*
X0274168Y0085792D02*
X0269197Y0085792D01*
X0283842Y0120433D02*
X0284035Y0120433D01*
X0283842Y0120433D02*
X0283842Y0125833D01*
X0279042Y0130633D01*
X0278747Y0130650D01*
X0278742Y0130933D01*
X0278742Y0145033D01*
X0278747Y0145217D01*
X0276469Y0145044D02*
X0275710Y0145044D01*
X0275710Y0144446D02*
X0276469Y0144446D01*
X0276469Y0143847D02*
X0275710Y0143847D01*
X0275710Y0143249D02*
X0276469Y0143249D01*
X0276469Y0142650D02*
X0275710Y0142650D01*
X0275710Y0142052D02*
X0276469Y0142052D01*
X0276095Y0141453D02*
X0276907Y0141453D01*
X0276693Y0140855D02*
X0277542Y0140855D01*
X0277542Y0140256D02*
X0277303Y0140256D01*
X0279942Y0140256D02*
X0293065Y0140256D01*
X0293065Y0139658D02*
X0279942Y0139658D01*
X0279942Y0139059D02*
X0293065Y0139059D01*
X0293065Y0138461D02*
X0279942Y0138461D01*
X0279942Y0137862D02*
X0293065Y0137862D01*
X0293065Y0137264D02*
X0279942Y0137264D01*
X0279942Y0136665D02*
X0293065Y0136665D01*
X0293065Y0136067D02*
X0279942Y0136067D01*
X0279942Y0140855D02*
X0293065Y0140855D01*
X0293065Y0141453D02*
X0280587Y0141453D01*
X0281025Y0142052D02*
X0293065Y0142052D01*
X0293065Y0142650D02*
X0281025Y0142650D01*
X0281025Y0143249D02*
X0293065Y0143249D01*
X0293065Y0143847D02*
X0281025Y0143847D01*
X0281025Y0144446D02*
X0293041Y0144446D01*
X0292993Y0145044D02*
X0281025Y0145044D01*
X0281025Y0145643D02*
X0292909Y0145643D01*
X0292714Y0146241D02*
X0281025Y0146241D01*
X0281025Y0146840D02*
X0292520Y0146840D01*
X0292326Y0147438D02*
X0281025Y0147438D01*
X0281025Y0148037D02*
X0292131Y0148037D01*
X0291713Y0148635D02*
X0280932Y0148635D01*
X0276563Y0148635D02*
X0275617Y0148635D01*
X0275710Y0148037D02*
X0276469Y0148037D01*
X0276469Y0147438D02*
X0275710Y0147438D01*
X0275710Y0146840D02*
X0276469Y0146840D01*
X0276469Y0146241D02*
X0275710Y0146241D01*
X0275710Y0145643D02*
X0276469Y0145643D01*
X0269973Y0145643D02*
X0269214Y0145643D01*
X0269214Y0146241D02*
X0269973Y0146241D01*
X0269973Y0146840D02*
X0269214Y0146840D01*
X0269214Y0147438D02*
X0269973Y0147438D01*
X0269973Y0148037D02*
X0269214Y0148037D01*
X0269214Y0148542D02*
X0268687Y0149069D01*
X0265186Y0149069D01*
X0264658Y0148542D01*
X0264658Y0141891D01*
X0265186Y0141364D01*
X0268687Y0141364D01*
X0269214Y0141891D01*
X0269214Y0148542D01*
X0269121Y0148635D02*
X0270067Y0148635D01*
X0269973Y0145044D02*
X0269214Y0145044D01*
X0269214Y0144446D02*
X0269973Y0144446D01*
X0269973Y0143847D02*
X0269214Y0143847D01*
X0269214Y0143249D02*
X0269973Y0143249D01*
X0269973Y0142650D02*
X0269214Y0142650D01*
X0269214Y0142052D02*
X0269973Y0142052D01*
X0269589Y0141453D02*
X0268776Y0141453D01*
X0268991Y0140855D02*
X0262685Y0140855D01*
X0262685Y0141453D02*
X0265096Y0141453D01*
X0264658Y0142052D02*
X0262685Y0142052D01*
X0262685Y0142298D02*
X0258142Y0142298D01*
X0258142Y0138149D01*
X0261556Y0138149D01*
X0261887Y0138237D01*
X0262183Y0138409D01*
X0262425Y0138651D01*
X0262597Y0138947D01*
X0262685Y0139278D01*
X0262685Y0142298D01*
X0262685Y0142898D02*
X0262685Y0145919D01*
X0262597Y0146250D01*
X0262425Y0146546D01*
X0262183Y0146788D01*
X0261887Y0146959D01*
X0261556Y0147048D01*
X0258142Y0147048D01*
X0258142Y0142898D01*
X0262685Y0142898D01*
X0262685Y0143249D02*
X0264658Y0143249D01*
X0264658Y0143847D02*
X0262685Y0143847D01*
X0262685Y0144446D02*
X0264658Y0144446D01*
X0264658Y0145044D02*
X0262685Y0145044D01*
X0262685Y0145643D02*
X0264658Y0145643D01*
X0264658Y0146241D02*
X0262599Y0146241D01*
X0262094Y0146840D02*
X0264658Y0146840D01*
X0264658Y0147438D02*
X0070421Y0147438D01*
X0070227Y0146840D02*
X0253590Y0146840D01*
X0253500Y0146788D02*
X0253258Y0146546D01*
X0253087Y0146250D01*
X0252998Y0145919D01*
X0252998Y0142898D01*
X0257542Y0142898D01*
X0257542Y0142298D01*
X0258142Y0142298D01*
X0258142Y0142898D01*
X0257542Y0142898D01*
X0257542Y0147048D01*
X0254127Y0147048D01*
X0253797Y0146959D01*
X0253500Y0146788D01*
X0253085Y0146241D02*
X0070032Y0146241D01*
X0069838Y0145643D02*
X0252998Y0145643D01*
X0252998Y0145044D02*
X0069753Y0145044D01*
X0069706Y0144446D02*
X0252998Y0144446D01*
X0252998Y0143847D02*
X0069681Y0143847D01*
X0069681Y0143249D02*
X0239182Y0143249D01*
X0239225Y0143292D02*
X0238983Y0143050D01*
X0238812Y0142753D01*
X0238723Y0142423D01*
X0238723Y0140583D01*
X0241888Y0140583D01*
X0241888Y0139983D01*
X0238723Y0139983D01*
X0238723Y0138143D01*
X0238812Y0137813D01*
X0238983Y0137516D01*
X0239225Y0137274D01*
X0239521Y0137103D01*
X0239852Y0137015D01*
X0241888Y0137015D01*
X0241888Y0139983D01*
X0242488Y0139983D01*
X0242488Y0137015D01*
X0244525Y0137015D01*
X0244855Y0137103D01*
X0245152Y0137274D01*
X0245394Y0137516D01*
X0245565Y0137813D01*
X0245654Y0138143D01*
X0245654Y0139983D01*
X0242488Y0139983D01*
X0242488Y0140583D01*
X0241888Y0140583D01*
X0241888Y0143552D01*
X0239852Y0143552D01*
X0239521Y0143463D01*
X0239225Y0143292D01*
X0238784Y0142650D02*
X0238535Y0142650D01*
X0238561Y0142052D02*
X0238723Y0142052D01*
X0238723Y0141453D02*
X0238561Y0141453D01*
X0238561Y0140855D02*
X0238723Y0140855D01*
X0238561Y0140256D02*
X0241888Y0140256D01*
X0241888Y0139658D02*
X0242488Y0139658D01*
X0242488Y0140256D02*
X0252998Y0140256D01*
X0252998Y0139658D02*
X0245654Y0139658D01*
X0245654Y0139059D02*
X0253057Y0139059D01*
X0253087Y0138947D02*
X0253258Y0138651D01*
X0253500Y0138409D01*
X0253797Y0138237D01*
X0254127Y0138149D01*
X0257542Y0138149D01*
X0257542Y0142298D01*
X0252998Y0142298D01*
X0252998Y0139278D01*
X0253087Y0138947D01*
X0253448Y0138461D02*
X0245654Y0138461D01*
X0245578Y0137862D02*
X0268005Y0137862D01*
X0268005Y0137264D02*
X0245133Y0137264D01*
X0242488Y0137264D02*
X0241888Y0137264D01*
X0241888Y0137862D02*
X0242488Y0137862D01*
X0242488Y0138461D02*
X0241888Y0138461D01*
X0241888Y0139059D02*
X0242488Y0139059D01*
X0242488Y0140583D02*
X0245654Y0140583D01*
X0245654Y0142423D01*
X0245565Y0142753D01*
X0245394Y0143050D01*
X0245152Y0143292D01*
X0244855Y0143463D01*
X0244525Y0143552D01*
X0242488Y0143552D01*
X0242488Y0140583D01*
X0242488Y0140855D02*
X0241888Y0140855D01*
X0241888Y0141453D02*
X0242488Y0141453D01*
X0242488Y0142052D02*
X0241888Y0142052D01*
X0241888Y0142650D02*
X0242488Y0142650D01*
X0242488Y0143249D02*
X0241888Y0143249D01*
X0245195Y0143249D02*
X0252998Y0143249D01*
X0252998Y0142052D02*
X0245654Y0142052D01*
X0245654Y0141453D02*
X0252998Y0141453D01*
X0252998Y0140855D02*
X0245654Y0140855D01*
X0245593Y0142650D02*
X0257542Y0142650D01*
X0257542Y0142052D02*
X0258142Y0142052D01*
X0258142Y0142650D02*
X0264658Y0142650D01*
X0262685Y0140256D02*
X0268380Y0140256D01*
X0268005Y0139658D02*
X0262685Y0139658D01*
X0262627Y0139059D02*
X0268005Y0139059D01*
X0268005Y0138461D02*
X0262235Y0138461D01*
X0258142Y0138461D02*
X0257542Y0138461D01*
X0257542Y0139059D02*
X0258142Y0139059D01*
X0258142Y0139658D02*
X0257542Y0139658D01*
X0257542Y0140256D02*
X0258142Y0140256D01*
X0258142Y0140855D02*
X0257542Y0140855D01*
X0257542Y0141453D02*
X0258142Y0141453D01*
X0258142Y0143249D02*
X0257542Y0143249D01*
X0257542Y0143847D02*
X0258142Y0143847D01*
X0258142Y0144446D02*
X0257542Y0144446D01*
X0257542Y0145044D02*
X0258142Y0145044D01*
X0258142Y0145643D02*
X0257542Y0145643D01*
X0257542Y0146241D02*
X0258142Y0146241D01*
X0258142Y0146840D02*
X0257542Y0146840D01*
X0264658Y0148037D02*
X0070615Y0148037D01*
X0071033Y0148635D02*
X0264752Y0148635D01*
X0284429Y0152825D02*
X0078317Y0152825D01*
X0075492Y0152226D02*
X0287254Y0152226D01*
X0288664Y0151628D02*
X0074082Y0151628D01*
X0073258Y0151029D02*
X0289488Y0151029D01*
X0290312Y0150431D02*
X0072435Y0150431D01*
X0071903Y0149832D02*
X0290844Y0149832D01*
X0291279Y0149234D02*
X0071468Y0149234D01*
X0069681Y0142650D02*
X0218430Y0142650D01*
X0218430Y0142052D02*
X0069681Y0142052D01*
X0069681Y0141453D02*
X0218430Y0141453D01*
X0218430Y0140855D02*
X0069681Y0140855D01*
X0069681Y0140256D02*
X0218430Y0140256D01*
X0218162Y0139658D02*
X0069681Y0139658D01*
X0069681Y0139059D02*
X0217564Y0139059D01*
X0216965Y0138461D02*
X0069681Y0138461D01*
X0069681Y0137862D02*
X0216367Y0137862D01*
X0215768Y0137264D02*
X0069681Y0137264D01*
X0069681Y0136665D02*
X0215170Y0136665D01*
X0214571Y0136067D02*
X0069681Y0136067D01*
X0069681Y0135468D02*
X0213973Y0135468D01*
X0213374Y0134870D02*
X0069681Y0134870D01*
X0069681Y0134271D02*
X0212776Y0134271D01*
X0212177Y0133673D02*
X0069681Y0133673D01*
X0069681Y0133074D02*
X0211579Y0133074D01*
X0210980Y0132476D02*
X0069681Y0132476D01*
X0069681Y0131877D02*
X0210382Y0131877D01*
X0209783Y0131279D02*
X0069681Y0131279D01*
X0069681Y0130680D02*
X0209185Y0130680D01*
X0208586Y0130081D02*
X0069681Y0130081D01*
X0069681Y0129483D02*
X0207988Y0129483D01*
X0207389Y0128884D02*
X0069681Y0128884D01*
X0069681Y0128286D02*
X0206791Y0128286D01*
X0213993Y0130680D02*
X0228891Y0130680D01*
X0228292Y0131279D02*
X0214591Y0131279D01*
X0215190Y0131877D02*
X0227694Y0131877D01*
X0227095Y0132476D02*
X0215788Y0132476D01*
X0216387Y0133074D02*
X0226497Y0133074D01*
X0225898Y0133673D02*
X0216985Y0133673D01*
X0217584Y0134271D02*
X0225300Y0134271D01*
X0224701Y0134870D02*
X0218182Y0134870D01*
X0218781Y0135468D02*
X0224103Y0135468D01*
X0223504Y0136067D02*
X0219379Y0136067D01*
X0219978Y0136665D02*
X0222906Y0136665D01*
X0222307Y0137264D02*
X0220577Y0137264D01*
X0224721Y0139658D02*
X0225123Y0139658D01*
X0225123Y0140256D02*
X0224561Y0140256D01*
X0224561Y0140855D02*
X0225123Y0140855D01*
X0225123Y0141453D02*
X0224561Y0141453D01*
X0224561Y0142052D02*
X0225123Y0142052D01*
X0225123Y0142650D02*
X0224561Y0142650D01*
X0228188Y0140331D02*
X0228342Y0140233D01*
X0235242Y0140233D01*
X0235495Y0140283D01*
X0238561Y0139658D02*
X0238723Y0139658D01*
X0238723Y0139059D02*
X0238561Y0139059D01*
X0238561Y0138461D02*
X0238723Y0138461D01*
X0238798Y0137862D02*
X0238481Y0137862D01*
X0239243Y0137264D02*
X0227115Y0137264D01*
X0227714Y0136665D02*
X0268005Y0136665D01*
X0268005Y0136067D02*
X0228312Y0136067D01*
X0228911Y0135468D02*
X0253769Y0135468D01*
X0253398Y0134870D02*
X0229509Y0134870D01*
X0230108Y0134271D02*
X0253398Y0134271D01*
X0253398Y0133673D02*
X0230706Y0133673D01*
X0231126Y0137862D02*
X0232510Y0137862D01*
X0232430Y0138461D02*
X0231254Y0138461D01*
X0231254Y0141453D02*
X0232430Y0141453D01*
X0232430Y0142052D02*
X0231254Y0142052D01*
X0231254Y0142650D02*
X0232456Y0142650D01*
X0261914Y0135468D02*
X0268522Y0135468D01*
X0269132Y0134870D02*
X0262285Y0134870D01*
X0262285Y0134271D02*
X0264954Y0134271D01*
X0264658Y0133673D02*
X0262285Y0133673D01*
X0262285Y0133074D02*
X0264658Y0133074D01*
X0268918Y0134271D02*
X0269731Y0134271D01*
X0269573Y0133673D02*
X0269214Y0133673D01*
X0269214Y0133074D02*
X0269573Y0133074D01*
X0269573Y0132476D02*
X0269214Y0132476D01*
X0269214Y0131877D02*
X0269573Y0131877D01*
X0269573Y0131279D02*
X0269214Y0131279D01*
X0272542Y0129483D02*
X0273142Y0129483D01*
X0273142Y0128884D02*
X0272542Y0128884D01*
X0272542Y0128286D02*
X0273142Y0128286D01*
X0273142Y0127687D02*
X0272542Y0127687D01*
X0272542Y0127089D02*
X0273142Y0127089D01*
X0273142Y0126490D02*
X0272542Y0126490D01*
X0275321Y0126490D02*
X0281487Y0126490D01*
X0280889Y0127089D02*
X0280790Y0127089D01*
X0276704Y0127089D02*
X0275960Y0127089D01*
X0276110Y0127687D02*
X0276469Y0127687D01*
X0276469Y0128286D02*
X0276110Y0128286D01*
X0276110Y0128884D02*
X0276469Y0128884D01*
X0276469Y0129483D02*
X0276110Y0129483D01*
X0276110Y0130081D02*
X0276469Y0130081D01*
X0168792Y0095966D02*
X0145142Y0095966D01*
X0145142Y0095368D02*
X0168792Y0095368D01*
X0168792Y0094769D02*
X0145142Y0094769D01*
X0145142Y0094171D02*
X0168792Y0094171D01*
X0168792Y0093572D02*
X0145142Y0093572D01*
X0145142Y0092974D02*
X0168792Y0092974D01*
X0168792Y0092375D02*
X0145142Y0092375D01*
X0145142Y0091777D02*
X0168792Y0091777D01*
X0168792Y0091178D02*
X0145142Y0091178D01*
X0145142Y0090580D02*
X0168792Y0090580D01*
X0168792Y0089981D02*
X0145142Y0089981D01*
X0145142Y0089383D02*
X0168792Y0089383D01*
X0168792Y0088784D02*
X0145142Y0088784D01*
X0145142Y0088186D02*
X0168792Y0088186D01*
X0168792Y0087587D02*
X0145142Y0087587D01*
X0145142Y0086989D02*
X0168792Y0086989D01*
X0168792Y0086390D02*
X0145142Y0086390D01*
X0145142Y0085792D02*
X0168792Y0085792D01*
X0168792Y0085193D02*
X0145142Y0085193D01*
X0145142Y0084595D02*
X0168792Y0084595D01*
X0168792Y0083996D02*
X0145142Y0083996D01*
X0145142Y0083398D02*
X0168792Y0083398D01*
X0168792Y0082799D02*
X0145142Y0082799D01*
X0145142Y0082201D02*
X0168792Y0082201D01*
X0168792Y0081602D02*
X0145142Y0081602D01*
X0145142Y0081004D02*
X0168792Y0081004D01*
X0168792Y0080405D02*
X0145142Y0080405D01*
X0145142Y0079807D02*
X0168792Y0079807D01*
X0168792Y0079208D02*
X0145142Y0079208D01*
X0145142Y0078610D02*
X0168792Y0078610D01*
X0168792Y0078011D02*
X0145142Y0078011D01*
X0145142Y0077412D02*
X0168792Y0077412D01*
X0168792Y0076814D02*
X0145142Y0076814D01*
X0145142Y0076215D02*
X0168792Y0076215D01*
X0168792Y0075617D02*
X0145142Y0075617D01*
X0145142Y0075018D02*
X0168792Y0075018D01*
X0168792Y0074420D02*
X0145142Y0074420D01*
X0145142Y0073821D02*
X0168792Y0073821D01*
X0141742Y0078963D02*
X0135786Y0078963D01*
X0135259Y0078436D01*
X0135259Y0074347D01*
X0130595Y0069683D01*
X0130183Y0070095D01*
X0125942Y0070095D01*
X0125942Y0070621D01*
X0127542Y0070621D01*
X0127542Y0073787D01*
X0128142Y0073787D01*
X0128142Y0074387D01*
X0127542Y0074387D01*
X0127542Y0077552D01*
X0125942Y0077552D01*
X0125942Y0077714D01*
X0130183Y0077714D01*
X0130710Y0078241D01*
X0130710Y0079633D01*
X0135678Y0079633D01*
X0135786Y0079525D01*
X0141742Y0079525D01*
X0141742Y0078963D01*
X0141742Y0079208D02*
X0130710Y0079208D01*
X0130710Y0078610D02*
X0135432Y0078610D01*
X0135259Y0078011D02*
X0130480Y0078011D01*
X0130312Y0077463D02*
X0129981Y0077552D01*
X0128142Y0077552D01*
X0128142Y0074387D01*
X0131110Y0074387D01*
X0131110Y0076423D01*
X0131022Y0076754D01*
X0130851Y0077050D01*
X0130609Y0077292D01*
X0130312Y0077463D01*
X0130400Y0077412D02*
X0135259Y0077412D01*
X0135259Y0076814D02*
X0130987Y0076814D01*
X0131110Y0076215D02*
X0135259Y0076215D01*
X0135259Y0075617D02*
X0131110Y0075617D01*
X0131110Y0075018D02*
X0135259Y0075018D01*
X0135259Y0074420D02*
X0131110Y0074420D01*
X0131110Y0073787D02*
X0128142Y0073787D01*
X0128142Y0070621D01*
X0129981Y0070621D01*
X0130312Y0070710D01*
X0130609Y0070881D01*
X0130851Y0071123D01*
X0131022Y0071419D01*
X0131110Y0071750D01*
X0131110Y0073787D01*
X0131110Y0073223D02*
X0134135Y0073223D01*
X0134733Y0073821D02*
X0128142Y0073821D01*
X0128142Y0073223D02*
X0127542Y0073223D01*
X0127542Y0072624D02*
X0128142Y0072624D01*
X0128142Y0072026D02*
X0127542Y0072026D01*
X0127542Y0071427D02*
X0128142Y0071427D01*
X0128142Y0070829D02*
X0127542Y0070829D01*
X0125942Y0070230D02*
X0131142Y0070230D01*
X0131741Y0070829D02*
X0130518Y0070829D01*
X0131024Y0071427D02*
X0132339Y0071427D01*
X0132938Y0072026D02*
X0131110Y0072026D01*
X0131110Y0072624D02*
X0133536Y0072624D01*
X0135942Y0070333D02*
X0134142Y0068533D01*
X0132467Y0067238D02*
X0131544Y0067238D01*
X0132042Y0067663D02*
X0132042Y0067736D01*
X0130710Y0066405D01*
X0130710Y0064491D01*
X0130183Y0063964D01*
X0126715Y0063964D01*
X0127277Y0063402D01*
X0130183Y0063402D01*
X0130710Y0062875D01*
X0130710Y0062433D01*
X0134887Y0062433D01*
X0134859Y0062537D01*
X0134859Y0064180D01*
X0138782Y0064180D01*
X0138782Y0064780D01*
X0134859Y0064780D01*
X0134859Y0066423D01*
X0134861Y0066433D01*
X0133272Y0066433D01*
X0132042Y0067663D01*
X0133066Y0066639D02*
X0130945Y0066639D01*
X0130710Y0066041D02*
X0134859Y0066041D01*
X0134859Y0065442D02*
X0130710Y0065442D01*
X0130710Y0064844D02*
X0134859Y0064844D01*
X0134859Y0063647D02*
X0127032Y0063647D01*
X0130464Y0064245D02*
X0138782Y0064245D01*
X0138782Y0064780D02*
X0138782Y0067552D01*
X0136131Y0067552D01*
X0136242Y0067663D01*
X0136242Y0067714D01*
X0141742Y0067714D01*
X0141742Y0067552D01*
X0139382Y0067552D01*
X0139382Y0064780D01*
X0138782Y0064780D01*
X0138782Y0064844D02*
X0139382Y0064844D01*
X0139382Y0065442D02*
X0138782Y0065442D01*
X0138782Y0066041D02*
X0139382Y0066041D01*
X0139382Y0066639D02*
X0138782Y0066639D01*
X0138782Y0067238D02*
X0139382Y0067238D01*
X0138942Y0070333D02*
X0135942Y0070333D01*
X0138942Y0070333D02*
X0139082Y0070386D01*
X0138942Y0076333D02*
X0129642Y0067033D01*
X0127842Y0067033D01*
X0127842Y0067030D01*
X0130537Y0063048D02*
X0134859Y0063048D01*
X0134882Y0062450D02*
X0130710Y0062450D01*
X0125372Y0055268D02*
X0086104Y0055268D01*
X0086703Y0054669D02*
X0124774Y0054669D01*
X0124175Y0054071D02*
X0116143Y0054071D01*
X0116424Y0053472D02*
X0123577Y0053472D01*
X0122978Y0052874D02*
X0116442Y0052874D01*
X0116442Y0052275D02*
X0122380Y0052275D01*
X0121781Y0051677D02*
X0116442Y0051677D01*
X0116442Y0051078D02*
X0121183Y0051078D01*
X0120584Y0050479D02*
X0116442Y0050479D01*
X0116442Y0049881D02*
X0119986Y0049881D01*
X0119387Y0049282D02*
X0116442Y0049282D01*
X0116442Y0048085D02*
X0118190Y0048085D01*
X0117592Y0047487D02*
X0116442Y0047487D01*
X0116442Y0046888D02*
X0116993Y0046888D01*
X0118789Y0048684D02*
X0111142Y0048684D01*
X0111142Y0049282D02*
X0110542Y0049282D01*
X0110542Y0048684D02*
X0101142Y0048684D01*
X0101142Y0048633D02*
X0105242Y0048633D01*
X0110542Y0048633D01*
X0110542Y0043333D01*
X0106371Y0043333D01*
X0106040Y0043422D01*
X0105842Y0043536D01*
X0105644Y0043422D01*
X0105313Y0043333D01*
X0101142Y0043333D01*
X0101142Y0048633D01*
X0101142Y0048085D02*
X0100542Y0048085D01*
X0100542Y0047487D02*
X0101142Y0047487D01*
X0101142Y0046888D02*
X0100542Y0046888D01*
X0100542Y0046290D02*
X0101142Y0046290D01*
X0101142Y0045691D02*
X0100542Y0045691D01*
X0100542Y0045093D02*
X0101142Y0045093D01*
X0101142Y0044494D02*
X0100542Y0044494D01*
X0100542Y0043896D02*
X0101142Y0043896D01*
X0093041Y0042100D02*
X0112205Y0042100D01*
X0112803Y0042699D02*
X0092798Y0042699D01*
X0088282Y0043297D02*
X0113402Y0043297D01*
X0111142Y0043896D02*
X0110542Y0043896D01*
X0110542Y0044494D02*
X0111142Y0044494D01*
X0111142Y0045093D02*
X0110542Y0045093D01*
X0110542Y0045691D02*
X0111142Y0045691D01*
X0111142Y0046290D02*
X0110542Y0046290D01*
X0110542Y0046888D02*
X0111142Y0046888D01*
X0111142Y0047487D02*
X0110542Y0047487D01*
X0110542Y0048085D02*
X0111142Y0048085D01*
X0111142Y0049881D02*
X0110542Y0049881D01*
X0110542Y0050479D02*
X0111142Y0050479D01*
X0111142Y0051078D02*
X0110542Y0051078D01*
X0110542Y0051677D02*
X0111142Y0051677D01*
X0111142Y0052275D02*
X0110542Y0052275D01*
X0110542Y0052874D02*
X0111142Y0052874D01*
X0111142Y0053472D02*
X0110542Y0053472D01*
X0110542Y0054071D02*
X0111142Y0054071D01*
X0101142Y0054071D02*
X0100542Y0054071D01*
X0100542Y0053472D02*
X0101142Y0053472D01*
X0101142Y0052874D02*
X0100542Y0052874D01*
X0100542Y0052275D02*
X0101142Y0052275D01*
X0101142Y0051677D02*
X0100542Y0051677D01*
X0100542Y0051078D02*
X0101142Y0051078D01*
X0101142Y0050479D02*
X0100542Y0050479D01*
X0100542Y0049881D02*
X0101142Y0049881D01*
X0101142Y0049282D02*
X0100542Y0049282D01*
X0090842Y0048933D02*
X0090642Y0049033D01*
X0085542Y0054133D01*
X0075942Y0054133D01*
X0075642Y0053833D01*
X0075642Y0044233D01*
X0080742Y0039133D01*
X0081942Y0039133D01*
X0082102Y0038933D01*
X0078643Y0039108D02*
X0059420Y0039108D01*
X0059754Y0038509D02*
X0078643Y0038509D01*
X0078643Y0037911D02*
X0059754Y0037911D01*
X0056688Y0036433D02*
X0077442Y0036433D01*
X0079242Y0034633D01*
X0125142Y0034633D01*
X0135503Y0043297D02*
X0155209Y0043297D01*
X0154611Y0042699D02*
X0151044Y0042699D01*
X0169697Y0041502D02*
X0179737Y0041502D01*
X0179737Y0040903D02*
X0169697Y0040903D01*
X0169697Y0040305D02*
X0179737Y0040305D01*
X0179737Y0039706D02*
X0169697Y0039706D01*
X0169697Y0039108D02*
X0179737Y0039108D01*
X0182975Y0043297D02*
X0218742Y0043297D01*
X0218742Y0043896D02*
X0182376Y0043896D01*
X0183388Y0046888D02*
X0183988Y0046888D01*
X0183988Y0047487D02*
X0183388Y0047487D01*
X0183388Y0048085D02*
X0183988Y0048085D01*
X0139082Y0076291D02*
X0138942Y0076333D01*
X0137742Y0080833D02*
X0127842Y0080833D01*
X0127842Y0080780D01*
X0127542Y0077412D02*
X0128142Y0077412D01*
X0128142Y0076814D02*
X0127542Y0076814D01*
X0127542Y0076215D02*
X0128142Y0076215D01*
X0128142Y0075617D02*
X0127542Y0075617D01*
X0127542Y0075018D02*
X0128142Y0075018D01*
X0128142Y0074420D02*
X0127542Y0074420D01*
X0122542Y0074420D02*
X0109626Y0074420D01*
X0110224Y0075018D02*
X0122542Y0075018D01*
X0122542Y0075617D02*
X0110823Y0075617D01*
X0111421Y0076215D02*
X0122542Y0076215D01*
X0122542Y0076814D02*
X0112020Y0076814D01*
X0112618Y0077412D02*
X0122542Y0077412D01*
X0122542Y0078011D02*
X0113217Y0078011D01*
X0113815Y0078610D02*
X0122542Y0078610D01*
X0122542Y0079208D02*
X0114414Y0079208D01*
X0115012Y0079807D02*
X0122542Y0079807D01*
X0122542Y0080405D02*
X0115611Y0080405D01*
X0116209Y0081004D02*
X0122542Y0081004D01*
X0122542Y0081602D02*
X0116808Y0081602D01*
X0117406Y0082201D02*
X0122542Y0082201D01*
X0122542Y0082799D02*
X0118005Y0082799D01*
X0118603Y0083398D02*
X0122542Y0083398D01*
X0122542Y0083996D02*
X0119202Y0083996D01*
X0119800Y0084595D02*
X0122542Y0084595D01*
X0122898Y0085193D02*
X0120399Y0085193D01*
X0120997Y0085792D02*
X0123496Y0085792D01*
X0124095Y0086390D02*
X0121596Y0086390D01*
X0122194Y0086989D02*
X0124693Y0086989D01*
X0124973Y0087587D02*
X0122793Y0087587D01*
X0123391Y0088186D02*
X0124973Y0088186D01*
X0124973Y0088784D02*
X0123990Y0088784D01*
X0124588Y0089383D02*
X0124973Y0089383D01*
X0122990Y0091178D02*
X0069681Y0091178D01*
X0069681Y0090580D02*
X0122391Y0090580D01*
X0121793Y0089981D02*
X0069681Y0089981D01*
X0069681Y0089383D02*
X0121194Y0089383D01*
X0120596Y0088784D02*
X0069681Y0088784D01*
X0069681Y0088186D02*
X0119997Y0088186D01*
X0119399Y0087587D02*
X0069681Y0087587D01*
X0069681Y0086989D02*
X0118800Y0086989D01*
X0118202Y0086390D02*
X0069681Y0086390D01*
X0069681Y0085792D02*
X0117603Y0085792D01*
X0117005Y0085193D02*
X0069681Y0085193D01*
X0069681Y0084595D02*
X0116406Y0084595D01*
X0115808Y0083996D02*
X0069681Y0083996D01*
X0069681Y0083398D02*
X0115209Y0083398D01*
X0114611Y0082799D02*
X0069681Y0082799D01*
X0069681Y0082201D02*
X0114012Y0082201D01*
X0113414Y0081602D02*
X0069681Y0081602D01*
X0069681Y0081004D02*
X0112815Y0081004D01*
X0112217Y0080405D02*
X0069681Y0080405D01*
X0069681Y0079807D02*
X0111618Y0079807D01*
X0111020Y0079208D02*
X0069681Y0079208D01*
X0069681Y0078610D02*
X0110421Y0078610D01*
X0109823Y0078011D02*
X0069681Y0078011D01*
X0069681Y0077412D02*
X0109224Y0077412D01*
X0108626Y0076814D02*
X0069681Y0076814D01*
X0069681Y0076215D02*
X0108027Y0076215D01*
X0107429Y0075617D02*
X0069681Y0075617D01*
X0069681Y0075018D02*
X0106830Y0075018D01*
X0106232Y0074420D02*
X0069681Y0074420D01*
X0069681Y0073821D02*
X0105633Y0073821D01*
X0105035Y0073223D02*
X0069681Y0073223D01*
X0069681Y0072624D02*
X0104436Y0072624D01*
X0106035Y0070829D02*
X0122542Y0070829D01*
X0122542Y0071427D02*
X0106633Y0071427D01*
X0107232Y0072026D02*
X0122542Y0072026D01*
X0122542Y0072624D02*
X0107830Y0072624D01*
X0108429Y0073223D02*
X0122542Y0073223D01*
X0122542Y0073821D02*
X0109027Y0073821D01*
X0105436Y0070230D02*
X0122542Y0070230D01*
X0122542Y0069632D02*
X0049638Y0069632D01*
X0051342Y0054669D02*
X0058544Y0054669D01*
X0058544Y0054071D02*
X0051342Y0054071D01*
X0051342Y0053472D02*
X0058544Y0053472D01*
X0058544Y0052874D02*
X0051342Y0052874D01*
X0051342Y0052275D02*
X0058544Y0052275D01*
X0058544Y0051677D02*
X0051342Y0051677D01*
X0051342Y0051078D02*
X0058979Y0051078D01*
X0059071Y0046880D02*
X0058544Y0046353D01*
X0058544Y0043048D01*
X0059071Y0042521D01*
X0065919Y0042521D01*
X0066447Y0043048D01*
X0066447Y0046353D01*
X0065919Y0046880D01*
X0059071Y0046880D01*
X0058544Y0046290D02*
X0051342Y0046290D01*
X0051342Y0046888D02*
X0074442Y0046888D01*
X0074442Y0046290D02*
X0066447Y0046290D01*
X0066447Y0045691D02*
X0074442Y0045691D01*
X0074442Y0045093D02*
X0066447Y0045093D01*
X0066447Y0044494D02*
X0074442Y0044494D01*
X0074442Y0043896D02*
X0066447Y0043896D01*
X0066447Y0043297D02*
X0074880Y0043297D01*
X0075145Y0043033D02*
X0075145Y0043033D01*
X0075479Y0042699D02*
X0066097Y0042699D01*
X0058894Y0042699D02*
X0051342Y0042699D01*
X0051342Y0043297D02*
X0058544Y0043297D01*
X0058544Y0043896D02*
X0051342Y0043896D01*
X0051342Y0044494D02*
X0058544Y0044494D01*
X0058544Y0045093D02*
X0051342Y0045093D01*
X0051342Y0045691D02*
X0058544Y0045691D01*
X0051342Y0047487D02*
X0074442Y0047487D01*
X0074442Y0048085D02*
X0051342Y0048085D01*
X0051342Y0048684D02*
X0074442Y0048684D01*
X0074442Y0049282D02*
X0051342Y0049282D01*
X0051342Y0049881D02*
X0074442Y0049881D01*
X0074442Y0050479D02*
X0051342Y0050479D01*
X0048942Y0051078D02*
X0048270Y0051078D01*
X0048529Y0051677D02*
X0048942Y0051677D01*
X0048942Y0052275D02*
X0048539Y0052275D01*
X0066011Y0051078D02*
X0074442Y0051078D01*
X0074442Y0051677D02*
X0066447Y0051677D01*
X0066447Y0052275D02*
X0074442Y0052275D01*
X0074442Y0052874D02*
X0066447Y0052874D01*
X0066447Y0053472D02*
X0074442Y0053472D01*
X0074442Y0054071D02*
X0066447Y0054071D01*
X0066447Y0054669D02*
X0074781Y0054669D01*
X0075379Y0055268D02*
X0065997Y0055268D01*
X0076078Y0042100D02*
X0051342Y0042100D01*
X0051342Y0041502D02*
X0076676Y0041502D01*
X0077275Y0040903D02*
X0051342Y0040903D01*
X0051342Y0040305D02*
X0077873Y0040305D01*
X0078472Y0039706D02*
X0051342Y0039706D01*
X0052727Y0039108D02*
X0053956Y0039108D01*
X0053623Y0038509D02*
X0053061Y0038509D01*
X0053061Y0037911D02*
X0053623Y0037911D01*
X0053623Y0037312D02*
X0053061Y0037312D01*
X0053061Y0036714D02*
X0053623Y0036714D01*
X0053623Y0036115D02*
X0053061Y0036115D01*
X0053061Y0035517D02*
X0053623Y0035517D01*
X0053623Y0034918D02*
X0053061Y0034918D01*
X0053061Y0034320D02*
X0053623Y0034320D01*
X0053994Y0033721D02*
X0052690Y0033721D01*
X0059383Y0033721D02*
X0078457Y0033721D01*
X0077858Y0034320D02*
X0059754Y0034320D01*
X0059754Y0034918D02*
X0077260Y0034918D01*
X0078260Y0037312D02*
X0078643Y0037312D01*
X0137742Y0080833D02*
X0138942Y0082033D01*
X0139082Y0082197D01*
X0124187Y0092375D02*
X0069681Y0092375D01*
X0069681Y0091777D02*
X0123588Y0091777D01*
X0124785Y0092974D02*
X0069681Y0092974D01*
X0069681Y0093572D02*
X0124973Y0093572D01*
X0124973Y0094171D02*
X0069681Y0094171D01*
X0069681Y0094769D02*
X0124973Y0094769D01*
X0124973Y0095368D02*
X0069681Y0095368D01*
X0069681Y0095966D02*
X0124973Y0095966D01*
X0124973Y0096565D02*
X0069681Y0096565D01*
X0069681Y0097163D02*
X0125069Y0097163D01*
X0130615Y0097163D02*
X0134375Y0097163D01*
X0133777Y0096565D02*
X0130710Y0096565D01*
X0130710Y0095966D02*
X0133178Y0095966D01*
X0134974Y0097762D02*
X0069681Y0097762D01*
M02*
